<svg id="Layer_1" data-name="Layer 1" xmlns="http://www.w3.org/2000/svg" xmlns:xlink="http://www.w3.org/1999/xlink" viewBox="0 0 645.09 271.65"><defs><style>.cls-1{fill:#ed2028;}.cls-2{fill:url(#Blaze_Mandarin);}.cls-3{fill:url(#Blaze_Mandarin-2);}.cls-4{fill:url(#Blaze_Mandarin-3);}</style><linearGradient id="Blaze_Mandarin" x1="-9789.3" y1="-11707.45" x2="-9813.51" y2="-11664.15" gradientTransform="translate(9840.4 11911.75)" gradientUnits="userSpaceOnUse"><stop offset="0" stop-color="#f26722"/><stop offset="0.79" stop-color="#ed2028"/></linearGradient><linearGradient id="Blaze_Mandarin-2" x1="-9756.74" y1="-11744.66" x2="-9837.63" y2="-11652.66" gradientTransform="translate(9872.23 11828.58)" xlink:href="#Blaze_Mandarin"/><linearGradient id="Blaze_Mandarin-3" x1="-9756.74" y1="-11744.66" x2="-9837.63" y2="-11652.66" gradientTransform="translate(9872.23 11747.66)" xlink:href="#Blaze_Mandarin"/></defs><path class="cls-1" d="M197.31,256.79h-6V231.38H164.51v25.41h-6v-53.9h6v23H191.3v-23h6Z"/><path class="cls-1" d="M241.58,235.38a18,18,0,0,1-.23,3.16H214.4c.54,8.62,4.62,14.09,11.24,14.09,4.7,0,7.47-1.39,11.17-3.85l2.69,4.16c-4.85,3.08-8.39,4.69-14.47,4.69-7.39,0-16.4-5.39-16.4-21.25,0-12.85,7.08-20.86,16.71-20.86C235.88,215.52,241.58,223.83,241.58,235.38Zm-5.39-1.54c-.46-7.85-3.85-13.32-10.93-13.32-6,0-10.16,4.31-10.86,13.32Z"/><path class="cls-1" d="M280.78,256.79H275v-4.93a16.66,16.66,0,0,1-12.63,5.77c-6.31,0-12.93-3.15-12.93-12.93,0-9.09,7.47-12.94,15.48-12.94A21.66,21.66,0,0,1,275,234.07V229.3c0-6-2.85-8.93-8.78-8.93a21.07,21.07,0,0,0-11,3.08l-2.15-4.7a28.9,28.9,0,0,1,13.55-3.23c8.7,0,14.17,3.69,14.17,13.09ZM275,246.85v-8.16c-2.62-1.46-5.47-2.31-10.39-2.31-5.93,0-9.47,2.85-9.47,7.93,0,6,3.31,8.63,8.24,8.63A14.15,14.15,0,0,0,275,246.85Z"/><path class="cls-1" d="M299.49,256.79h-5.78v-52.9l5.78-3.23Z"/><path class="cls-1" d="M330.05,221.21h-10v26.34c0,3.62,1,4.85,4.08,4.85a13.39,13.39,0,0,0,5.69-1.16l-.38,5a18.28,18.28,0,0,1-7.47,1.38c-5,0-7.7-2.46-7.7-9.16V221.21h-5v-4.85h5V203.89l5.78-3.23v15.7h10Z"/><path class="cls-1" d="M372.4,256.79h-5.77V233.15c0-8.7-3.08-12.63-9.55-12.63-5.62,0-10,3.77-10,12.63v23.64H341.3v-52.9l5.77-3.23v20.63a13.06,13.06,0,0,1,11.17-5.77c8.54,0,14.16,5,14.16,16.63Z"/><path class="cls-1" d="M413,220.29l-3.46,4.31c-2.93-2.62-5.62-4.08-9.7-4.08-6.32,0-11.17,5.7-11.17,15.79,0,9.93,4.24,16.32,11.4,16.32,3.92,0,6.54-1.62,9.31-4.31l3.47,3.69a17.08,17.08,0,0,1-13,5.62c-8.86,0-17-6.77-17-20.86,0-14.94,8.93-21.25,17.4-21.25A18.77,18.77,0,0,1,413,220.29Z"/><path class="cls-1" d="M450.71,256.79h-5.77v-4.93a16.68,16.68,0,0,1-12.63,5.77c-6.31,0-12.94-3.15-12.94-12.93,0-9.09,7.47-12.94,15.48-12.94a21.7,21.7,0,0,1,10.09,2.31V229.3c0-6-2.85-8.93-8.78-8.93a21,21,0,0,0-11,3.08l-2.16-4.7a28.93,28.93,0,0,1,13.55-3.23c8.7,0,14.17,3.69,14.17,13.09Zm-5.77-9.94v-8.16c-2.62-1.46-5.47-2.31-10.4-2.31-5.93,0-9.47,2.85-9.47,7.93,0,6,3.31,8.63,8.24,8.63A14.17,14.17,0,0,0,444.94,246.85Z"/><path class="cls-1" d="M485.36,216.52l-1.46,5.85a11.48,11.48,0,0,0-6.09-1.54c-5.62,0-8.77,4.54-8.77,12.24v23.72h-5.78V216.36H469v5a11.84,11.84,0,0,1,10-5.85A15.43,15.43,0,0,1,485.36,216.52Z"/><path class="cls-1" d="M523.48,235.38a17,17,0,0,1-.24,3.16H496.3c.54,8.62,4.62,14.09,11.24,14.09,4.69,0,7.47-1.39,11.16-3.85l2.7,4.16c-4.85,3.08-8.4,4.69-14.48,4.69-7.39,0-16.4-5.39-16.4-21.25,0-12.85,7.08-20.86,16.71-20.86C517.78,215.52,523.48,223.83,523.48,235.38Zm-5.39-1.54c-.47-7.85-3.85-13.32-10.94-13.32-6,0-10.16,4.31-10.85,13.32Z"/><path class="cls-1" d="M158.76,80.18h75.67l-14.68,25.13h-28.2v19.36h28.61v24H191.55v34.81H158.76Zm80.47,0h32.94V183.47H239.23Zm50.29,0h70.06v25H322v14.45h29.62v22.83H322v16h39.73v25H289.52Zm84.81,0h41.46c27.45,0,40.89,11.7,40.89,32.79v1.74c0,13.58-6.79,21.38-16.18,26l22,42.76h-34.1l-17.63-36h-3.9v36h-32.5Zm39.15,46.52c8.09,0,11.7-3.61,11.7-10.69v-1.88c0-6.79-3.75-9.54-11.41-9.54h-6.94V126.7Zm52.6,9.24v-8.09c0-30.19,18.35-49.26,49.7-49.26,29,0,45.07,12.28,45.07,40.74H529.5c-.14-9.54-4.19-14.88-13.58-14.88-10.11,0-15.6,7.94-15.6,23.26v8.09c0,15.46,4.77,23.4,15.75,23.4,9.1,0,14.73-4.62,14.73-15.74h30.63c0,27.45-16.47,41.89-45.65,41.89C481.54,185.35,466.08,165.56,466.08,135.94ZM572.85,80.18h70.07v25H605.36v14.45H635v22.83H605.36v16h39.73v25H572.85Z"/><polygon class="cls-2" points="54.2 257.35 54.05 200.15 4.6 228.88 54.2 257.35"/><path class="cls-3" d="M122.46,139.52l-.26-58.6L0,151.75v58.49Z"/><path class="cls-4" d="M122.46,58.6,122.2,0,0,70.83v58.49Z"/></svg>