<?xml version="1.0" encoding="UTF-8"?>
<svg id="Layer_1" data-name="Layer 1" xmlns="http://www.w3.org/2000/svg" viewBox="0 0 49.43 58.38">
  <defs>
    <style>
      .cls-1 {
        fill: #cfd0d2;
      }

      .cls-2 {
        fill: #0a72bb;
      }

      .cls-3 {
        fill: #57585d;
      }

      .cls-4 {
        fill: #aeb0b3;
      }

      .cls-5 {
        fill: #c5c6c8;
      }

      .cls-6 {
        fill: #0269b5;
      }

      .cls-7 {
        fill: #7b7d80;
      }

      .cls-8 {
        fill: #0d75bc;
      }

      .cls-9 {
        fill: #8a8b8f;
      }

      .cls-10 {
        fill: #dedee0;
      }

      .cls-11 {
        fill: #edeeee;
      }

      .cls-12 {
        fill: #9a9b9f;
      }

      .cls-13 {
        fill: #165da0;
      }

      .cls-14 {
        fill: #b6b7ba;
      }

      .cls-15 {
        fill: #fefefe;
      }
    </style>
  </defs>
  <path class="cls-2" d="m49.4,10.62c0,.21.03.41.03.62v46.04c0,.26-.02.53-.04.84h-1.35c-1.04,0-2.08.02-3.12.02-.23,0-.46-.02-.68-.03-.05-.43-.14-.85-.15-1.28-.03-1.33,0-2.65-.05-3.98-.03-.71,0-1.4.17-2.09.03-.09.06-.18.09-.27.07-.28.15-.57.22-.86h0s.93-1.53.93-1.53c.03-.16.05-.31.08-.47-.02-.08-.03-.17-.05-.25,0,0,.03-.03.03-.04l-.06-.06c-.16-.32-.32-.63-.47-.95-.23-.47-.56-.83-1.04-1.04-.49-.22-1.01-.39-1.51-.6-.32-.13-.63-.29-.95-.45v-1.87c.43.08.08.55.4.73.21-.07.46-.16.76-.26.63.41,1.28.84,1.84,1.2.62.13,1.13.23,1.58.32.3-.41.51-.78.8-1.07.42-.43.6-.93.6-1.52s0-1.19.03-1.78c.02-.51.09-1.01.08-1.52-.02-1.01-.11-2.01-.11-3.02,0-5.87-.02-11.74,0-17.61,0-1.74-.11-3.46-.27-5.19,0-.14-.05-.3-.13-.41-.22-.3-.46-.57-.69-.84-.3-.05-.58-.11-.87-.13-.76-.06-1.53-.14-2.29-.15-.68,0-1.36.1-2.05.1-1.44,0-2.89-.07-4.33-.07-1.06,0-2.12.06-3.18.07-.76.01-1.53-.03-2.29.01-.53.03-1.05.16-1.57.25-.12.4-.22.71-.33,1.05-.8.21-.95.81-.91,1.55.02.43-.06.86-.1,1.3-.08.86.07,1.65.65,2.32.16.19.29.4.44.6.56.76,1.16,1.45,2.1,1.77.23.08.46.2.65.35.34.25.66.54.99.82l.05-.05c.11.17.22.35.32.5.53.25,1.04.46,1.52.74.21.12.56.3.28.67-.4-.26-.79-.51-1.19-.77-.28-.14-.59-.26-.84-.44-.48-.35-.93-.75-1.4-1.12-.26-.21-.55-.39-.93-.65-.06,0-.27-.03-.41-.04-.39-.34-.69-.72-1.08-.92-.44-.23-.79-.52-.9-.96-.22-.88-1.05-1.15-1.58-1.71,0-1.04-.01-2.08-.02-3.12.1-.25.19-.5.29-.76.04-.02.05-.05.05-.09.08-.18.17-.36.25-.55v-.02l.04-.03-.02-.04c.03-.18.07-.36.1-.53-.13-.31-.25-.62-.38-.93.13-.54.17-.57.85-.53.22.19.45.4.74.65.7-.6,1.54-.44,2.34-.44h15.25s-.02.07-.03.11c.66.23,1.32.45,1.98.68,0-.03,0-.06,0-.09.28-.06.56-.13.84-.19h0Z"/>
  <path class="cls-2" d="m5.48,58.01c-.37,0-.75.02-1.12.03-1.06.03-2.12.07-3.18.09H.13c-.03-.28-.07-.5-.07-.72,0-12.23.02-24.45.03-36.68,0-2.67,0-5.33,0-8,0-.21.02-.41.03-.62.21-.08.46-.1.62-.23.66-.52,1.3-1.08,1.93-1.6,1.13-.06,2.22-.16,3.32-.15,4.47.02,8.93.07,13.4.12.5,0,1-.05,1.46.22.09.05.24,0,.33,0,.45-.43.3-.9.17-1.36.39,0,.79-.01,1.18-.02-.1.29-.19.57-.29.85-.05.15-.13.29-.2.44-.03.05-.05.1-.08.15-.03.07-.07.14-.1.22v.03c-.04.08-.07.15-.1.23-.12.59,0,1.1.45,1.52.02.08.04.16.07.24-.01.04-.03.08-.04.12h-.82c-.4-.49-.79-.97-1.1-1.35-.87-.43-1.68-.41-2.49-.41H6.26c-.19,0-.38.02-.56-.01-1.15-.22-2.25.05-3.36.32-.47.11-.67.43-.72.83-.11.96-.24,1.93-.26,2.9-.04,1.94,0,3.87,0,5.81v17.34c0,1.22.08,2.45.12,3.67.03.86.05,1.72.08,2.49.78.76,1.81,1.09,2.68.93.22.08.42.16.63.24.04-.03.08-.06.12-.1-.08-.27-.16-.55-.25-.84.18-.61.9-.59,1.25-1.02.35-.42.73-.82,1.13-1.26-.12-.18-.24-.36-.34-.5-.06-.36-.11-.66-.16-.97h.07c.04-.54.07-1.07.11-1.54.37-.16.67-.28.96-.41.02.03.04.05.06.08-.01.22-.09.46-.03.65.09.29.28.54.43.81-.02,1.11-.04,2.22-.06,3.33-.19.17-.38.35-.56.52h-.05c-.06.04-.13.08-.19.12-.51.24-1.03.45-1.52.71-.59.31-1.07.72-1.22,1.41h0s-.06.08-.08.12c-.31.47-.6.94-.63,1.52.16.54.55.75,1.07.75.05.24.15.48.13.71-.05.59.15,1.07.51,1.51.03.06.06.12.09.17,0,.03,0,.06.02.08,0,1.66,0,3.33.01,4.99-.07.5-.14,1.01-.22,1.51h-.03Z"/>
  <path class="cls-5" d="m20.58,58.12h-4.87c.43-.67.93-1.28,1.63-1.7.61-.37.93-.95,1.25-1.55v-.25c-.04-.29-.07-.58-.11-.87v-.99c.16-.03.29-.07.12-.26-.04-.17-.07-.33-.11-.5.07-.36.17-.71.19-1.07.03-.76.01-1.53.01-2.29-.03-.25-.06-.51-.09-.76-.01-.34.03-.71-.36-.98-.13,0-.32-.03-.5-.03-.1,0-.19.05-.29.07-.33.02-.66.05-.98.07-.08,0-.17-.02-.25-.03-.13-.03-.25-.07-.38-.1-.05-.44-.1-.89-.15-1.25.63-.74,1.24-1.25,2.19-1.14.21.02.47-.13.67-.26.53-.36.61-.9.53-1.48v-.25c.05-.29.1-.57.14-.86.04,0,.08,0,.12,0,.02.3.08.57.39.76.24-.08.49-.16.74-.24.58.67,1.25.67,1.91,0,.43-.05.38.44.65.58.6.06.7,0,.96-.6.04,0,.09,0,.13.02.04.08.08.16.12.25.11.24.26.33.49.13l.48-.13c.09.07.25.14.25.22,0,.71-.07,1.4-.74,1.96-.42,0-.89,0-1.35,0-.18,0-.36.09-.53.15-.18.06-.34.15-.52.18-.75.13-1.5.24-2.4.38-.3.18-.53.57-.56,1.05.09.22.17.41.25.59v.35c-.04.08-.09.17-.15.29.14.04.24.07.33.1,0,.2.02.41.03.61-.06.05-.17.11-.17.15.06.45.14.9.21,1.36v.38c-.04.09-.12.18-.12.27.04.94.09,1.89.14,2.83,0,.05.07.1.1.15v.5c-.05.33-.09.67-.14,1-.15.5-.04.63.78.88.3-.1.63-.2.96-.32.34-.12.54-.37.61-.72.04-.2.08-.43-.23-.47v-4.87c.08-.08.18-.15.23-.24.13-.22.24-.44.4-.73.21.18.35.3.49.42,0,.21-.06.43.01.57.15.28-.07.69.34.85,0,.25,0,.5.01.74-.03.5-.06,1-.07,1.5,0,.04.13.08.19.12v.37c-.18.19-.04.22.12.25v.37c-.19.23-.38.45-.12.75v.38c-.09.12-.17.23-.26.35.02.04.05.08.07.12.11-.03.21-.06.32-.08.33.21.67.08,1,0,.08.04.17.08.25.12.65.24.96.18,1.39-.31-.09-.07-.17-.13-.26-.19v-1c.58.49.67,1.3.18,1.84-.28.05-.59.12-.89.15-.49.05-.99.02-1.46.11-1,.18-.99.2-1.13,1.25-.27.4-.66.31-1.06.23-.22-.33-.42-.73-.93-.51-.14.25-.21.68-.21,1.31v-.04Z"/>
  <path class="cls-4" d="m5.69,56.49v-4.99c.45-.31.63-.75.65-1.28.33,0,.66.02.99.03.25-.21.5-.42.75-.63.16,0,.33,0,.49.02.3.3.59.33.82.07.03-.03-.03-.14-.05-.21-.07-.32-.03-.68-.36-.89-.09-.14-.19-.29-.28-.43.02-.12.04-.23.05-.34.2-.08.36-.15.49-.2.14-.23.25-.42.36-.59.43-.1.66.06.74.45-.44.24-.54.56-.27.89.05.2.1.4.16.6,0,.16.02.31.24.16.12,0,.24,0,.36.02.32.42.55,0,.87-.04-.04-.46.26-.97-.35-1.25h0c-.04-.08-.08-.16-.12-.25.21-.38.33-.83.7-1.22.34.41.64.76.93,1.12-.01.07-.02.15-.04.22-.31.08-.17.3-.17.5,0,.53.06,1.08-.06,1.59-.11.47-.13.87.07,1.32.13.29.22.66.15.95-.25,1.13.08,2.16.4,3.26.7-.08,1.31-.21,1.74-.84.04-.7.18-1.43.1-2.14-.05-.51-.02-.98.12-1.45.03-.1.03-.2.04-.31.44.34.36.84.33,1.27-.05.84-.36,1.66-.09,2.51.03.09-.02.2-.03.3.03.03.05.06.08.09-.36.28-.73.56-.93.71-.23.66.09.93.41,1.23-.14.2-.28.38-.39.57-.14.23-.25.46-.38.69-1.29,0-2.57,0-3.86.02-1.35.02-2.69.07-4.04.09-.2,0-.4-.06-.6-.1v-1.52h-.02Zm2.27-5.51c-.04-.07-.08-.14-.16-.27-.06.14-.08.21-.11.27-.28.14-.24.41-.24.65v3.73c-.02.41.07.75.55.86.19-.05.41-.11.61-.16.48-.5-.08-.95-.02-1.43.12-.29.32-.46.63-.36.23.18.41.33.6.47.13.12.26.23.42.38h.33c.34.25.51-.04.75-.21v-3.3c.19-.21.18-.41,0-.63.03-.16.05-.31.1-.57-.24-.06-.46-.14-.69-.18-.3-.05-.61-.08-.91-.12-.11-.02-.22-.05-.33-.07-.05.36-.09.68-.14,1.07h-.79c-.2-.05-.41-.09-.61-.14h0Z"/>
  <path class="cls-14" d="m14.2,58c.12-.23.24-.47.38-.69.11-.19.25-.37.39-.57-.32-.3-.64-.56-.41-1.23.21-.16.57-.44.93-.71-.03-.03-.05-.06-.08-.09.01-.1.06-.21.03-.3-.27-.85.04-1.67.09-2.51.03-.43.11-.94-.33-1.27v-.25c-.12-.7-.4-1.37-.32-2.1,0-.08-.18-.19-.28-.28-.01-.04-.03-.07-.04-.11-.07-.1-.13-.2-.2-.3-.31-.23-.66-.26-1.02-.17-.17.04-.34.07-.51.11-.29-.35-.59-.7-.93-1.12-.37.39-.49.84-.7,1.22-.21.03-.42-.26-.63,0h-.25v-.13c-.08-.39-.3-.55-.74-.45-.11.18-.22.37-.36.59-.13.05-.3.12-.49.2-.02.1-.03.22-.05.34-.2-.03-.41-.06-.61-.09-.12-.05-.25-.1-.37-.15-.09-.1-.17-.21-.26-.31-.16-.09-.31-.18-.49-.28-.38.19-.75.37-1.11.55.03-.25.06-.5.09-.74-.42-.2-.76-.36-1.11-.53.15-.17.3-.33.48-.53.48,0,1,.12,1.42-.03.41-.15.72-.58,1.03-.84.67-.27,1.29-.52,1.91-.77,0,.03.02.06.03.08.35.04.69.07.9.1.67-.32,1.21-.58,1.84-.89h.9c.21-.35.42-.71.68-1.16.27.85.95,1.02,1.57,1.27.53-.16.5-.57.5-.97.23.08.45.15.76.25.09-.21.15-.41.25-.58.07-.12.2-.2.3-.3h.08c.03.3.12.52.49.41h.24c.04.07.07.13.14.25.07-.12.1-.18.14-.24.08,0,.16,0,.24,0,.12.03.24.07.36.1.08.59,0,1.13-.53,1.48-.2.13-.45.29-.67.26-.95-.11-1.56.41-2.19,1.14.04.37.1.81.15,1.25-.12.08-.23.15-.34.22.21.86.4,1.69.63,2.5.04.15.21.27.32.41,0,.08,0,.16.01.24-.04.12-.08.25-.12.37-.42.82-.24,1.65.01,2.47.17.52.13,1-.11,1.5-.27.57-.45,1.19-.68,1.83.6.16.97-.12,1.34-.43.52-.43,1.03-.89,1.69-1.12-.32.6-.65,1.18-1.25,1.55-.69.42-1.19,1.03-1.63,1.7-.5-.04-1-.08-1.5-.12v-.02Z"/>
  <path class="cls-1" d="m20.58,58.12c0-.63.07-1.06.21-1.31.51-.21.7.18.93.51.4.07.79.17,1.06-.23.14-1.05.13-1.07,1.13-1.25.48-.09.98-.06,1.46-.11.31-.03.61-.1.89-.15.49-.54.4-1.35-.18-1.84v-1.25c.08-.12.23-.24.24-.36.02-.66.01-1.33,0-1.99,0-.09-.08-.18-.12-.27v-.87c.3-.1.47-.51.87-.38,0,.26-.02.52.01.78.02.12.15.23.23.35v.49c-.08.12-.23.24-.23.36.02.72.06,1.44.12,2.16.01.13.16.24.24.36,0,.08,0,.17.01.25-.04.21-.1.43-.1.64,0,.18.08.36.09.55.05.82.15.95.99,1.18.57-.1,1.15-.2,1.82-.32-.17-.34-.3-.59-.44-.87v-3.28c0-.22-.08-.43-.12-.65-.03-.17-.07-.33-.1-.5.03-.38.07-.75.1-1.13.27-.05.31-.17.13-.37,0-.18-.02-.36-.03-.54.03-.23.06-.47.08-.7.07-.17.14-.35.2-.52h.48c.17,0,.34,0,.51,0,.05.17.11.33.16.5,0,.25-.01.5-.02.74-.02-.02-.04-.02-.06,0-.29.33-.29.46,0,.78,0,.04.01.07.03.11v1.63c-.04.07-.11.14-.11.21,0,.99-.01,1.98,0,2.97,0,.11.14.22.21.33,0,.08.01.16.02.24-.07.37-.15.74-.22,1.11-.68.21-1.36.42-2.04.62-.08.02-.16,0-.25.02-.34.06-.68.12-.99.17-.12.48-.14.5.09.72.32.31.46.67.41,1.11-2.58.07-5.17-.02-7.75,0h.04Z"/>
  <path class="cls-11" d="m44.51,49.63c-.07.28-.15.57-.22.85-.03.09-.06.18-.09.27-.15.69-.2,1.38-.17,2.09.06,1.32.02,2.65.05,3.98,0,.43.1.86.15,1.28-.33,0-.67,0-1,.02-.76.06-1.52.16-2.28.22-.37.03-.75.02-1.12.03-.84,0-1.69.02-2.53,0-.79-.02-1.57-.08-2.36-.12.06-.12.1-.29.2-.37.63-.52,1.37-.75,2.17-.64.68.09,1.27-.12,1.81-.48.15-.1.2-.37.3-.56.05-.19.1-.39.15-.58,0-.13,0-.25.02-.38,0-.29,0-.58,0-.87.04-.08.07-.16.11-.25.2-.04.4-.09.59-.13.04.37.08.75.13,1.12.04.34.07.67.11,1.01.17.13.34.27.51.4.08.04.17.09.25.13.08.14.16.28.24.42.04-.02.07-.04.11-.06v-.47c.02-.23.04-.45.06-.68.31-.22.31-.28,0-.52v-2.11c.29-.08.22-.31.22-.51v-1.61c.34-.2.64-.4.97-.56.29-.15.43-.37.4-.7.4-.08.79-.17,1.19-.25l.02.03Z"/>
  <path class="cls-6" d="m21.32,9.09c.13.46.28.93-.17,1.36-.09,0-.24.06-.33,0-.46-.27-.96-.21-1.46-.22-4.47-.04-8.93-.1-13.4-.12-1.1,0-2.19.1-3.32.15-.63.53-1.27,1.08-1.93,1.6-.17.13-.41.16-.62.23C.06,11.26.03,10.42,0,9.59l.06-.51c.66-.29,1.35-.08,2.03-.08.77,0,1.54.09,2.3.09,5.45,0,10.91-.03,16.36-.05.19,0,.37.01.56.02v.03Z"/>
  <path class="cls-6" d="m49.4,10.62c-.28.06-.56.13-.84.19,0,.03,0,.06,0,.09-.66-.23-1.32-.45-1.98-.68,0-.04.02-.07.03-.11h-15.25c-.8,0-1.63-.16-2.34.44-.29-.25-.52-.45-.74-.65-.67-.05-.71-.02-.85.53-.04,0-.07-.02-.09-.06l-.3-.12c-.06-.01-.12-.02-.18-.03h-.01c.04-.29.07-.57.11-.86.03-.04.06-.08.09-.13.6-.24,1.22-.21,1.84-.21,5.24.03,10.48.05,15.72.06,1.25,0,2.49-.07,3.74-.1.33,0,.66.03,1.04.05v1.58h.02Z"/>
  <path class="cls-10" d="m39.43,56.2c-.1.19-.14.45-.3.56-.54.36-1.12.57-1.81.48-.8-.11-1.54.13-2.17.64-.1.08-.13.24-.2.37h-5.84c-.26,0-.52-.08-.79-.12.05-.44-.09-.8-.41-1.11-.23-.22-.21-.24-.09-.72.31-.05.65-.11.99-.17.08,0,.17,0,.25-.02.68-.2,1.36-.41,2.04-.62h.62c.41.09.83.17,1.24.26h.37c.28.03.47-.06.5-.37.33-.04.66-.08.98-.12,0,.27.15.42.4.49.41.31.84.5,1.35.23.19.02.27-.06.24-.25.06-.33.13-.65.19-.98.11.03.22.07.35.11-.03.38-.05.73-.08,1.13.27-.14.48-.25.69-.36.02.34.11.61.53.6h.95v-.03Z"/>
  <path class="cls-3" d="m23.56,8.73c.21-.94.48-1.88.62-2.84.06-.42-.11-.89-.2-1.33-.08-.4-.18-.8-.28-1.2v-.25c.05-1.08.31-2.11.75-3.11.43.09.55.35.61.63.17.71.32,1.42.45,2.13.03.17,0,.37-.07.54-.38,1-.55,1.97.04,2.99.23.41.2.96.28,1.45.07.45.12.91.18,1.36-.03.06-.06.11-.11.23.14-.02.22-.03.29-.04.03.03.06.06.1.09.02.04.04.07.07.1l.03.03c.01.19.03.37.04.56-.05.05-.11.1-.16.15-.12-.02-.24-.04-.36-.06-.41-.45-.94-.54-1.51-.56-.13.08-.25.17-.38.25h0c-.16-.04-.32-.09-.49-.13v-.6c.03-.14.07-.27.1-.41v.02Z"/>
  <path class="cls-9" d="m22.01,10.36c.07-.15.14-.29.2-.44.1-.28.19-.57.29-.85.11.01.22.02.33.03,0,.04,0,.08.02.12-.05.26-.09.52-.14.78-.23.12-.46.24-.69.36h-.01Z"/>
  <path class="cls-13" d="m26.37,10.09c-.01-.19-.03-.37-.04-.56.1-.07.19-.15.29-.22.12-.02.24-.03.35-.05v.1c-.04.29-.07.57-.11.86l-.02.02c-.08-.02-.15-.04-.23-.06-.08-.03-.16-.07-.23-.1h-.01Z"/>
  <path class="cls-7" d="m5.69,56.49v1.52h-.22c.07-.5.15-1.01.22-1.51h0Z"/>
  <path class="cls-4" d="m22.84,9.22s-.01-.08-.02-.12c.25-.12.49-.25.74-.37-.03.14-.07.27-.1.41-.21.03-.42.05-.62.08Z"/>
  <path class="cls-5" d="m.06,9.11l-.06.51.06-.51Z"/>
  <path class="cls-12" d="m26.13,9.3c-.07.01-.15.02-.29.04.05-.11.08-.17.11-.23.06.06.12.12.18.18h0Z"/>
  <path class="cls-12" d="m26.61,9.31c-.1.07-.19.15-.29.22l-.03-.03s.02-.08.03-.12c.1-.02.19-.05.29-.07Z"/>
  <path class="cls-13" d="m26.32,9.38l-.03.12s-.05-.06-.07-.1c.03-.02.07-.02.1-.02Z"/>
  <path class="cls-12" d="m26.95,9.36v-.1s.05-.04.09-.02c-.03.04-.06.08-.09.13h0Z"/>
  <path class="cls-8" d="m35.45,23.12c.28-.37-.07-.55-.28-.67-.48-.28-.99-.49-1.52-.74-.1-.15-.21-.33-.32-.5l-.05.05c-.33-.27-.64-.56-.99-.82-.2-.15-.42-.27-.65-.35-.94-.31-1.54-1.01-2.1-1.77-.15-.2-.28-.41-.44-.6-.59-.67-.74-1.46-.65-2.32.04-.43.12-.87.1-1.3-.04-.74.11-1.33.91-1.55.11-.35.2-.66.33-1.05.52-.09,1.04-.22,1.57-.25.76-.04,1.53,0,2.29-.01,1.06-.02,2.12-.08,3.18-.07,1.44,0,2.89.07,4.33.07.68,0,1.36-.11,2.05-.1.76,0,1.53.09,2.29.15.29.02.57.09.87.13.23.27.47.55.69.84.08.11.12.27.13.41.15,1.73.28,3.45.27,5.19-.03,5.87-.02,11.74,0,17.61,0,1.01.09,2.01.11,3.02,0,.51-.07,1.01-.08,1.52-.02.59-.03,1.19-.03,1.78s-.18,1.08-.6,1.52c-.29.29-.5.66-.8,1.07-.45-.09-.96-.2-1.58-.32-.56-.36-1.21-.79-1.84-1.2-.3.1-.55.19-.76.26-.32-.19.03-.65-.4-.73-.08-.8-.06-1.6.16-2.38.04-.02.05-.06.03-.1,0-.14,0-.27.02-.41v-1.58c.13-.11.25-.21.51-.43.17.93.13,1.79.86,2.4.15-.1.34-.23.52-.35-.05-.2-.08-.36-.11-.49.09-.24.17-.45.26-.66-.15-.45-.3-.88-.39-1.15-.61-.54-1.1-.98-1.57-1.39-.08-.47-.15-.91-.22-1.36-.04.02-.08.04-.12.06-.29-.34-.59-.68-.84-.96-.03-1.02.15-2-.67-2.67-.12-.34-.22-.63-.32-.92h.06c-.03-.55-.07-1.1-.1-1.68-.17-.14-.35-.28-.47-.38-.45-.99-.87-1.92-1.29-2.86-.57-.27-1.1-.56-1.49-1.1-.19-.26-.56-.39-.86-.58v-.28Z"/>
  <path class="cls-10" d="m41.63,39.99c-.22.78-.24,1.58-.16,2.38v1.87c.32.15.63.32.95.45.5.21,1.01.38,1.51.6.47.21.81.57,1.04,1.04.15.32.31.63.47.95,0,.04,0,.07.03.1.02.08.03.17.05.25-.03.16-.05.31-.08.47-.31.51-.62,1.01-.93,1.52.02-.2.05-.4.06-.6.02-.33.06-.67-.35-.79-.3-.12-.59-.23-.89-.35-.13-.08-.25-.16-.38-.24h-.24c-.22-.2-.45-.41-.67-.61-.35-.32-.58-.33-.83-.03-.08-.04-.17-.08-.25-.13.1-.31.19-.63.31-1-.65-.41-1.23-.77-1.81-1.13.04-.46.08-.92.12-1.37.02-.37.03-.73.05-1.1.1-.12.29-.21.08-.39,0-.25,0-.49-.02-.74v-.27c0-.08,0-.16,0-.24.04-.33.11-.66.12-1,0-.26.06-.47.27-.63.53.17,1.06.33,1.59.5,0,.14,0,.27-.02.41,0,.03-.02.07-.03.1v-.02Z"/>
  <path class="cls-6" d="m35.45,23.12v.25c.37.76.81,1.47,1.66,1.79.12.05.22.18.31.27.02.21.04.4.05.58.24.24.51.49.57.79.08.4.07.84-.02,1.24-.09.44-.08.81.19,1.18.19.26.15.51-.16.67-.2-.5-.39-1-.61-1.49-.17-.37-.38-.72-.58-1.09-1.53-2.37-3.57-4.19-6.05-5.53-.13-.07-.26-.12-.4-.16-1.05-.31-1.76-.93-2.08-2.03-.13-.46-.47-.86-.74-1.28-.14-.22-.33-.41-.5-.62l.02-1.2c.53.56,1.36.82,1.58,1.71.11.45.46.74.9.96.39.2.69.58,1.08.92.14.02.35.04.41.04.38.27.66.45.93.65.47.37.92.77,1.4,1.12.26.19.56.3.84.44.4.26.8.51,1.19.77v.02Z"/>
  <path class="cls-11" d="m27.12,16.5c0,.4-.02.8-.02,1.2-.29.37-.67.56-1.14.55-.21-.25-.42-.5-.62-.75-.1-1.13-.24-2.25,0-3.38.12-.11.31-.21.36-.35.09-.25.1-.52.14-.79.09-.55.18-1.09.27-1.62.31-.15.55-.27.79-.39.32.14.63.27.93.39-.03.18-.07.36-.1.53-.01.02-.02.04-.02.07v.02c-.17.11-.33.22-.55.37.17.1.23.13.29.17,0,.04-.01.07-.05.09-.32.17-.57.36-.29.76,0,1.04.01,2.08.02,3.12h-.01Z"/>
  <path class="cls-15" d="m40.95,46.87c.08.04.17.08.25.13.4.3.8.59,1.26.93.09-.11.17-.2.25-.29h.24c.02.24.2.25.38.24.3.12.59.23.89.35.41.12.37.46.35.79,0,.2-.04.4-.06.6h0c-.4.09-.79.18-1.19.26-.52-.41-.92-.98-1.62-1.13-.12-.05-.24-.1-.37-.15-.33-.12-.66-.24-.98.04-.17.02-.34.04-.47.06-.16-.17-.28-.31-.41-.45-.04-.16-.02-.38-.29-.35-.25-.05-.49-.09-.74-.14h-.6c-.14-.09-.29-.17-.48-.29.46-.64,1.15-.57,1.62-.86.52.19.98.36,1.47.54.06-.12.09-.19.12-.26.12,0,.25,0,.37-.02h.01Z"/>
  <path class="cls-10" d="m27.81,11.37c-.3-.13-.6-.26-.93-.39-.24.12-.48.24-.79.39-.09.53-.18,1.07-.27,1.62-.04.26-.05.54-.14.79-.05.14-.24.23-.36.35,0-.08-.01-.15-.02-.23,0-.5.01-1.01.02-1.51-.1-.26-.2-.52-.34-.87.17-.12.38-.27.6-.4.22-.12.48-.17.5-.49.04-.05.08-.1.13-.15.11,0,.22-.02.33-.03.11-.05.22-.1.33-.15.01,0,.02-.02.03-.03-.01-.02-.03-.03-.04-.05.06.01.12.02.18.03.1.04.2.08.3.12.02.04.04.06.09.06.13.31.25.62.38.93h0Z"/>
  <path class="cls-10" d="m27.1,13.38c-.28-.4-.03-.59.29-.76-.1.25-.19.5-.29.76Z"/>
  <path class="cls-10" d="m27.44,12.53c-.06-.04-.13-.07-.29-.17.22-.15.38-.26.54-.37-.08.18-.17.36-.25.55h0Z"/>
  <path class="cls-12" d="m45.43,48.09c.03-.16.05-.31.08-.47-.03.16-.05.31-.08.47Z"/>
  <path class="cls-4" d="m44.2,50.75c.03-.09.06-.18.09-.27-.03.09-.06.18-.09.27Z"/>
  <path class="cls-10" d="m27.69,11.97s0-.05.02-.07l.02.04-.04.03Z"/>
  <path class="cls-12" d="m45.46,47.37s-.03-.06-.03-.1l.06.06s-.02.02-.03.04Z"/>
  <path class="cls-8" d="m7.72,38.99c-.29.12-.59.25-.96.41-.03.47-.07,1-.11,1.54h-.07c.05.31.1.61.16.97.09.14.22.33.34.5-.39.44-.77.84-1.13,1.26-.35.43-1.07.41-1.25,1.02.09.29.17.57.25.84-.04.03-.08.06-.12.1-.21-.08-.41-.16-.63-.24-.87.16-1.89-.17-2.68-.93-.02-.77-.05-1.63-.08-2.49-.04-1.22-.11-2.45-.12-3.67,0-1.93,0-3.85,0-5.78v-11.56c0-1.94-.03-3.87,0-5.81.02-.97.15-1.94.26-2.9.05-.41.25-.72.72-.83,1.11-.27,2.21-.54,3.36-.32.18.03.37.01.56.01h11.56c.81,0,1.62-.03,2.49.41.31.38.7.85,1.1,1.35h.82s.08.08.12.11c.25,1.29.11,2.59.05,3.89-.48.13-.95.26-1.43.39-.33.09-.54.3-.62.63-.07.29-.25.49-.49.69-.26.21-.42.55-.64.82-.18.21-.35.44-.58.6-.72.49-1.48.88-2.31,1.15-.23.07-.44.25-.61.42-.47.48-.92.99-1.38,1.49-.11.12-.26.21-.38.32-.21.2-.41.4-.61.61-.16.16-.3.34-.47.49-.71.61-1.46,1.17-1.73,2.14-.03.12-.1.24-.19.32-.65.59-.67,1.34-.58,2.17.16.12.34.25.48.35.28-.03.51-.06.73-.08-.01.11-.02.22-.03.33-.11.35-.23.71-.34,1.06l-.04.03v.05s-.04.03-.07.04c-.34-.13-.68-.26-.99-.38-.39.28-.2.6-.16.9-.15.18-.3.35-.47.55-.05.37-.12.76-.14,1.15-.03.41,0,.81,0,1.2-.89.19-2.03,1.25-2.87,2.6.03.45-.16.97.4,1.37.13-.21.25-.39.41-.65.2-.03.46-.06.72-.1-.02.04-.04.08-.07.12-.03.05-.06.1-.09.15-.04.4-.08.81-.11,1.21v-.02Z"/>
  <path class="cls-4" d="m16.08,42.87c0,.4.03.81-.5.97-.62-.25-1.3-.42-1.57-1.27-.26.45-.47.81-.68,1.16h-.9c-.63.31-1.17.57-1.84.89-.21-.02-.56-.06-.9-.1,0-.03-.02-.06-.03-.08-.62.25-1.24.5-1.91.77-.31.26-.62.69-1.03.84-.42.15-.94.03-1.42.03-.18.2-.33.37-.48.53h-.24c.15-.69.63-1.11,1.22-1.41.5-.26,1.01-.48,1.52-.71.06-.04.13-.08.19-.12h.05c.3-.05.62-.08.56-.52.02-1.11.04-2.22.06-3.33.12-.18.24-.36.34-.51.49.09.95.13.94.72v2.11c.04.34.08.68.12,1,.22.1.36.17.54.26.35-.39.69-.77,1.05-1.17.7.22,1.31.7,2.11.44.09-1.12.07-2.21-.12-3.29-.02-.13-.19-.24-.26-.32-.43.1-.79.19-1.23.3-.2.32-.44.7-.79,1.24-.33-.45-.58-.77-.82-1.1-.03.02-.06.05-.09.07-.01-.19-.02-.37-.03-.56,0-.08.02-.15.02-.23.12-.08.24-.17.37-.25.08-.04.16-.09.25-.13.21.2.33.14.37-.13.07,0,.14-.02.21-.03.16,0,.31-.02.49-.04.03-.22.05-.38.07-.55.12,0,.25,0,.37-.02.08.05.16.09.24.14.37.45.73.49,1.12.11,0-.33.01-.66.02-.99.04-.2.07-.41.11-.61.13-.04.25-.08.38-.12.07.12.15.24.22.36.09.4-.06.88.39,1.16.05.18.1.35.15.53-.17.44-.26.89-.26,1.33,0,.62.08,1.23.11,1.85.03.69.14.9.52.99.52.13.66-.28.86-.61.04.13.08.25.12.38v.02Z"/>
  <path class="cls-4" d="m22.38,16.87c.06-1.3.2-2.59-.05-3.89-.03-.08-.05-.16-.08-.23-.02-.08-.04-.16-.07-.24.25-.12.27-.34.26-.57v-.76c.4-.08.69-.14.99-.2-.03.18-.07.36-.12.6.21.14.43.29.65.41.68.38,1.24.83.97,1.77.14.04.25.08.36.12,0,.08.01.15.02.23-.23,1.13-.09,2.25,0,3.38-.59-.07-1.13.07-1.63.36h-.24c-.19-.1-.38-.19-.51-.26-.27.11-.45.19-.63.27.02-.33.05-.67.07-1h0Z"/>
  <path class="cls-12" d="m9.94,39.73c.01.19.02.37.03.56.03-.02.06-.05.09-.07.24.33.49.66.82,1.1.34-.54.59-.92.79-1.24.45-.11.8-.19,1.23-.3.07.08.24.18.26.32.19,1.08.21,2.17.12,3.29-.8.26-1.41-.22-2.11-.44-.36.4-.7.78-1.05,1.17-.18-.09-.33-.16-.54-.26-.04-.32-.08-.66-.12-1,.21.12.42.23.71.39.1-.2.21-.38.27-.58.06-.19.05-.4.09-.6.14-.69-.34-1.28-1.07-1.32,0-.6-.45-.63-.94-.72-.1.15-.22.33-.34.51-.15-.27-.34-.52-.43-.81-.06-.2.01-.43.03-.65.18-.03.35-.06.53-.08.14.6.62.81,1.07,1.01.23-.11.39-.19.56-.27h0Z"/>
  <path class="cls-5" d="m4.58,46.62h.24c.35.16.69.33,1.11.53-.03.23-.06.49-.09.74-.09.2-.18.4-.27.61-.02,0-.05.02-.05.03,0,.03.02.06.03.1h.04c-.05.08-.11.16-.16.24-.17.05-.34.11-.51.16-.53,0-.92-.21-1.07-.75.03-.58.32-1.05.63-1.52.03-.04.06-.08.08-.12h0l.02-.02Z"/>
  <path class="cls-1" d="m8.32,38.99c-.18.03-.36.06-.53.08-.02-.03-.04-.05-.06-.08.04-.4.08-.81.11-1.21.03-.05.06-.1.09-.15.02-.04.04-.08.07-.12.44-.39.87-.78,1.31-1.17.08.37.16.74.24,1.1h.66c-.25.18-.51.34-.75.54-.39.33-.76.67-1.14,1.01Z"/>
  <path class="cls-12" d="m4.94,49.02c.17-.05.34-.11.51-.16.02.1.03.2.05.31.6.09.85.47.84,1.04-.02.53-.21.97-.65,1.28-.02-.02-.03-.05-.02-.08-.03-.06-.06-.12-.09-.17-.37-.44-.57-.92-.51-1.51.02-.23-.08-.47-.13-.71Z"/>
  <path class="cls-12" d="m23.44,10.99c-.3.06-.6.12-.99.2v.76c0,.23-.01.45-.26.57-.45-.42-.57-.93-.45-1.52.03-.08.05-.15.08-.23v-.03c.04-.07.08-.14.11-.22.03-.05.05-.1.08-.15.23-.12.46-.24.69-.36.31.16.47.57.9.52-.05.16-.1.31-.16.47h0Z"/>
  <path class="cls-13" d="m8.13,43.86c.06.44-.26.47-.56.52.19-.17.38-.35.56-.52Z"/>
  <path class="cls-9" d="m21.82,10.76c-.03.08-.05.15-.08.23.03-.08.05-.15.08-.23Z"/>
  <path class="cls-12" d="m22.25,12.75c.03.08.05.16.08.23-.04-.04-.08-.08-.12-.11.01-.04.03-.08.04-.12Z"/>
  <path class="cls-9" d="m21.93,10.51c-.03.07-.07.14-.1.22.03-.07.07-.14.1-.22Z"/>
  <path class="cls-4" d="m4.58,46.63s-.06.08-.08.12c.03-.04.06-.08.08-.12Z"/>
  <path class="cls-7" d="m5.57,51.24c.03.06.06.12.09.17-.03-.06-.06-.12-.09-.17Z"/>
  <path class="cls-13" d="m7.52,44.38c-.06.04-.13.08-.19.12.06-.04.13-.08.19-.12Z"/>
  <path class="cls-1" d="m19.58,46.89c-.08-.19-.16-.37-.25-.59.03-.48.26-.87.56-1.05.9-.14,1.65-.25,2.4-.38.18-.03.35-.12.52-.18.18-.06.35-.14.53-.15.46-.02.93,0,1.35,0,.67-.56.74-1.25.74-1.96,0-.07-.16-.15-.25-.22.39-.38.2-.93.39-1.37.29.08.58.16.89.25.37-.32.63-.7.76-1.16.09.05.17.1.26.15.03.58.04,1.16.09,1.74.04.51.21.64.8.66.34-.4.3-.9.29-1.4,0-.37.02-.74.04-1.11.08-.17.2-.33.23-.51.05-.28.03-.56.03-.84l.23-.02c.09.15.18.31.3.51.15-.05.28-.1.41-.14-.07-.41,0-.7.22-.87.02.17.05.33.07.5l.03.43c.1,1.1.19,2.21.29,3.34.5.14.92.3,1.3-.13.38-.02.4-.34.44-.58.09-.5.11-1.02.18-1.53.03-.22.09-.43.13-.64.2.04.41.08.61.12,0,.42,0,.84.02,1.26-.08.44-.15.87-.23,1.35.16.09.32.18.47.27.17.35.42.45.76.23h.49c.14-.04.28-.07.42-.11.15.12.3.24.48.37.14-.13.27-.25.39-.36.15.13.3.27.45.4.11.42.45.5.87.56.05-.2.1-.4.14-.59.04-.04.09-.08.13-.12.08.04.17.09.26.14-.1.27-.19.5-.26.71.05.21.09.39.13.53-.05.37-.26.57-.57.62-.43.06-.87.16-1.29.11-.87-.09-1.59.33-2.38.52h-.38c-.41-.41-.92-.25-1.4-.21-.08,0-.15.21-.23.32h-1.37c-.12-.16-.25-.16-.38,0h-.25c-.03-.15-.06-.31-.25-.13h-.25c-.09-.39-.48-.2-.73-.43-.19.15-.36.29-.53.43-.12.08-.25.17-.37.25-.22.04-.44.08-.71.12-.46-.15-.96-.35-1.47-.48-.66-.17-1.29-.14-1.85.48.06.23.13.48.2.73-.06.09-.12.18-.18.26-.17.02-.3.06-.14.25-.01.08-.03.16-.04.25-.27.08-.54.17-.81.25h-.1c-.01-.26-.01-.51-.04-.77,0-.04-.15-.07-.24-.1-.7-.32-1.4-.36-2.09.04-.09,0-.19,0-.28-.02h.02Z"/>
  <path class="cls-7" d="m16.44,50.24c0-.08,0-.16-.01-.24.02-.2.04-.41.07-.66.16-.07.31-.17.48-.22.26-.07.53-.09.79-.15.35-.09.42-.25.32-.7-.66-.11-1.3-.07-1.92.44-.09-.27-.15-.44-.21-.61.71-.11,1.41-.21,2.12-.33.06,0,.1-.16.12-.2-.06-.51-.5-.46-.75-.65.1-.03.19-.07.29-.07.18,0,.36.02.5.03.39.27.34.63.36.98-.17.28-.29.55.09.76,0,.76.02,1.53-.01,2.29-.01.36-.12.71-.19,1.07-.21.15-.2.32-.04.5,0,.09.02.17.03.26v.99c-.08.2-.15.41-.23.62-.5.31-.53.31-1.12.11-.01-.22-.05-.46-.03-.7.06-1.02-.07-2.02-.38-2.99-.06-.19-.17-.36-.26-.54h-.02Z"/>
  <path class="cls-7" d="m22.36,42.11c-.66.67-1.33.67-1.91,0-.03-.47-.04-.95-.08-1.42-.09-1.19-.2-2.39-.28-3.58-.01-.2.11-.41.17-.62.08.28.15.57.21.78.7.21,1.29.32,1.88-.02.11-.06.28-.03.42-.04.03.25.06.5.08.75-.03.12-.05.24-.08.36-.36-.12-.71-.24-1.22-.42-.17.06-.51.18-.87.31.03.32.05.55.08.87.42,0,.79,0,1.15,0,.26,0,.49.03.65.26-.07.92-.14,1.83-.21,2.75v.02Z"/>
  <path class="cls-7" d="m19.97,53.87v-.5c.04-.07.11-.14.11-.21-.05-.98-.1-1.96-.16-2.94,0-.03-.05-.06-.08-.09v-.38c.07-.19.14-.37.22-.59.55-.09,1.08-.04,1.67.26-.06,1.08-.12,2.16-.18,3.25-.02.33-.04.66-.09.98-.04.27-.13.54-.21.86-.42-.04-.75-.08-1.03-.11-.1-.24-.17-.39-.23-.54h-.02Z"/>
  <path class="cls-7" d="m18.7,42.63c-.08,0-.16,0-.24,0h-.28c-.08,0-.16,0-.24,0-.16-.13-.32-.27-.49-.4h-.08c-.02-.5-.04-.99-.05-1.49.17-.21.19-.39-.09-.52l-.03-.98c.17-.08.34-.22.52-.24.57-.09,1.08.08,1.56.38-.03.62-.06,1.24-.09,1.86v.37c-.05.29-.1.57-.14.86-.12.05-.23.1-.35.15h0Z"/>
  <path class="cls-1" d="m22.78,38.35c.03-.12.05-.24.08-.36.13.04.27.09.4.13.13-.04.27-.09.4-.13.05.44.09.89.15,1.33.05.35.11.71.16,1.06v1.72c-.26.6-.35.66-.96.6-.27-.14-.22-.63-.65-.58.07-.92.14-1.83.21-2.75.07-.34.14-.68.21-1.02Z"/>
  <path class="cls-12" d="m19.97,53.87c.06.15.13.29.23.54.28.03.61.06,1.03.11.08-.33.17-.59.21-.86.05-.32.07-.65.09-.98.06-1.09.12-2.17.18-3.25-.59-.3-1.12-.35-1.67-.26-.08.22-.15.4-.22.59-.07-.45-.15-.9-.21-1.36,0-.04.11-.1.17-.15.16.08.32.17.42.22.46-.04.84-.07,1.22-.11.3.02.62.08.63-.38v-.23h.27c-.01.23-.02.45-.03.68-.04,0-.09,0-.13-.02-.07.33-.14.65-.21.98v4.87c-.01.38-.14.73-.53.81-.54.11-1.1.21-1.59-.18.05-.33.09-.67.14-1v-.02Z"/>
  <path class="cls-1" d="m19.2,41.24c.03-.62.06-1.24.09-1.86v-1.16c-.03-.21-.06-.43-.09-.64.01-.23.02-.47.04-.7.06-.05.13-.1.24-.19-.13-.05-.19-.07-.26-.09-.02-.03-.04-.06-.04-.1.14-.09.27-.17.4-.25.24.05.45.1.67.15v.1c-.06.21-.18.42-.17.62.08,1.19.19,2.39.28,3.58.04.47.05.95.08,1.42-.25.08-.5.17-.74.24-.31-.18-.38-.46-.39-.76-.04-.12-.08-.24-.12-.36h.01Z"/>
  <path class="cls-12" d="m24.7,55.13c-.33.09-.67.22-1,0-.04-.13-.09-.25-.13-.38v-.38c.13-.24.26-.47.12-.75v-.37c-.04-.08-.08-.17-.12-.25v-.37c-.04-.54-.08-1.09-.12-1.63,0-.25,0-.5-.01-.74-.14-.61.03-1.28-.32-1.86-.03-.06.05-.18.07-.27.66.37,1.4.26,2.1.36.29.04.56-.1.68-.43.03-.08.14-.13.21-.19.02.08.04.17.05.25,0,.09-.02.17-.03.26-.12.29-.25.58-.37.88-.21-.03-.37-.35-.63-.13h-.75c-.2-.04-.39-.09-.64-.14-.05.23-.07.38-.1.53v.49c.04.8.08,1.61.12,2.41,0,.16.01.34.08.49.22.51.21,1-.02,1.51-.05.12-.02.27-.02.4.48.07.82,0,1.21-.25.24-.15.5-.29.74-.43.05.37-.06.65-.45.77-.07.02-.12.15-.17.23h-.24c-.08,0-.17,0-.25.02v-.03Z"/>
  <path class="cls-4" d="m18.58,54.87c-.66.23-1.17.69-1.69,1.12-.37.3-.74.59-1.34.43.24-.65.41-1.26.68-1.83.24-.51.27-.98.11-1.5-.26-.82-.43-1.64-.01-2.47.08.38.21.75.24,1.13.07.97.09,1.94.14,2.91,0,.15.08.29.14.48.62-.18,1.17-.35,1.73-.51v.25h0Z"/>
  <path class="cls-3" d="m23.99,41.73c0-.45,0-.91-.01-1.36.27-.19.55-.38.84-.58.23.07.47.15.72.22.01.33.03.66.04.99-.19.44,0,.99-.39,1.37-.16.04-.32.09-.48.13-.16-.04-.32-.09-.49-.13-.04-.08-.08-.16-.12-.25.16-.18.12-.31-.11-.38h0Z"/>
  <path class="cls-3" d="m21.43,48.35c-.38.03-.77.07-1.22.11-.1-.05-.26-.13-.42-.22-.01-.2-.02-.41-.03-.61.01-.12.03-.25.04-.37l.07-.35c.69-.4,1.39-.36,2.09-.04.04.29.08.58.11.88v.23c-.21.13-.42.25-.63.38h-.01Z"/>
  <path class="cls-12" d="m15.96,48.11c.06.17.11.34.21.61.61-.51,1.25-.54,1.92-.44.1.44.03.61-.32.7-.26.06-.53.08-.79.15-.17.04-.32.14-.48.22-.03.26-.05.46-.07.66-.11-.13-.28-.25-.32-.41-.22-.82-.42-1.65-.63-2.5.11-.07.23-.15.34-.22.13.03.25.07.38.1-.04.09-.09.18-.13.26-.02.08-.04.15-.06.23-.21.1-.25.23-.07.4,0,.08.01.16.02.24Z"/>
  <path class="cls-12" d="m18.57,54.62c-.55.16-1.1.33-1.73.51-.06-.18-.13-.33-.14-.48-.05-.97-.07-1.94-.14-2.91-.03-.38-.16-.75-.24-1.13.04-.12.08-.25.12-.37.09.18.2.35.26.54.31.97.43,1.97.38,2.99-.01.24.02.48.03.7.59.21.62.21,1.12-.11.08-.22.16-.42.23-.62.03.29.07.58.1.87h0Z"/>
  <path class="cls-3" d="m15.96,48.11c0-.08-.01-.16-.02-.24.02-.13.05-.27.07-.4.02-.08.04-.15.06-.23.13-.08.26-.15.39-.23.33-.02.66-.05.98-.07.25.19.69.15.75.65-.02.04-.06.19-.12.2-.7.12-1.41.22-2.12.33h.01Z"/>
  <path class="cls-14" d="m23.19,48.12c-.03.09-.11.22-.07.27.35.58.19,1.25.32,1.86-.41-.16-.2-.58-.34-.85-.08-.14-.01-.36-.01-.57-.14-.12-.28-.24-.49-.42-.15.28-.27.51-.4.73-.06.09-.15.16-.23.24.07-.33.14-.65.21-.98.04,0,.09,0,.13.02.01-.23.02-.45.03-.68.27-.08.54-.17.81-.25.02.21.03.42.05.63h0Z"/>
  <path class="cls-14" d="m19.83,54.87c.49.39,1.05.29,1.59.18.4-.08.52-.43.53-.81.31.04.27.28.23.47-.07.34-.28.59-.61.72-.33.12-.66.22-.96.32-.82-.25-.93-.38-.78-.88Z"/>
  <path class="cls-4" d="m25.19,55.11c.06-.08.1-.2.17-.23.39-.13.5-.4.45-.77v-.86c.05-.38.09-.76.14-1.13l.13.38v2.25c-.12.13-.24.27-.33.37h-.56Z"/>
  <path class="cls-12" d="m19.83,50.12s.07.06.08.09c.06.98.11,1.96.16,2.94,0,.07-.07.14-.11.21-.04-.05-.1-.1-.1-.15-.05-.94-.1-1.89-.14-2.83,0-.09.08-.18.12-.27h-.01Z"/>
  <path class="cls-14" d="m25.19,55.11h.55c.1-.11.21-.24.33-.37.09.06.17.13.26.19-.43.49-.74.55-1.39.31v-.13h.25Z"/>
  <path class="cls-14" d="m23.45,50.99c.04.54.08,1.09.12,1.63-.07-.04-.19-.08-.19-.12.01-.5.05-1,.07-1.5h0Z"/>
  <path class="cls-12" d="m18.68,48.63c-.38-.21-.26-.48-.09-.76.03.25.06.51.09.76Z"/>
  <path class="cls-14" d="m23.7,53.62c.14.28.01.51-.12.75-.26-.3-.07-.52.12-.75Z"/>
  <path class="cls-14" d="m23.57,54.75c.04.13.09.25.13.38-.11.03-.21.06-.32.08-.02-.04-.05-.08-.07-.12.09-.12.17-.23.26-.35h0Z"/>
  <path class="cls-14" d="m19.8,47.26c-.01.12-.03.25-.04.37-.09-.03-.19-.05-.33-.1.06-.12.11-.21.15-.29.07,0,.15,0,.22,0h0Z"/>
  <path class="cls-12" d="m18.44,52.5c-.16-.18-.17-.35.04-.5.04.17.07.34.11.5h-.15Z"/>
  <path class="cls-7" d="m24.21,42.36c.16.04.32.09.49.13-.23.2-.38.11-.49-.13Z"/>
  <path class="cls-12" d="m19.8,47.26c-.07,0-.15,0-.22,0v-.35c.09,0,.19,0,.28.02-.02.12-.04.23-.07.35h0Z"/>
  <path class="cls-12" d="m18.7,42.63c.12-.05.23-.1.35-.15v.25c-.12-.03-.24-.07-.36-.1h.01Z"/>
  <path class="cls-12" d="m19.2,41.24c.04.12.08.24.12.36-.04,0-.08,0-.12,0v-.37Z"/>
  <path class="cls-7" d="m23.99,41.73c.23.07.27.2.11.38-.04,0-.09,0-.13-.02,0-.12.02-.24.02-.36Z"/>
  <path class="cls-7" d="m16.46,47.01c-.13.08-.26.15-.39.23.04-.09.09-.18.13-.26.08,0,.17.02.25.03h.01Z"/>
  <path class="cls-4" d="m24.95,55.11v.13c-.08-.04-.17-.08-.25-.12.08,0,.17,0,.25-.02h0Z"/>
  <path class="cls-14" d="m23.57,52.99c.04.08.08.17.12.25-.15-.03-.3-.06-.12-.25Z"/>
  <path class="cls-4" d="m18.44,52.5h.14c.17.18.04.22-.12.26,0-.09-.02-.17-.03-.26h.01Z"/>
  <path class="cls-12" d="m14.6,47.99c.1.1.29.2.28.28-.08.73.2,1.4.32,2.1.01.08,0,.16,0,.25-.01.1-.01.21-.04.31-.14.48-.18.94-.12,1.45.08.71-.06,1.44-.1,2.14-.43.63-1.05.76-1.74.84-.33-1.1-.66-2.13-.4-3.26.07-.29-.03-.66-.15-.95-.2-.45-.18-.84-.07-1.32.12-.51.07-1.06.06-1.59,0-.2-.14-.42.17-.5h.07c-.01.16-.02.32-.03.49.06.16.12.33.19.54.49-.07.93-.13,1.38-.19.02-.13.04-.23.06-.33.05-.09.09-.18.14-.27h-.02Z"/>
  <path class="cls-9" d="m9.83,50.13c.3.04.61.07.91.12.22.04.44.11.69.18-.04.25-.07.41-.1.57-.19.21-.19.41,0,.63v1.25c-.39.32-.41.74-.33,1.19.03.21.06.43.08.62-.2.17-.35.31-.5.44h-.33c-.16-.14-.29-.26-.42-.38.05-.45.11-.89.16-1.34.02-.4,0-.81-.04-1.22-.01-.14,0-.3-.07-.43-.28-.54-.22-1.08-.05-1.63Z"/>
  <path class="cls-12" d="m9.83,50.13c-.16.55-.23,1.09.05,1.63.06.12.05.28.07.43.03.41.06.82.04,1.22-.05.45-.11.89-.16,1.34-.19-.15-.38-.3-.6-.47-.3-.09-.5.07-.63.36-.06.48.5.94.02,1.43-.2.05-.42.11-.61.16-.49-.12-.58-.46-.55-.86.38,0,.68-.16.85-.49-.02-.72.44-1.39.17-2.14-.05-.14.13-.37.23-.55.07-.12.17-.23.28-.38-.14-.24-.27-.46-.41-.69h.79c.05-.39.09-.7.14-1.07.11.02.22.05.33.07h-.01Z"/>
  <path class="cls-9" d="m8.57,51.12c.13.23.27.45.41.69-.11.15-.21.25-.28.38-.1.18-.28.41-.23.55.28.75-.19,1.41-.17,2.14-.18.34-.47.49-.85.49v-3.73c0-.25-.04-.51.24-.65h.27c.2.05.41.09.61.14h0Z"/>
  <path class="cls-12" d="m5.58,48.49c.09-.2.18-.4.27-.61.37-.18.73-.36,1.11-.55.18.1.33.19.49.28v.25c-.08.04-.16.08-.24.11-.29.08-.58.15-.99.26.21.37.35.62.49.87.27-.02.47-.03.74-.04v-.84c.09.09.19.18.28.28v.32c-.01.18-.03.35-.04.52.15.1.26.18.37.25-.25.21-.5.42-.75.63.04-.18.08-.35.13-.61-.39-.16-.78-.32-1.15-.47-.09-.23-.17-.43-.25-.64-.18.04-.32.07-.46.1h-.04s0-.09.01-.13l.03.02Z"/>
  <path class="cls-3" d="m10.33,47.62h.25c.25.08.5.16.75.24h0c.03.12.07.23.1.35.12.58,0,.78-.62.94-.12,0-.24,0-.36-.02-.08-.05-.16-.11-.24-.16-.05-.2-.1-.4-.16-.6.09-.25.18-.5.27-.76h0Z"/>
  <path class="cls-7" d="m5.6,48.62c.14-.03.27-.06.46-.1.08.21.16.41.25.64.37.15.75.31,1.15.47-.05.25-.09.43-.13.61-.33,0-.66-.02-.99-.03.01-.57-.23-.95-.84-1.04-.02-.11-.04-.21-.05-.31.05-.08.11-.16.16-.24h0Z"/>
  <path class="cls-3" d="m7.74,48.84v-.33c.11-.14.22-.29.34-.43.2.03.41.06.61.09.09.14.19.29.28.43.02.23.04.46.06.73h-.88c-.16-.19-.29-.34-.41-.49Z"/>
  <path class="cls-12" d="m10.58,55.12c.15-.13.3-.27.5-.44-.03-.2-.05-.41-.08-.62-.07-.45-.05-.87.33-1.19v2.05c-.24.17-.41.46-.75.21h0Z"/>
  <path class="cls-7" d="m7.74,48.84c.12.15.25.3.41.49h.88c-.02-.27-.04-.5-.06-.73.34.21.29.57.36.89-.25.05-.51.09-.76.14-.16,0-.33,0-.49-.02-.11-.08-.23-.15-.37-.25.01-.17.03-.34.04-.52h0Z"/>
  <path class="cls-9" d="m10.81,49.16c.62-.17.74-.36.62-.94-.03-.12-.07-.23-.1-.35.6.28.31.79.35,1.25-.31.04-.55.47-.87.04Z"/>
  <path class="cls-12" d="m8.57,49.63c.25-.05.51-.09.76-.14.02.07.08.18.05.21-.22.26-.52.23-.82-.07h0Z"/>
  <path class="cls-9" d="m10.33,47.62c-.09.25-.18.5-.27.76-.26-.33-.16-.65.27-.89v.13Z"/>
  <path class="cls-9" d="m11.33,47.87c-.25-.08-.5-.16-.75-.24.21-.27.42.02.63,0,.04.08.08.16.12.25h0Z"/>
  <path class="cls-12" d="m11.32,51.62c-.18-.21-.18-.42,0-.63.17.21.18.42,0,.63Z"/>
  <path class="cls-7" d="m12.83,47.52c.17-.04.34-.07.51-.11-.16.11-.32.23-.48.34h-.07c.01-.07.02-.15.04-.22h0Z"/>
  <path class="cls-12" d="m7.96,50.98h-.27c.03-.07.05-.13.11-.27.08.13.12.2.16.27Z"/>
  <path class="cls-9" d="m10.21,48.98c.08.05.16.11.24.16-.22.14-.23,0-.24-.16Z"/>
  <path class="cls-5" d="m17.21,39.24c0,.33.02.65.03.98.03.17.06.35.09.52.02.5.04.99.05,1.49-.1.1-.23.19-.3.3-.1.18-.17.38-.25.58-.31-.1-.53-.18-.76-.25-.04-.13-.08-.25-.12-.38,0-.13-.01-.25-.02-.38v-2.99c.2-.33.19-.67,0-1-.03-.13-.07-.25-.1-.38l-.02-1.04c.36-.41.83-.18,1.25-.21-.34.44-.34.58,0,.87.04.21.08.42.12.63-.2.42-.19.83,0,1.25h.03Z"/>
  <path class="cls-3" d="m12.87,47.75c.16-.11.32-.23.48-.34.37-.09.71-.05,1.02.17.07.1.13.2.2.3.01.04.02.07.04.11-.05.09-.09.18-.14.27-.1,0-.23,0-.3.04-.46.3-.89.21-1.32-.06.01-.16.02-.32.03-.49h0Z"/>
  <path class="cls-7" d="m8.08,48.08c-.11.14-.22.29-.34.43-.09-.09-.19-.18-.28-.28-.08-.08-.17-.17-.25-.25.08-.04.16-.08.24-.11.09.02.17.04.26.06.12.05.25.1.37.15Z"/>
  <path class="cls-12" d="m17.46,42.23c.16.13.32.27.49.4-.37.11-.45-.11-.49-.4Z"/>
  <path class="cls-4" d="m7.71,47.93c-.09-.02-.17-.04-.26-.06v-.25c.09.1.17.21.26.31Z"/>
  <path class="cls-7" d="m14.56,47.88c-.07-.1-.13-.2-.2-.3.07.1.13.2.2.3Z"/>
  <path class="cls-12" d="m18.19,42.64h.28c-.04.06-.07.13-.14.24-.07-.11-.11-.18-.14-.24Z"/>
  <path class="cls-11" d="m30.08,45.75h1.37c.41,0,.83,0,1.24,0,.13,0,.26-.07.39-.11h.38c.77.08,1.55.26,2.31.22.78-.04,1.46.06,2.11.57.35-.06.72-.11,1.08-.17h.24c.08.34.39.29.63.37.08,0,.16,0,.24,0,.09.08.17.16.26.23.08,0,.17,0,.25.02-.03.07-.07.14-.12.26-.48-.18-.95-.35-1.47-.54-.47.29-1.16.23-1.62.86.19.12.33.2.48.29,0,.24,0,.49-.02.73.02.28.04.56.06.85-.07.51-.18,1.03.08,1.53.03.42.06.83.08,1.25,0,.08,0,.17,0,.25,0,.25,0,.5-.02.75-.33.34-.33.94,0,1.26v.49c-.27.07-.31.19-.1.38,0,.12,0,.25-.02.37-.21.11-.42.22-.69.36.03-.39.06-.74.08-1.13-.14-.04-.24-.08-.35-.11,0-.08.02-.16.03-.24.09-.03.19-.06.31-.1,0-.32.02-.63,0-.93,0-.13-.16-.24-.24-.35-.04-1.6-.08-3.2-.12-4.81,0-.22.04-.47-.26-.55-.44-.39-.95-.29-1.45-.23-.1-.02-.19-.03-.29-.05-.37-.48-.93-.52-1.46-.6-.1,0-.22.13-.33.21-.56-.06-1.12-.12-1.67-.18-.13,0-.27-.02-.4-.03-.17,0-.34,0-.51,0-.05-.07-.1-.15-.16-.22-.08.07-.15.14-.23.22h-.42c-.15-.03-.3-.06-.44-.09-.59-.02-1.19-.04-1.78-.06-.07-.28-.14-.55-.21-.83.12-.08.25-.17.37-.25h1.51c.08.04.17.08.25.13h.25c.12.16.25.16.38,0v-.02Z"/>
  <path class="cls-7" d="m29.7,48.99c-.03.38-.07.75-.1,1.13-.2.15-.17.32-.04.5-.03.17-.06.34-.09.51-.04.46-.08.91-.12,1.37-.01.62-.03,1.25-.04,1.87-.04.04-.08.08-.12.12-.22.12-.45.25-.74.41-.12-.14-.24-.28-.37-.42-.08-.08-.16-.16-.24-.23,0-.21,0-.41-.01-.62.03-.79.06-1.59.07-2.38,0-.04-.13-.08-.19-.13v-.24c.13-.28.28-.56-.12-.76v-.73c.64-.37,1.34-.46,2.06-.49.01.04.03.08.05.11v-.02Z"/>
  <path class="cls-9" d="m32.95,55.74c-.41-.09-.83-.17-1.24-.26-.08-.29-.17-.58-.25-.86.16.03.31.06.48.09.44-.62.25-1.26.15-1.9.37-1.1.21-2.24.24-3.37-.18-.16-.33-.3-.47-.44h-.65s-.03-.07-.03-.11v-.78s.04,0,.06,0c.64.08,1.3.08,1.8.6.1.11.34.1.51.14.06.09.12.18.18.26h-.02c-.18.1-.35.21-.52.32.1.52.19.97.28,1.42v.25c-.81.37-1.15,1.09-.88,1.92.13.39.17.75-.02,1.14-.09.19-.08.43-.12.64.06,0,.11-.02.17-.03.11.31.22.63.34.94v.02Z"/>
  <path class="cls-7" d="m31.2,48.99h.65c.14.13.29.27.47.44-.03,1.13.13,2.28-.24,3.37.1.65.29,1.28-.15,1.9-.17-.03-.32-.06-.48-.09-.05-.08-.09-.16-.14-.25,0-.08-.01-.16-.02-.24,0-1.06.01-2.12,0-3.17,0-.11-.07-.23-.11-.34v-1.63h.02Z"/>
  <path class="cls-3" d="m27.54,46.7c.59.02,1.19.04,1.78.06.13.08.25.15.38.23.06.13.12.26.18.39-.03.23-.06.47-.08.7-.07.05-.15.1-.22.15-.09-.03-.17-.06-.26-.09-.58.03-1.16.06-1.73.09-.11,0-.21,0-.32-.02,0-.04-.02-.07-.05-.09.04-.33.09-.66.13-.99.19-.05.4-.08.3-.37-.03-.02-.07-.04-.1-.06h-.01Z"/>
  <path class="cls-3" d="m33.54,48.86c-.17-.04-.4-.03-.51-.14-.5-.52-1.16-.52-1.8-.6,0-.25.01-.5.02-.74.08-.15.16-.31.25-.46.56.06,1.12.12,1.67.18.15.42.31.84.46,1.27-.03.17-.06.34-.09.51v-.02Z"/>
  <path class="cls-14" d="m29.47,51.13c.03-.17.06-.34.09-.51h.14c.04.22.11.43.12.65.01,1.1,0,2.2,0,3.28.14.28.27.53.44.87-.67.12-1.25.22-1.82.32-.84-.23-.95-.36-.99-1.18-.01-.18-.09-.37-.09-.55,0-.21.06-.43.1-.64h.14v.24c.04.21.08.43.11.64v.24c-.06.43.08.76.53,1.02.4-.08.85-.16,1.38-.26-.13-.36-.22-.62-.32-.88.01-.62.03-1.25.04-1.87.06-.04.18-.09.18-.13,0-.41-.04-.82-.06-1.24h0Z"/>
  <path class="cls-12" d="m27.6,53.36h-.14v-.25c-.04-.96-.09-1.92-.13-2.88v-.49c-.04-.38-.07-.75-.11-1.13.02-.14.03-.27.05-.41.11,0,.21,0,.32.02v1.87c.04.25.08.51.12.76v.24c0,.16.02.33,0,.49-.04.59-.08,1.17-.12,1.75v.03Z"/>
  <path class="cls-5" d="m26.08,52.5c-.04-.13-.09-.25-.13-.38,0-.29,0-.59-.01-.88,0-.21-.02-.42-.03-.63.01-.25.03-.49.04-.74h.25c.04.09.12.18.12.27.01.66.02,1.33,0,1.99,0,.12-.15.24-.24.36h0Z"/>
  <path class="cls-4" d="m31.2,50.62c.04.11.11.23.11.34v3.17c-.07-.11-.21-.22-.21-.33-.02-.99-.01-1.98,0-2.97,0-.07.07-.14.11-.21h-.01Z"/>
  <path class="cls-14" d="m27.32,50.24c.04.96.09,1.92.13,2.88-.08-.12-.23-.23-.24-.36-.06-.72-.1-1.44-.12-2.16,0-.12.15-.24.23-.36Z"/>
  <path class="cls-5" d="m27.26,48.21c-.02.14-.03.27-.05.41h-.14c-.4-.13-.57.28-.87.38v-.63c0-.09.02-.17.03-.26h.98s.04.05.05.09h0Z"/>
  <path class="cls-4" d="m26.2,48.37v1.5h-.25c-.04-.12-.08-.25-.13-.37,0-.08,0-.17.01-.25.12-.29.25-.58.37-.88Z"/>
  <path class="cls-4" d="m31.32,54.37c.05.08.09.16.14.25.08.29.17.58.25.86h-.62c.07-.37.15-.74.22-1.11h.01Z"/>
  <path class="cls-14" d="m27.08,48.62h.14c.04.38.07.75.11,1.13-.08-.12-.21-.22-.23-.35-.04-.25-.01-.52-.01-.78h-.01Z"/>
  <path class="cls-4" d="m31.17,48.1v.78c-.29-.32-.29-.46,0-.78Z"/>
  <path class="cls-4" d="m29.88,47.38c-.06-.13-.12-.26-.18-.39.02-.05.04-.09.06-.14h.32c-.07.17-.14.35-.2.52h0Z"/>
  <path class="cls-4" d="m31.49,46.91c-.08.15-.16.31-.25.46-.05-.17-.11-.33-.16-.5.13,0,.27.02.4.03h.01Z"/>
  <path class="cls-4" d="m29.7,50.62h-.14c-.14-.18-.17-.35.04-.5.03.17.07.33.1.5Z"/>
  <path class="cls-4" d="m29.57,48.24c.07-.05.15-.1.22-.15,0,.18.02.36.03.54h-.24c0-.13,0-.25-.01-.38h0Z"/>
  <path class="cls-14" d="m29.7,48.62h.12c.18.2.14.33-.13.37-.02-.04-.04-.07-.05-.11.02-.09.03-.18.05-.26h0Z"/>
  <path class="cls-10" d="m30.19,46.86c.08-.07.15-.14.23-.22.05.07.1.15.16.22h-.39Z"/>
  <path class="cls-9" d="m38.06,53.12c0-.25,0-.5.02-.75,0-.08,0-.17,0-.25-.03-.42-.06-.83-.09-1.25.12-.52.22-1.03-.08-1.53-.02-.28-.04-.56-.06-.85.07-.17.13-.33.2-.51.13-.07.27-.15.41-.23.25.05.49.09.74.14.05.12.1.24.15.36v.61c-.15.67.05,1.28.32,1.87,0,.29,0,.57,0,.86-.06.05-.17.11-.17.16v2.48s.08.09.12.13c0,.29,0,.58,0,.87-.18.12-.18.24-.02.38-.05.19-.1.39-.15.58-.32,0-.64,0-.95,0-.05-.51-.1-1.01-.16-1.52-.02-.21.09-.47-.2-.6l-.06-.98v.02Z"/>
  <path class="cls-9" d="m41.06,56.53c-.17-.13-.34-.27-.51-.4.09-.59.19-1.17.26-1.76,0-.08-.13-.17-.2-.26-.02-.12-.03-.25-.05-.37v-.49s.04-.08.06-.12c.29-.31.29-.45,0-.77-.03-.08-.06-.17-.09-.25.02-.33.03-.66.05-.99.2-.05.39-.09.56-.13.2.1.37.18.53.26.02.67.04,1.33.06,2v2.63c-.02.23-.04.45-.06.68-.03,0-.05,0-.08-.02-.17-.25-.34-.22-.52,0h0Z"/>
  <path class="cls-10" d="m40.56,53.25v.49c-.08.09-.16.17-.24.26-.2.04-.4.09-.59.13,0-.25-.06-.51,0-.74.16-.61.1-1.19-.06-1.78,0-.29,0-.57,0-.86.05-.11.15-.23.13-.32-.13-.52-.3-1.04-.45-1.56v-.61s.09,0,.14,0c.12.14.25.27.41.45.13,0,.3-.04.47-.06v.98c0,.17,0,.34-.02.5-.14.4-.09.65.2,1.01h.05c-.02.31-.03.64-.05.97-.28.26-.28.31.04.52v.24c-.07.07-.15.14-.22.22.07.06.14.11.21.17h-.03Z"/>
  <path class="cls-1" d="m41.73,53.25c-.02-.67-.04-1.33-.06-2-.08-.67-.16-1.34-.24-2.01,0-.04.02-.07.03-.11l.24-.38c.7.15,1.1.72,1.62,1.13.03.32-.1.55-.4.7-.32.17-.63.36-.97.56v1.61c0,.2.07.43-.22.51h0Z"/>
  <path class="cls-4" d="m39.66,51.6c.16.59.22,1.17.06,1.78-.06.23,0,.5,0,.74-.04.08-.07.16-.11.25-.04-.04-.12-.09-.12-.13,0-.83,0-1.65,0-2.48,0-.05.11-.11.17-.16Z"/>
  <path class="cls-12" d="m40.61,54.11c.07.09.21.18.2.26-.07.59-.17,1.17-.26,1.76-.04-.34-.07-.67-.11-1.01.06-.34.11-.67.17-1.01Z"/>
  <path class="cls-5" d="m40.61,54.11c-.06.34-.11.67-.17,1.01-.04-.37-.08-.75-.13-1.12.08-.09.16-.17.24-.26.02.12.03.25.05.37h0Z"/>
  <path class="cls-1" d="m41.58,56.54s.05,0,.08.02v.47s-.07.04-.11.06c-.08-.14-.16-.28-.24-.43l.27-.12Z"/>
  <path class="cls-1" d="m41.72,55.88v-.52c.3.23.3.29,0,.52Z"/>
  <path class="cls-12" d="m41.58,56.54c-.09.04-.18.08-.27.12-.08-.04-.17-.09-.25-.13.18-.21.35-.24.52,0h0Z"/>
  <path class="cls-4" d="m39.58,55.62c-.16-.14-.16-.26.02-.38,0,.13,0,.25-.02.38Z"/>
  <path class="cls-13" d="m27.34,10.38c-.1-.04-.2-.08-.3-.12.1.04.2.08.3.12Z"/>
  <path class="cls-13" d="m26.86,10.22s.03.03.04.05c-.01,0-.02.02-.03.03,0-.03,0-.05-.04-.05l.02-.02h.01Z"/>
  <path class="cls-9" d="m36.69,47.76c.31.08.26.33.26.55.04,1.6.08,3.2.12,4.81-.02.46-.04.92-.06,1.39,0,.08-.02.16-.03.24-.06.33-.13.65-.19.98-.08.08-.16.17-.24.25-.51.26-.94.07-1.35-.23-.11-.43-.21-.86-.32-1.29,0-.04-.1-.06-.15-.1v-1.08c.43-.29.24-.72.19-1.07-.15-1.26-.21-2.5.19-3.72.44.12.89.24,1.34.37.37-.29.22-.7.24-1.07v-.03Z"/>
  <path class="cls-1" d="m34.73,53.26v1.08c.03.3.05.6.08.9-.33.04-.66.08-.98.12-.04-.92-.12-1.84-.12-2.75,0-.84.08-1.69.11-2.53,0-.2-.06-.4-.1-.59,0-.12-.02-.25-.02-.37h.02c.39-.12.19-.41.22-.68-.12-.03-.21-.06-.31-.08-.15-.42-.31-.84-.46-1.27.11-.07.23-.22.33-.21.53.08,1.09.12,1.46.6-.28.7-.42,1.42-.38,2.18.07,1.2.1,2.4.15,3.6Z"/>
  <path class="cls-14" d="m33.72,49.49c.04.2.11.4.1.59-.03.85-.11,1.69-.11,2.53,0,.92.08,1.84.12,2.75-.03.31-.23.4-.5.37v-.62c-.13-.18-.25-.34-.36-.49.12-.59.27-1.15.35-1.72.08-.59.09-1.2.13-1.79v-.25c.04-.23.08-.46.13-.69.04-.23.09-.46.14-.69h0Z"/>
  <path class="cls-12" d="m33.45,51.12c-.04.6-.05,1.2-.13,1.79-.08.57-.23,1.13-.35,1.72.11.15.23.32.36.49v.62h-.37c-.11-.31-.22-.63-.34-.94-.06,0-.11.02-.17.03.04-.22.02-.46.12-.64.19-.39.14-.75.02-1.14-.27-.83.07-1.55.87-1.92h-.01Z"/>
  <path class="cls-14" d="m38.12,54.1c.29.13.18.38.2.6.05.51.11,1.01.16,1.52-.42.02-.51-.26-.53-.6,0-.12,0-.25.02-.37.03-.13.07-.25.1-.38v-.49c.02-.09.04-.18.05-.28Z"/>
  <path class="cls-4" d="m34.81,55.25c-.03-.3-.05-.6-.08-.9.05.03.14.05.15.1.11.43.22.86.32,1.29-.25-.07-.4-.21-.4-.49h.01Z"/>
  <path class="cls-14" d="m36.56,55.97c.08-.08.16-.17.24-.25.04.19-.04.28-.24.25Z"/>
  <path class="cls-5" d="m23.44,10.99c.05-.16.1-.31.16-.47.03,0,.07-.02.11-.02l.75-.12c.33.19.67.19,1,0,.13-.06.26-.12.39-.18.12.02.24.04.36.06v.24c-.04.05-.08.1-.13.15-.62.14-1.24.27-1.88.42-.08.17-.16.33-.29.58.49.26.95.51,1.41.75,0,.5-.01,1.01-.02,1.51-.11-.04-.22-.07-.36-.12.27-.93-.29-1.38-.97-1.77-.23-.13-.44-.28-.65-.41.05-.25.08-.43.12-.6v-.02Z"/>
  <path class="cls-12" d="m24.45,10.37l-.75.12c.08-.21.17-.41.25-.62h0c.18,0,.36,0,.38-.25.56.02,1.1.11,1.51.56-.13.06-.26.12-.39.18-.24-.09-.48-.17-.74-.27-.1.11-.18.19-.26.27h0Z"/>
  <path class="cls-7" d="m23.95,9.87c-.08.21-.17.41-.25.62-.04,0-.07.01-.11.02-.43.05-.59-.36-.9-.52.05-.26.09-.52.14-.78.21-.03.42-.05.62-.08v.6c.17.05.33.09.49.13h.01Z"/>
  <path class="cls-12" d="m26.2,10.48v-.24c.05-.05.11-.1.16-.15.08.03.16.07.23.1-.02.09-.04.17-.06.26-.11,0-.22.02-.33.03Z"/>
  <path class="cls-7" d="m24.33,9.62c-.02.25-.19.25-.38.25.13-.08.25-.17.38-.25Z"/>
  <path class="cls-5" d="m26.54,10.45c.02-.09.04-.17.06-.26.08.02.15.04.23.06.03,0,.05.02.04.05-.11.05-.22.1-.33.15Z"/>
  <path class="cls-2" d="m38.05,29.88c.31-.16.36-.4.16-.67-.27-.37-.29-.74-.19-1.18.09-.4.1-.84.02-1.24-.06-.3-.32-.55-.57-.79-.02-.18-.03-.37-.05-.58-.1-.09-.19-.22-.31-.27-.85-.32-1.29-1.03-1.66-1.79.29.19.67.32.86.58.38.54.91.83,1.49,1.1.42.94.85,1.87,1.29,2.86.12.1.3.24.47.38.04.58.07,1.13.1,1.68h-.06c.1.29.2.58.32.92.81.67.63,1.65.67,2.67.25.28.54.62.84.96.04-.02.08-.04.12-.06.07.44.14.89.22,1.36.47.42.96.85,1.57,1.39.09.27.24.7.39,1.15-.08.21-.16.42-.26.66.03.13.07.29.11.49-.19.13-.37.25-.52.35-.73-.61-.7-1.46-.86-2.4-.26.22-.38.32-.51.43-.17-.39-.43-.68-.81-.89-.39-.21-.69-.52-.81-.97-.04-.15-.16-.29-.24-.43l-.12-.25c-.28-.46-.56-.93-.84-1.39-.03-.16-.05-.32-.08-.47.14-.07.27-.14.41-.21-.02-.04-.04-.09-.06-.13-.13.03-.26.05-.39.08-.02-.46-.04-.91-.06-1.37,0-.09-.02-.18-.03-.26,0-.04-.03-.08-.04-.12l-.53-1.37c0-.08,0-.16-.02-.24l-.02.02Z"/>
  <path class="cls-15" d="m39.82,35.62c.08.14.2.27.24.43.13.45.43.76.81.97.39.21.64.5.81.89v1.58c-.53-.17-1.06-.33-1.59-.5-.17-.12-.35-.24-.52-.36-.13-.12-.26-.25-.39-.37-.12-.09-.23-.18-.35-.27-.13,0-.25,0-.38,0-.05-.08-.09-.21-.16-.22-.31-.07-.63-.11-.95-.16l-.28-.22c-.1-.11-.2-.21-.31-.32-.25-.25-.65-.41-.47-.97.59-.08,1.21-.17,1.81-.26.1-.24.17-.41.22-.51-.08-.54-.6-.89-.41-1.42.35.02.66.04.96.06.28.46.56.93.84,1.39-.19.19-.04.23.12.25Z"/>
  <path class="cls-12" d="m41.63,39.99s.02-.07.03-.1c.02.04,0,.08-.03.1Z"/>
  <path class="cls-1" d="m40.07,46.63c-.08,0-.16,0-.24,0-.04-.41-.34-.38-.63-.37h-.24c-.11-.12-.21-.27-.35-.36-.17-.12-.37-.21-.51-.29v-.76c.24-.48.42-.84.61-1.21.07.27.13.55.23.94.12.04.32.11.52.18.58.36,1.16.72,1.81,1.13-.11.37-.21.68-.31,1-.12,0-.25,0-.37.02-.08,0-.17,0-.25-.02-.09-.08-.17-.16-.26-.23v-.02Z"/>
  <path class="cls-12" d="m38.45,38c.13,0,.25,0,.38,0,0,.24.17.27.35.27.13.12.26.25.39.37,0,.37-.03.75,0,1.12.02.29.09.58.14.87,0,.08,0,.16,0,.24-.07.03-.13.06-.27.13.13.07.2.11.26.14,0,.25,0,.49.02.74-.07.03-.14.06-.25.1.07.12.12.21.17.3-.02.37-.03.73-.05,1.1-.19.04-.38.08-.59.13-.11-.28-.21-.51-.3-.75-.02-.45-.05-.91-.07-1.36.32-.15.36-.47.33-.73-.08-.68-.24-1.36-.36-2.03-.04-.12-.08-.25-.12-.37v-.25h-.02Z"/>
  <path class="cls-14" d="m38.67,42.75c.09.23.19.46.3.75.21-.05.4-.09.59-.13-.04.46-.08.92-.12,1.37-.2-.07-.4-.14-.52-.18-.1-.39-.16-.67-.23-.94,0-.29-.02-.58-.03-.87h0Z"/>
  <path class="cls-11" d="m42.7,47.63c-.08.09-.16.19-.25.29-.46-.34-.86-.63-1.26-.93.26-.3.48-.29.83.03.22.2.45.41.67.61h0Z"/>
  <path class="cls-14" d="m39.7,40.62c-.05-.29-.12-.58-.14-.87-.02-.37,0-.75,0-1.12.17.12.35.24.52.36-.21.16-.27.37-.27.63,0,.33-.08.67-.12,1h0Z"/>
  <path class="cls-14" d="m39.62,42.26c-.05-.09-.1-.17-.17-.3.11-.04.18-.07.25-.1.21.18.02.28-.08.39h0Z"/>
  <path class="cls-11" d="m43.33,47.87c-.18,0-.36,0-.38-.24.13.08.25.16.38.24Z"/>
  <path class="cls-14" d="m39.68,41.13c-.06-.03-.13-.07-.26-.14.14-.06.21-.09.27-.13v.27h-.01Z"/>
  <path class="cls-11" d="m38.86,33.98c-.31-.02-.61-.04-.96-.06-.18.54.34.88.41,1.42-.04.1-.11.27-.22.51-.6.09-1.22.17-1.81.26-.18.56.22.72.47.97.11.1.21.21.31.32-.26-.03-.53-.06-.84-.09-.44.48-.42,1.09-.44,1.69.07,1.25.13,2.51.2,3.76-.13.12-.26.24-.39.36-.18-.14-.33-.26-.48-.37-.02-.04-.04-.08-.06-.12.05-1.25.1-2.5.15-3.75v-.37c-.03-.13-.06-.26-.09-.39,0-.25,0-.5,0-.75.15-.21,0-.23-.15-.24-.51-.4-1.03-.2-1.62-.05v1.05c-.04.54-.09,1.08-.13,1.62-.2-.04-.41-.08-.61-.12-.03-.17-.07-.34-.1-.5,0-.33-.02-.66-.03-1,.03-.29.06-.57.09-.86.09-.05.18-.1.38-.2-.23-.04-.33-.05-.43-.07-.83-.51-1.92-.53-2.41,0,.04.4.08.83.12,1.27l-.03-.02-.03.02c-.22.17-.29.46-.22.87-.13.04-.26.09-.41.14-.12-.2-.21-.35-.3-.51-.02-.21-.03-.43-.05-.64.02-.28.04-.57.07-.85.13-.06.26-.12.47-.22-.23-.08-.36-.12-.49-.17-.05,0-.09,0-.14,0-.15-.11-.28-.24-.44-.33-.52-.32-1.16-.23-1.53.21-.2.02-.4.05-.54.06-.24-.07-.43-.13-.62-.19-.13-.12-.26-.23-.4-.35-.63.05-1.32-.32-1.87.21v.62c-.29.12-.3.25-.02.39.03.17.06.33.08.5-.02-.03-.04-.03-.07-.02-.13.04-.27.09-.4.13-.14-.04-.27-.09-.4-.13-.03-.25-.06-.5-.08-.75-.02-.16-.05-.33-.07-.49-.04-.15-.08-.3-.12-.48-.21.02-.37.03-.52.05-.61-.03-1.22-.14-1.81.1-.22-.05-.43-.1-.67-.15-.13.08-.27.17-.4.25-.07,0-.15-.03-.22-.04-.03-.06-.06-.13-.12-.25-.07.12-.11.17-.15.23-.45.03-.9.06-1.34.08-.09,0-.18-.03-.27-.04-.42.04-.89-.19-1.25.21-.46,0-.91-.02-1.37-.03-.04-.05-.08-.11-.15-.2-.06.11-.09.17-.13.24-.08.06-.15.11-.23.17-.13.04-.25.08-.38.12-.08.03-.17.06-.25.1-.38,0-.76-.02-1.14-.04-.15-.1-.28-.27-.48-.08-.08,0-.16,0-.25.02-.04,0-.08,0-.13,0-.54-.17-.82-.05-1.02.44-.03.02-.07.02-.1,0h-.66c-.08-.36-.16-.73-.24-1.1.09-.11.18-.23.27-.34.16-.02.3-.04.15-.25.04-.13.08-.25.12-.38.04-.15.08-.31.12-.46.05-.13.1-.26.15-.4.05-.05.1-.1.15-.15h.04v-.04c.1-.07.19-.13.28-.2h.24c.25.33.5.65.73.95,1.53.24,3-.1,4.49-.21.12,0,.24-.08.35-.14.82-.46,1.68-.71,2.62-.6.12,0,.26.03.37,0,.21-.09.41-.22.6-.32-.18-.54-.61-.55-.95-.63-.36-.09-.73-.12-1-.52.64-.58,1.58-.55,2.11-1.12.28.03.48.09.68.08.7-.06,1.39-.2,2.09-.2s1.15-.36,1.65-.71c.12-.03.24-.06.36-.1.08,0,.16.01.25.02.09,0,.18.01.26.02.17-.02.33-.04.53-.06-.05-.45-.08-.79-.12-1.14.39-.32.77-.63,1.32-.55.12.57-.1,1.19.17,1.73.45.08.75-.07.82-.44.08-.41.2-.85-.03-1.27.18-.21.35-.42.56-.67.23.11.45.21.67.31.24.11.47.23.7.35,0,.09.02.18.03.27-.11.43-.23.86-.34,1.3.24.15.39.24.54.33.05.03.09.06.14.09.04,0,.09.01.13.02.23.18.34-.04.41-.17.1-.21.17-.46-.11-.63l-.03-.72c.07-.04.14-.08.28-.17-.17-.04-.24-.06-.31-.08l-.04.02c.01-.09.02-.17.03-.26-.11-.27-.21-.53-.35-.88.13-.49-.34-1.07,0-1.71.17-.01.35-.02.61-.04.13.43.28.83.38,1.25.13.52.23.62.82.54.06-.2.15-.43.18-.67.06-.41.18-.76.53-1.01.32-.23.41-.56.31-.94-.04-.14-.05-.28-.08-.43.96.87,1.91,1.74,2.87,2.61.32.03.63.07.79-.3.19.36.41.71.58,1.09.22.49.41.99.61,1.49,0,.08,0,.16.02.24-.63-.05-1.03.29-1.37.76.05.26.09.5.13.74-.09.08-.17.16-.26.25-.1.04-.2.09-.42.19.36.08.5.42.81.19.08.02.16.03.24.05.22.3.45.58.98.56.03-.27.05-.53.09-.87.11-.03.26-.07.4-.11.02.46.04.91.06,1.37.02.09.03.18.05.26.03.16.05.32.08.47v-.03Zm-3.87-3.95c-.07.34-.12.69-.21,1.03-.05.2-.05.36.15.47.35.34.59.09.9-.14-.1-.08-.16-.12-.22-.16,0-.37-.02-.74-.03-1.11.16-.31-.12-.34-.33-.54-.11.18-.19.32-.27.45h0Zm-2.42,1.36c.59-.55.59-1.14.47-1.83-.19-.03-.36-.05-.5-.07-.31.56-.3,1.21.04,1.9h-.01Z"/>
  <path class="cls-15" d="m36.87,27.3c-.16.37-.48.32-.79.3-.96-.87-1.91-1.74-2.87-2.61-.71-.56-1.41-1.14-2.14-1.68-.41-.3-.9-.51-1.32-.81-.54-.37-1.04-.79-1.56-1.18l.07-.1c-.59-.27-1.19-.55-1.69-.78-.14-.54-.25-.97-.36-1.38-.08-.27-.17-.54-.25-.81.48.01.85-.18,1.14-.55.17.2.36.39.5.62.27.41.6.82.74,1.28.32,1.09,1.03,1.72,2.08,2.03.14.04.28.09.4.16,2.48,1.34,4.52,3.16,6.05,5.53v-.02Z"/>
  <path class="cls-10" d="m25.95,18.24c.08.27.17.54.25.81.11.42.22.84.36,1.38.5.23,1.1.51,1.69.78l-.07.1c.52.4,1.03.81,1.56,1.18.42.29.9.5,1.32.81.73.54,1.43,1.12,2.14,1.68.02.14.04.29.08.43.1.38.02.7-.31.94-.35.25-.47.6-.53,1.01-.03.24-.12.46-.18.67-.59.08-.69-.01-.82-.54-.1-.42-.25-.82-.38-1.25-.27.02-.44.03-.61.04-.33.64.13,1.22,0,1.71.14.35.24.62.35.88-.17-.07-.33-.15-.5-.22l-.24.21c-.23-.12-.47-.23-.7-.35-.22-.1-.43-.2-.67-.31-.21.25-.39.46-.56.67-.14-.09-.29-.18-.43-.28-.04-.06-.07-.12-.14-.22-.07.11-.1.17-.14.23-.09.09-.17.18-.26.26-.55-.08-.93.23-1.32.55.04.35.07.69.12,1.14-.2.02-.36.04-.53.06.03-.09.07-.18.11-.3-.11-.03-.18-.05-.25-.07-.03-.09-.07-.17-.1-.26-.02-.37-.05-.74-.07-1.11.01-.09.02-.17.03-.26.46-.23.19-.73.44-1.05-.35-.56-.35-1.14-.19-1.75.06-.21.02-.46-.04-.68-.16-.59.06-1.09.32-1.64.2.02.37.04.53.06.04.14.08.21.09.29.04,1.05.45,1.99.91,2.91.17.33.53.45.81.17.01-.13.02-.3.04-.48-.63-.63-.73-1.43-.92-2.22-.21-.88.33-1.56.39-2.42-.06-.11-.16-.26-.24-.4-.92-.21-1.9-.08-2.54-.99-.56-.79-1.1-1.55-1.08-2.57.51-.3,1.05-.44,1.63-.36.21.25.42.5.62.75h.03Z"/>
  <path class="cls-9" d="m41.45,49.12s0,.08-.03.11c-.18.2-.35.4-.54.62-.17-.08-.35-.16-.54-.25v-.98c.32-.28.65-.16.98-.04.04.18.08.35.12.53h.01Z"/>
  <path class="cls-14" d="m38.45,47.75c-.14.08-.28.16-.41.23-.07.18-.14.34-.2.51,0-.24,0-.49.02-.73h.6,0Z"/>
  <path class="cls-12" d="m41.45,49.12c-.04-.18-.08-.35-.12-.53.12.05.24.1.37.15-.08.13-.16.25-.24.38h0Z"/>
  <path class="cls-4" d="m39.48,48.24s-.09,0-.14,0c-.05-.12-.1-.24-.15-.36.27-.03.25.19.29.35Z"/>
  <path class="cls-1" d="m25.32,12.37c-.46-.24-.92-.49-1.41-.75.13-.26.2-.42.29-.58.64-.14,1.26-.28,1.88-.42-.02.32-.28.37-.5.49s-.43.28-.6.4c.14.35.24.61.34.87h0Z"/>
  <path class="cls-2" d="m22.38,16.87c-.02.33-.05.67-.07,1-.02.02-.02.03-.01.06-.12.14-.25.29-.37.43-.03.05-.07.09-.1.14-.03.04-.06.08-.09.12-.03.03-.04.06-.05.1-.04.05-.07.1-.11.15-.1.19-.2.38-.3.57-.27.44-.54.89-.82,1.33-.13.12-.26.23-.4.35h0c-.17.09-.33.17-.5.26-1.57.5-2.79,1.55-4.02,2.56-.55.53-1.12,1.04-1.64,1.6-.34.36-.6.78-.9,1.18-.48.88-.96,1.77-1.44,2.65-.22.03-.45.05-.73.08-.14-.1-.32-.23-.48-.35-.09-.83-.06-1.58.58-2.17.09-.08.16-.2.19-.32.26-.97,1.02-1.53,1.73-2.14.17-.15.31-.33.47-.49.2-.21.4-.41.61-.61.12-.11.26-.2.38-.32.46-.49.91-1,1.38-1.49.17-.17.38-.35.61-.42.83-.27,1.6-.66,2.31-1.15.22-.15.4-.38.58-.6.22-.27.38-.6.64-.82.24-.2.41-.39.49-.69.08-.33.29-.54.62-.63.48-.13.95-.26,1.43-.39h0Z"/>
  <path class="cls-4" d="m11.2,30.77c.11-.35.23-.71.34-1.06.12.14.23.28.34.4.49.06.93.11,1.32.16.34-.28.61-.5.8-.65.07-.47.04-.87.19-1.19.29-.62.3-1.27.38-1.92.16-.13.33-.26.49-.38.17.08.33.16.46.22-.1,1.12-.68,2.03-.57,3.1.09.84,0,1.7-.01,2.55-.05.12-.09.24-.14.37-.41.05-.82.1-1.24.15l-.25.11h-.25c-.21,0-.45-.08-.52.24l-1.48.27c-.04-.08-.08-.17-.12-.25v-.27c0-.2.02-.41.02-.61.02-.13.04-.26.06-.39.23-.12.2-.29.07-.47l-.02-.26s.06-.02.08-.04c.01-.02.02-.05.03-.08h.02Zm2.71,1.2c.79-.34.97-1.55.34-2.07-.79.62-.93,1.45-.34,2.07Z"/>
  <path class="cls-2" d="m11.09,30.88c0,.09.01.17.02.26-.05.12-.09.24-.14.35-.34.16-.35.23-.08.54.02.19.04.38.06.57v.27c-.12.41-.25.82-.37,1.23-.09.07-.18.13-.27.2h-.05v.05c-.05.05-.1.1-.15.15-.17,0-.33.02-.5.03-.02.05-.03.1-.05.15.11.07.21.14.32.21-.02.16-.03.31-.05.47-.04.13-.08.25-.12.38-.05.08-.1.16-.15.25-.09.11-.18.23-.27.34-.44.39-.87.78-1.31,1.17-.26.04-.52.07-.72.1-.16.26-.28.44-.41.65-.56-.39-.37-.92-.4-1.37.83-1.35,1.97-2.41,2.87-2.6,0-.38-.02-.79,0-1.2.02-.39.1-.78.14-1.15.17-.2.31-.37.47-.55-.04-.3-.22-.62.16-.9.3.12.65.25.99.38v.02Z"/>
  <path class="cls-5" d="m14.58,26.5c-.08.65-.1,1.3-.38,1.92-.15.32-.12.72-.19,1.19-.19.16-.46.38-.8.65-.39-.05-.83-.1-1.32-.16-.1-.12-.22-.26-.34-.4.01-.11.02-.22.03-.33.48-.88.96-1.77,1.44-2.65.28.16.55.4.89.17.23-.13.45-.26.68-.39h-.01Z"/>
  <path class="cls-2" d="m7.93,37.62s-.06.1-.09.15c.03-.05.06-.1.09-.15Z"/>
  <path class="cls-12" d="m11.2,30.77s-.02.05-.03.08v-.05s.03-.03.03-.03Z"/>
  <path class="cls-12" d="m15.85,37.74c.03.13.07.25.1.38-.04.33-.08.67-.12,1-.39,0-.8-.06-1.14.4.1.78.2,1.63.31,2.57.08.07.21.19.34.31.23-.1.41-.19.6-.27,0,.13.01.25.02.38-.2.33-.34.74-.86.61-.39-.09-.49-.3-.52-.99-.03-.62-.11-1.23-.11-1.85,0-.44.09-.88.26-1.33-.05-.18-.1-.35-.15-.53.56.04,1.06-.05,1.28-.66v-.02Z"/>
  <path class="cls-3" d="m15.85,37.74c-.22.61-.72.7-1.28.66-.45-.28-.3-.76-.39-1.16.06-.16.12-.31.18-.47.04-.03.07-.07.11-.1.46,0,.91.02,1.37.03,0,.35.01.69.02,1.04h-.01Z"/>
  <path class="cls-3" d="m11.16,38.96c-.07,0-.14.02-.21.03-.12,0-.25,0-.37-.02-.29-.16-.42,0-.52.25-.22.05-.44.1-.71.17-.12-.12-.26-.25-.47-.44.17-.13.29-.21.4-.3.42-.34.84-.68,1.26-1.01h.15c.13.09.26.17.39.26.08.08.16.16.24.24.02.09.03.17.04.26-.07.19-.13.38-.2.57h0Z"/>
  <path class="cls-9" d="m9.47,40.75c.73.04,1.2.64,1.07,1.32-.04.2-.03.41-.09.6-.06.2-.17.38-.27.58-.29-.16-.5-.28-.71-.39,0-.7,0-1.41,0-2.11Z"/>
  <path class="cls-3" d="m12.18,37.07c.38,0,.76.02,1.14.04.05.17.09.34.14.51,0,.33-.01.66-.02.99-.37-.04-.75-.07-1.12-.11-.08-.05-.16-.09-.24-.14-.05-.29-.1-.58-.15-.88v-.13c.08-.09.16-.19.23-.28h.02Z"/>
  <path class="cls-7" d="m10.53,37.63c-.42.34-.84.68-1.26,1.01-.11.09-.23.17-.4.3.21.19.34.32.47.44.28-.07.5-.12.71-.17l.03.03c-.04.08-.08.17-.12.25,0,.08-.02.15-.02.23-.16.08-.33.16-.56.27-.45-.2-.93-.41-1.07-1.01.38-.34.75-.69,1.14-1.01.23-.2.5-.36.75-.54.03,0,.07,0,.1,0,.09.03.18.05.26.08-.01.04-.03.09-.04.13h0Z"/>
  <path class="cls-9" d="m11.94,37.49c.05.29.1.58.15.88-.12,0-.25,0-.37.02h-.13c-.09-.08-.18-.16-.27-.24-.08-.08-.16-.16-.24-.24.08-.05.16-.1.25-.15.21-.08.41-.17.62-.25v-.02Z"/>
  <path class="cls-9" d="m12.32,38.5c.37.04.75.07,1.12.11-.39.38-.75.34-1.12-.11Z"/>
  <path class="cls-12" d="m11.58,38.37h.13c-.02.16-.04.32-.07.55-.18,0-.33.02-.49.04.07-.19.13-.38.2-.57.07,0,.15,0,.22-.02h0Z"/>
  <path class="cls-9" d="m13.47,37.62c-.05-.17-.09-.34-.14-.51.08-.03.17-.07.25-.1-.04.2-.07.41-.11.61Z"/>
  <path class="cls-12" d="m14.35,36.78c-.06.16-.12.31-.18.47-.07-.12-.15-.24-.22-.36.08-.06.15-.11.23-.17.06.02.11.05.17.07h0Z"/>
  <path class="cls-7" d="m10.06,39.22c.1-.24.23-.41.52-.25v.15c-.08.04-.16.09-.25.13h-.25l-.03-.03h.01Z"/>
  <path class="cls-12" d="m10.58,39.12v-.15c.12,0,.25,0,.37.02-.04.27-.16.33-.37.13Z"/>
  <path class="cls-12" d="m10.08,39.25h.25c-.12.08-.25.17-.37.25.04-.08.08-.17.12-.25Z"/>
  <path class="cls-1" d="m23.69,17.86c-.03,1.02.52,1.78,1.08,2.57.64.9,1.62.78,2.54.99.08.14.18.3.24.4-.07.86-.61,1.54-.39,2.42.19.79.29,1.59.92,2.22-.01.17-.03.35-.04.48-.27.28-.64.17-.81-.17-.46-.92-.86-1.86-.91-2.91,0-.08-.04-.16-.09-.29-.16-.02-.33-.04-.53-.06-.26.55-.48,1.05-.32,1.64.06.21.09.47.04.68-.16.61-.17,1.19.19,1.75-.25.33.02.83-.44,1.05-.07,0-.14-.02-.2-.02h0c-.07-.11-.14-.22-.22-.35-.21.09-.38.16-.55.24-.15-.27-.14-.67-.61-.74-.35.25-.73.52-1.05.74-.09.25-.15.44-.22.63-.06,0-.13-.02-.19-.03,0-.08-.01-.15-.02-.23.2-.4-.11-.49-.36-.63-.19.05-.37.1-.54.15.07-.81.02-1.6-.28-2.46-.38.42-.56.8-.61,1.28-.08.76-.24,1.51-.35,2.26-.03.21-.12.3-.32.29-.03-.2-.06-.41-.1-.61.05-.05.09-.1.17-.18-.11-.04-.18-.07-.24-.1,0-.08-.01-.16-.02-.24.13-.43.35-.85.36-1.28.01-.67.14-1.26.5-1.82.08-.12.09-.29.14-.43-.05-.03-.1-.05-.15-.08-.75.36-.91,1.15-1.18,1.7.04.49.08.84.08,1.19,0,.24-.06.49-.1.73h0c-.35,0-.4.22-.37.5-.05.33-.1.66-.15.98v.38c0,.08,0,.16.01.24.04.14.08.28.11.42-.36.33-.82.27-1.25.34-.08-.13-.15-.26-.23-.38.03-.32.05-.65.08-.97.05-.71.11-1.43.17-2.3.28-.71.63-1.59.97-2.46-.02-.42.11-.77.49-1,.16-.1.33-.18.46-.3.34-.33.76-.6.97-1.14-.24-.03-.39-.05-.55-.07.01-.04,0-.09.03-.12.39-.39.79-.78,1.17-1.18.1-.11.12-.29.17-.44.54-.17.9-.56,1.23-.97.02-.28.03-.55.04-.81.53-.38.77-.92.98-1.49h.25Z"/>
  <path class="cls-5" d="m23.45,17.86c-.21.57-.45,1.11-.98,1.49-.01.26-.03.53-.04.81-.34.42-.69.81-1.23.97h-1.13c.13-.12.26-.23.4-.35.3-.24.59-.47.87-.69-.02-.27-.04-.46-.05-.64.1-.19.2-.38.3-.57.04-.05.07-.1.11-.15,0-.04.02-.07.05-.1.03-.04.06-.08.09-.12.03-.05.07-.09.1-.14.29,0,.41-.15.37-.43-.01-.02,0-.04.01-.06.18-.08.36-.16.63-.27.13.07.32.16.51.26h-.01Z"/>
  <path class="cls-14" d="m5.58,48.49s0,.09-.01.13c-.01-.03-.03-.06-.03-.1,0,0,.03-.02.05-.03h0Z"/>
  <path class="cls-10" d="m38.67,42.75c0,.29.02.58.03.87-.18.37-.37.73-.61,1.21v.76c.15.08.34.16.51.29.13.1.23.24.35.36-.36.06-.73.11-1.08.17-.65-.51-1.33-.61-2.11-.57-.76.04-1.54-.14-2.31-.22.79-.19,1.52-.61,2.38-.52.42.05.86-.05,1.29-.11.32-.05.52-.25.57-.62-.03-.15-.08-.33-.13-.53.08-.21.16-.44.26-.71-.1-.05-.18-.09-.26-.14v-.5c.03-.13.06-.26.09-.39-.04-1.12-.07-2.24-.11-3.36,0-.17.02-.33.03-.5.29.13.57.11.86,0,.04.12.08.25.12.37-.04.07-.1.14-.1.21.04.85.09,1.7.13,2.55.02.45.05.91.07,1.36l.02.02Z"/>
  <path class="cls-9" d="m35.11,38.11c.03.13.06.26.09.39v.37c-.05,1.25-.1,2.5-.15,3.75-.12.08-.24.15-.36.23h-.49c-.21-.09-.42-.18-.62-.27-.08-.14-.17-.27-.19-.32-.07-.49-.12-.88-.18-1.27,0-.42,0-.84-.02-1.26.04-.54.09-1.08.13-1.62.24.04.47.11.71.11.36,0,.72-.07,1.08-.11Z"/>
  <path class="cls-12" d="m37.58,42.49v.5s-.09.08-.13.12c-.34,0-.67.02-1.01.03-.15-.13-.3-.27-.45-.4-.06-1.25-.13-2.51-.2-3.76.2.05.4.09.5.12.49-.14.88-.25,1.27-.36.04,1.12.07,2.24.11,3.36-.23.08-.28.21-.09.39Z"/>
  <path class="cls-10" d="m25.94,36.63c.19.06.38.12.62.19.15-.02.35-.04.54-.06.04.41.07.83.11,1.24,0,.7.02,1.39.02,2.09-.13.47-.39.84-.76,1.16-.31-.09-.6-.17-.89-.25-.01-.33-.03-.66-.04-.99.03-.04.06-.09.08-.13.06-.03.12-.06.23-.11-.1-.07-.15-.11-.2-.15,0-.16-.02-.33-.03-.49.04-.08.07-.17.11-.25.36-.17.3-.39.09-.63v-.37c0-.29.01-.58.02-.87.04-.12.07-.24.11-.37h-.01Z"/>
  <path class="cls-10" d="m27.54,46.7s.07.04.1.06c-.12.03-.24.07-.36.1h-1.06c-.22-.05-.44-.11-.66-.16l-.99-.06h-.37c-.24.03-.47.06-.71.09-.07-.25-.14-.5-.2-.73.56-.62,1.2-.65,1.85-.48.51.13,1.01.33,1.47.48.27-.05.49-.09.71-.12.07.28.14.55.21.83h.01Z"/>
  <path class="cls-9" d="m27.23,40.08c0-.7-.02-1.39-.02-2.09.26-.1.51-.21.9-.36.04,0,.22-.02.5-.04.14-.21.3-.46.47-.71.05,0,.09,0,.14,0,0,.13.01.26.02.39-.02.28-.04.57-.07.85-.34.14-.18.42-.18.66,0,.28.01.57-.03.84-.03.18-.15.34-.23.51-.07-.27-.14-.53-.22-.81-.28.09-.57.18-.85.27-.05.22-.1.44-.15.65-.09-.05-.17-.1-.26-.15h-.02Z"/>
  <path class="cls-3" d="m31.83,42.37c-.38.43-.81.28-1.3.13-.1-1.13-.19-2.23-.29-3.34.19,0,.38-.02.57-.03.08.27.17.54.25.81,0,.21.06.42.17.58.16.22.36.4.55.6.02.41.03.83.05,1.24h0Z"/>
  <path class="cls-3" d="m27.49,40.23c.05-.21.1-.43.15-.65.28-.09.56-.18.85-.27.08.28.15.55.22.81-.01.37-.04.74-.04,1.11,0,.5.05,1-.29,1.4-.59-.02-.76-.14-.8-.66-.05-.58-.06-1.16-.09-1.74Z"/>
  <path class="cls-3" d="m23.49,46.72c.24-.03.47-.06.71-.09h.37c.33.02.66.04.99.05.11.34.23.68.34,1.01-.25.18-.42.3-.6.43-.59-.07-1.17-.14-1.73-.21-.09-.27-.16-.48-.22-.69l-.02-.26c.06-.09.12-.18.18-.26l-.02.02Z"/>
  <path class="cls-7" d="m23.34,47.24c.07.21.14.42.22.69.56.07,1.14.14,1.73.21.18-.13.35-.25.6-.43-.11-.33-.22-.67-.34-1.01.22.05.44.11.66.16.01.12.02.24.04.37-.03.21-.05.42-.08.63-.07.06-.18.11-.21.19-.12.33-.39.47-.68.43-.7-.1-1.44,0-2.1-.36-.02-.21-.03-.42-.05-.63.01-.08.03-.16.04-.25h.17Z"/>
  <path class="cls-14" d="m31.83,42.37c-.02-.41-.03-.83-.05-1.24.1-.23.21-.46.29-.7.15-.43.27-.87.41-1.31.03.17.07.34.1.5-.04.21-.1.43-.13.64-.06.51-.09,1.03-.18,1.53-.04.24-.07.57-.44.58Z"/>
  <path class="cls-4" d="m30.81,39.14c-.19,0-.38.02-.57.03-.01-.14-.02-.29-.03-.43.27.04.46-.04.51-.33.33-.06.66-.11.99-.17.18.31.07.58-.11.86-.26,0-.52.03-.78.04h0Z"/>
  <path class="cls-10" d="m33.08,45.63c-.13.04-.26.11-.39.11-.41,0-.83,0-1.24,0,.08-.11.14-.32.23-.32.48-.04.99-.21,1.4.21Z"/>
  <path class="cls-12" d="m33.21,41c.05.39.11.78.18,1.27.03.05.11.18.19.32-.04,0-.09.03-.13.04-.15-.09-.31-.18-.47-.27.08-.48.16-.92.23-1.35h0Z"/>
  <path class="cls-14" d="m36.43,43.15c.34,0,.67-.02,1.01-.03-.05.19-.09.39-.14.59-.42-.06-.76-.13-.87-.56Z"/>
  <path class="cls-10" d="m28.95,45.61h-1.26c.17-.14.34-.28.53-.43.25.23.63.04.73.43Z"/>
  <path class="cls-9" d="m22.06,47.74c-.04-.29-.08-.58-.11-.88.08.03.23.06.24.1.03.25.03.51.04.77h-.17Z"/>
  <path class="cls-9" d="m30.71,38.41c-.05.29-.24.37-.51.33-.02-.17-.05-.33-.07-.5l.03-.02.03.02c.17.05.35.11.52.16h0Z"/>
  <path class="cls-5" d="m33.45,42.62s.09-.03.13-.04c.21.09.42.18.62.27-.34.22-.59.12-.76-.23h0Z"/>
  <path class="cls-4" d="m28.98,38.76c0-.24-.15-.52.18-.66.01.21.03.43.05.64-.08,0-.15,0-.23.02Z"/>
  <path class="cls-10" d="m30.08,45.75c-.13.15-.25.15-.38,0,.13-.16.25-.16.38,0Z"/>
  <path class="cls-12" d="m34.69,42.85c.12-.08.24-.15.36-.23.02.04.04.08.06.12-.14.04-.28.07-.42.11Z"/>
  <path class="cls-10" d="m29.45,45.74c-.08-.04-.17-.08-.25-.13.2-.18.22-.03.25.13Z"/>
  <path class="cls-12" d="m23.34,47.24h-.16c-.16-.2-.03-.24.14-.25,0,.09.01.17.02.26h0Z"/>
  <path class="cls-3" d="m22.71,36.74c.02.16.05.33.07.49-.14,0-.31-.03-.42.04-.59.34-1.18.23-1.88.02-.06-.22-.13-.5-.21-.78v-.1c.59-.25,1.2-.13,1.81-.1.22.15.43.29.65.44h-.02Z"/>
  <path class="cls-12" d="m22.78,38.35l-.21,1.02c-.16-.23-.39-.27-.65-.26-.36.02-.73,0-1.15,0-.03-.32-.05-.56-.08-.87.36-.13.7-.25.87-.31.51.17.87.29,1.22.42Z"/>
  <path class="cls-12" d="m17.21,39.24c-.19-.42-.21-.83,0-1.25.33.04.66.09.99.13.34.26.72.2,1.09.11v1.16c-.48-.3-1-.47-1.56-.38-.18.03-.35.16-.52.24h0Z"/>
  <path class="cls-12" d="m17.33,40.74c-.03-.17-.06-.35-.09-.52.28.13.26.31.09.52Z"/>
  <path class="cls-7" d="m25.61,39.12c0,.16.02.33.03.49,0,.09-.02.17-.03.26-.03.04-.06.09-.08.13-.25-.08-.49-.15-.72-.22-.29.2-.56.39-.84.58-.05-.35-.12-.71-.16-1.06-.06-.44-.1-.88-.15-1.33.03-.02.05,0,.07.02.34-.1.68-.2,1.02-.3,0-.03,0-.05-.01-.08.2.04.39.07.61.12.13-.26.25-.51.37-.76.03,0,.07.02.1.02,0,.29-.01.58-.02.87-.3.06-.61.12-.96.19-.15.11-.34.26-.54.4.12.39.13.76.51.89.28-.08.53-.15.79-.22h0Z"/>
  <path class="cls-9" d="m21.43,48.35c.21-.13.42-.25.63-.38-.01.46-.33.4-.63.38Z"/>
  <path class="cls-3" d="m18.2,38.12c-.33-.04-.66-.09-.99-.13-.04-.21-.08-.42-.12-.63.09-.28.18-.56.26-.83.45-.03.9-.06,1.34-.08.09,0,.18.02.27.02.07,0,.15.03.22.04,0,.04.01.07.04.1,0,.09.02.19.02.28-.01.23-.02.47-.04.7-.33.18-.67.36-1,.54h0Z"/>
  <path class="cls-7" d="m18.2,38.12c.33-.18.67-.36,1-.54.03.21.06.43.09.64-.38.09-.75.16-1.09-.11h0Z"/>
  <path class="cls-12" d="m19.24,36.89c0-.09-.02-.19-.02-.28.06.02.13.04.26.09-.11.09-.17.14-.24.19Z"/>
  <path class="cls-7" d="m25.82,49.5c.04.12.08.25.13.37-.01.25-.03.49-.04.74-.37,0-.42.27-.46.55-.11.77-.34,1.53-.13,2.32.02.09-.01.2-.02.3-.27.35-.58.54-.93.44-.08-.53-.15-.99-.22-1.45-.01-.1-.01-.2,0-.3.02-.5.07-1,.04-1.49-.03-.37-.03-.81-.48-.99v-.49c.25-.13.5-.26.75-.38h.75c.21.13.41.26.62.38h-.01Z"/>
  <path class="cls-9" d="m23.71,49.99c.45.19.45.62.48.99.04.49-.02.99-.04,1.49v.3c.07.46.14.92.22,1.45.35.1.66-.09.93-.44,0-.1.04-.21.02-.3-.21-.79.02-1.55.13-2.32.04-.28.09-.54.46-.55,0,.21.02.42.03.63-.06.02-.16.04-.16.07-.07.58-.13,1.17-.18,1.75,0,.06.14.12.21.19v.86c-.25.14-.5.28-.74.43-.39.24-.73.32-1.21.25,0-.13-.03-.28.02-.4.22-.5.23-1,.02-1.51-.06-.15-.07-.32-.08-.49-.04-.8-.08-1.61-.12-2.41h.01Z"/>
  <path class="cls-1" d="m26.18,47.86c.03-.21.05-.42.08-.63.03-.12.05-.24.08-.36h.94c.02.09.04.18.07.26-.04.33-.09.66-.13.99h-.98c-.02-.09-.04-.17-.05-.25h-.01Z"/>
  <path class="cls-9" d="m24.45,49.11c-.25.13-.5.26-.75.38.03-.15.06-.29.1-.53.25.06.45.1.64.14h.01Z"/>
  <path class="cls-9" d="m25.82,49.5c-.21-.13-.41-.26-.62-.38.27-.22.42.1.63.13,0,.08,0,.17,0,.25Z"/>
  <path class="cls-7" d="m16.01,47.47c-.02.13-.05.27-.07.4-.17-.17-.13-.3.07-.4Z"/>
  <path class="cls-12" d="m25.81,53.25c-.07-.06-.21-.13-.21-.19.04-.59.11-1.17.18-1.75,0-.03.1-.05.16-.07,0,.29,0,.59.01.88-.05.38-.09.76-.14,1.13Z"/>
  <path class="cls-7" d="m12.83,48.24c.43.27.86.36,1.32.06.08-.05.2-.03.3-.04-.02.1-.03.2-.06.33-.45.06-.89.12-1.38.19-.07-.21-.13-.37-.19-.54h.01Z"/>
  <path class="cls-14" d="m7.21,47.99c.08.08.17.17.25.25v.84c-.27.02-.47.03-.74.04-.14-.25-.29-.51-.49-.87.41-.11.7-.18.99-.26h-.01Z"/>
  <path class="cls-9" d="m15.94,42.11c-.18.08-.37.17-.6.27-.13-.11-.26-.23-.34-.31-.11-.93-.22-1.79-.31-2.57.35-.46.76-.39,1.14-.4h.12v.99c-.33.28-.33.47,0,.76v1.26Z"/>
  <path class="cls-12" d="m17.35,36.53c-.09.28-.18.56-.26.83-.35-.29-.35-.43,0-.87.09,0,.18.03.27.04h-.01Z"/>
  <path class="cls-4" d="m15.95,39.12h-.12c.04-.33.08-.67.12-1,.19.33.19.67,0,1Z"/>
  <path class="cls-12" d="m15.94,40.87c-.33-.28-.32-.48,0-.76v.76Z"/>
  <path class="cls-3" d="m36.69,47.76c-.02.37.13.78-.24,1.07-.46-.12-.9-.25-1.34-.37.04-.31.09-.62.13-.93.51-.06,1.02-.16,1.45.23Z"/>
  <path class="cls-4" d="m35.24,47.54c-.04.31-.09.62-.13.93-.39,1.23-.34,2.47-.19,3.72.04.35.23.78-.19,1.07-.05-1.2-.08-2.4-.15-3.6-.04-.76.1-1.48.38-2.18.1.02.19.03.29.05h-.01Z"/>
  <path class="cls-10" d="m37.01,54.5c.02-.46.04-.92.06-1.39.08.12.23.23.24.35.04.3,0,.61,0,.93-.13.04-.22.07-.31.1h0Z"/>
  <path class="cls-14" d="m37.9,49.34c.3.5.19,1.01.08,1.53-.26-.5-.14-1.01-.08-1.53Z"/>
  <path class="cls-10" d="m38.12,54.1c-.02.09-.04.18-.05.28-.34-.32-.34-.92,0-1.26.02.33.04.65.06.98h-.01Z"/>
  <path class="cls-10" d="m39.2,46.25c.29,0,.59-.04.63.37-.23-.08-.55-.03-.63-.37Z"/>
  <path class="cls-10" d="m38.06,54.86c-.03.13-.07.25-.1.38-.2-.19-.16-.32.1-.38Z"/>
  <path class="cls-7" d="m29.76,46.86s-.04.09-.06.14c-.13-.08-.25-.15-.38-.23.15.03.3.06.44.09Z"/>
  <path class="cls-14" d="m38.06,52.12c0,.08,0,.17,0,.25,0-.08,0-.17,0-.25Z"/>
  <path class="cls-10" d="m40.07,46.63c.09.08.17.16.26.23-.09-.08-.17-.16-.26-.23Z"/>
  <path class="cls-9" d="m29.7,48.62c-.02.09-.03.18-.05.26-.72.03-1.42.13-2.06.49v-1.14c.58-.03,1.16-.06,1.73-.09.03.19-.05.45.27.47h.12-.01Z"/>
  <path class="cls-12" d="m29.31,54.37c.09.26.19.52.32.88-.53.1-.98.19-1.38.26-.44-.26-.59-.59-.53-1.02.18.25.37.49.59.78.33-.25.82-.24.88-.77.04-.04.08-.08.12-.12h0Z"/>
  <path class="cls-9" d="m27.6,53.36c.04-.58.08-1.17.12-1.75v-.49c.07.04.19.09.19.13-.01.79-.04,1.59-.07,2.38-.08,0-.15,0-.23,0v-.26Z"/>
  <path class="cls-9" d="m29.19,54.49c-.06.53-.55.53-.88.77-.22-.29-.4-.53-.59-.78v-.24h.13c.08.08.16.15.24.23.13.14.25.28.37.42.29-.16.51-.28.74-.41h-.01Z"/>
  <path class="cls-4" d="m29.47,51.13c.02.41.05.82.06,1.24,0,.04-.12.09-.18.13.04-.46.08-.91.12-1.37Z"/>
  <path class="cls-9" d="m27.71,50.87c-.04-.25-.08-.51-.12-.76.4.19.25.48.12.76Z"/>
  <path class="cls-12" d="m27.85,54.24h-.13c-.04-.21-.08-.43-.11-.64.08,0,.15,0,.23,0,0,.21,0,.41.01.62h0Z"/>
  <path class="cls-12" d="m33.72,49.49c-.05.23-.1.46-.14.69s-.08.46-.13.69c-.09-.45-.18-.89-.28-1.42.17-.11.35-.22.52-.33,0,.12.02.25.02.37h0Z"/>
  <path class="cls-14" d="m33.62,48.36c.09.03.19.05.31.08-.03.26.17.55-.22.69-.06-.09-.12-.18-.18-.26.03-.17.06-.34.09-.51Z"/>
  <path class="cls-7" d="m29.59,48.62c-.32-.03-.24-.28-.27-.47.09.03.17.06.26.09,0,.13,0,.25.01.38Z"/>
  <path class="cls-7" d="m27.34,47.13c-.02-.09-.04-.18-.07-.26.12-.03.24-.07.36-.1.11.29-.1.32-.29.37h0Z"/>
  <path class="cls-4" d="m39.35,48.87c.15.52.32,1.03.45,1.56.02.09-.08.21-.13.32-.27-.6-.47-1.2-.32-1.87h0Z"/>
  <path class="cls-12" d="m40.35,49.61c.18.08.36.17.54.25.19-.22.36-.42.54-.62.08.67.16,1.34.24,2.01-.16-.08-.33-.16-.53-.26-.16.04-.36.08-.56.13h-.05c.08-.36.12-.72-.2-1,0-.17,0-.34.02-.5h0Z"/>
  <path class="cls-12" d="m40.57,52.87v-.24c.02-.09.04-.18.05-.26.28.32.28.46,0,.77-.02-.09-.03-.18-.05-.26h0Z"/>
  <path class="cls-5" d="m40.62,52.36c-.02.09-.04.18-.05.26-.32-.2-.32-.26-.04-.52.03.08.06.17.09.25h0Z"/>
  <path class="cls-5" d="m40.57,52.87c.02.09.03.18.05.26-.02.04-.04.08-.06.12-.07-.06-.14-.11-.21-.17.07-.07.15-.14.22-.22h0Z"/>
  <path class="cls-5" d="m40.33,50.12c.32.29.28.65.2,1.01-.3-.36-.34-.61-.2-1.01Z"/>
  <path class="cls-4" d="m24.45,10.37c.08-.08.16-.17.26-.27.26.09.5.18.74.27-.33.2-.66.2-1,0Z"/>
  <path class="cls-10" d="m38.67,31.87c-.15.04-.3.08-.4.11-.03.34-.06.6-.09.87-.53.02-.76-.27-.98-.56.24-.21.57-.4.19-.76-.2.03-.38.06-.56.09-.04-.24-.08-.48-.13-.74.34-.47.74-.81,1.37-.76.18.46.35.91.53,1.37-.02.03-.04.06-.06.09.03.01.07.02.1.04,0,.09.02.18.03.26h0Z"/>
  <path class="cls-8" d="m38.78,33.51c-.02-.09-.03-.18-.05-.26.13-.03.26-.05.39-.08.02.04.04.09.06.13-.14.07-.27.14-.41.21h0Z"/>
  <path class="cls-11" d="m39.82,35.62c-.16-.03-.3-.07-.12-.25l.12.25Z"/>
  <path class="cls-11" d="m38.64,31.61s-.07-.02-.1-.04c.02-.03.04-.06.06-.09,0,.04.03.08.04.12h0Z"/>
  <path class="cls-9" d="m37.56,38.74c-.39.11-.79.22-1.27.36-.1-.02-.3-.07-.5-.12.02-.6,0-1.21.44-1.69.31.04.58.06.84.09.09.07.18.15.28.22.08.21.16.42.24.63,0,.17-.02.33-.03.5h0Z"/>
  <path class="cls-11" d="m37.59,38.24c-.08-.21-.16-.42-.24-.63.32.05.64.09.95.16.07.02.11.15.16.22v.25c-.29.11-.58.13-.86,0h0Z"/>
  <path class="cls-14" d="m39.18,38.26c-.18,0-.35-.03-.35-.27.12.09.23.18.35.27Z"/>
  <path class="cls-14" d="m38.6,41.38c-.05-.85-.1-1.7-.13-2.55,0-.07.07-.14.1-.21.13.68.28,1.35.36,2.03.03.26,0,.58-.33.73Z"/>
  <path class="cls-10" d="m17.45,31.49c.43-.07.89,0,1.25-.34.33.03.65.05.98.08.12-.02.23-.05.35-.07v-.1c-.08-.02-.15-.05-.22-.07l-.21-.51c.01-.25.02-.5.04-.74.2,0,.29-.08.32-.29.11-.76.27-1.5.35-2.26.05-.48.23-.86.61-1.28.3.86.36,1.65.28,2.46-.09.66-.18,1.33-.26,1.99-.18.18-.04.22.11.26,0,.04,0,.08.01.13.3.33.56.34.89.01.29-.1.3-.28.15-.52l.02-.73c.06-.13.12-.26.19-.39.06-.19.13-.37.22-.63.32-.23.7-.5,1.05-.74.47.08.46.47.61.74v.13c-.04.5-.08,1-.12,1.5-.17.18-.15.31.09.39.13.06.26.11.39.17-.5.34-.97.7-1.65.71-.7,0-1.39.14-2.09.2-.2.02-.4-.04-.68-.08-.54.56-1.47.53-2.11,1.12.27.4.63.43,1,.52.34.08.76.1.95.63-.2.11-.39.24-.6.32-.11.04-.25.03-.37,0-.95-.11-1.81.14-2.62.6-.11.06-.23.13-.35.14-1.48.11-2.95.45-4.49.21-.23-.3-.48-.62-.73-.95.09-.33.17-.66.26-.99.49-.09.99-.18,1.48-.27.2,0,.45.09.52-.23.08,0,.16,0,.25,0,.18.18.22.04.25-.11.41-.05.82-.1,1.24-.15.57-.04,1.06-.22,1.39-.73v-.11h.62c.21,0,.42-.02.62-.03h0Z"/>
  <path class="cls-3" d="m30.71,38.41c-.17-.05-.35-.11-.52-.16-.04-.43-.08-.86-.12-1.27.49-.52,1.58-.5,2.41,0,.02.09.03.18.05.27-.03.29-.06.57-.09.86-.25.04-.5.08-.75.12-.33.06-.66.11-.99.17h.01Z"/>
  <path class="cls-3" d="m25.73,36.97c-.12.25-.24.5-.37.76-.22-.04-.42-.08-.61-.12,0,.03,0,.05.01.08-.34.1-.68.2-1.02.3-.03-.17-.06-.33-.08-.5,0-.13.01-.26.02-.39v-.62c.55-.53,1.24-.17,1.87-.21.06.23.13.46.19.69h-.01Z"/>
  <path class="cls-9" d="m31.7,38.24c.25-.04.5-.08.75-.12,0,.33.02.66.03,1-.13.44-.26.88-.41,1.31-.08.24-.19.47-.29.7-.19-.2-.39-.38-.55-.6-.12-.16-.17-.36-.17-.58-.08-.27-.17-.54-.25-.81.26,0,.52-.03.78-.04.18-.28.29-.55.11-.86Z"/>
  <path class="cls-3" d="m29.07,36.88c-.16.25-.33.5-.47.71-.28.02-.46.04-.5.04-.39.16-.65.26-.9.36-.04-.41-.07-.83-.11-1.24.37-.43,1.01-.53,1.53-.21.16.1.29.22.44.33h0Z"/>
  <path class="cls-7" d="m35.11,38.11c-.36.04-.72.11-1.08.11-.24,0-.47-.07-.71-.11v-1.05c.59-.15,1.11-.34,1.62.05.05.08.1.16.15.24,0,.25,0,.5,0,.75h.01Z"/>
  <path class="cls-7" d="m24.09,30.12c.04-.5.08-1,.12-1.5.25,0,.5-.01.76-.02h0c.06.09.12.19.17.28.02.37.05.74.07,1.11-.09.2-.18.39-.27.59-.12.03-.24.06-.36.1-.13-.06-.26-.11-.39-.17-.03-.13-.06-.26-.09-.39h-.01Z"/>
  <path class="cls-3" d="m27.71,28.61c.14.09.29.18.43.28.23.42.11.86.03,1.27-.07.37-.38.52-.82.44-.27-.54-.05-1.15-.17-1.73.09-.09.17-.18.26-.26h.28-.01Z"/>
  <path class="cls-7" d="m30.84,29.37l.03.72c-.1.27-.2.53-.3.8-.04,0-.09-.01-.13-.02-.05-.03-.09-.06-.14-.09-.15-.09-.31-.19-.54-.33.12-.45.23-.87.34-1.3.11-.04.23-.07.35-.11.1.04.21.07.32.11l.04-.02c0,.08.02.16.03.24Z"/>
  <path class="cls-7" d="m32.57,31.39c-.34-.69-.35-1.35-.04-1.9.15.02.32.04.5.07.13.69.12,1.28-.47,1.83h.01Z"/>
  <path class="cls-3" d="m35.58,30.12c0,.37.02.74.03,1.11-.14.31-.42.27-.68.31-.2-.11-.2-.27-.15-.47.09-.34.14-.69.21-1.03.2.03.4.06.59.09h0Z"/>
  <path class="cls-12" d="m36.83,31.62c.18-.03.36-.06.56-.09.37.36.05.55-.19.76-.08,0-.16-.03-.24-.05-.13-.12-.26-.25-.38-.37.09-.08.17-.16.26-.25h0Z"/>
  <path class="cls-5" d="m11.32,37.73c-.08.05-.16.1-.25.15-.13-.09-.26-.17-.39-.26.05-.08.1-.17.14-.25.17-.13.34-.26.5-.39.04,0,.08,0,.13,0-.04.24-.09.49-.13.73h0Z"/>
  <path class="cls-1" d="m11.33,36.99c-.17.13-.34.26-.5.39-.08.04-.17.09-.25.13-.09-.03-.18-.05-.26-.08.2-.49.48-.61,1.02-.44h-.01Z"/>
  <path class="cls-4" d="m11.32,37.73c.04-.24.09-.49.13-.73.08,0,.16,0,.25-.02.08.12.16.24.25.37v.13c-.21.08-.41.17-.62.25h-.01Z"/>
  <path class="cls-12" d="m11.09,33.13c-.09.33-.17.66-.26.99h-.24c.12-.41.25-.82.37-1.23.04.08.08.17.12.25h.01Z"/>
  <path class="cls-14" d="m30.58,30.89c.1-.27.2-.53.3-.8.28.17.21.41.11.63-.07.13-.17.35-.41.17Z"/>
  <path class="cls-4" d="m35.58,30.12c-.2-.03-.4-.06-.59-.09.08-.13.16-.27.27-.45.21.19.49.23.33.54h-.01Z"/>
  <path class="cls-14" d="m30.78,29.15c-.11-.04-.22-.08-.32-.11-.12.04-.24.07-.35.11,0-.09-.02-.18-.03-.27.08-.07.15-.13.24-.21.17.07.33.15.5.22-.01.09-.02.17-.03.26h0Z"/>
  <path class="cls-4" d="m34.93,31.53c.26-.03.55,0,.68-.31.06.04.12.09.22.16-.31.24-.56.48-.9.14h0Z"/>
  <path class="cls-7" d="m22.71,36.74c-.22-.15-.43-.29-.65-.44.16,0,.32-.03.52-.05.05.18.08.33.12.48h0Z"/>
  <path class="cls-10" d="m36.57,31.87c.13.12.25.25.38.37-.31.24-.45-.11-.81-.19.22-.1.32-.14.42-.19h.01Z"/>
  <path class="cls-4" d="m25.73,36.97c-.06-.23-.13-.46-.19-.69.13.12.26.23.4.35-.04.12-.07.24-.11.37-.03,0-.07,0-.1-.02h0Z"/>
  <path class="cls-12" d="m24.94,30.58c.09-.2.18-.39.27-.59.03.09.07.17.1.26-.04.12-.08.24-.13.36-.08,0-.16-.01-.25-.02h0Z"/>
  <path class="cls-8" d="m9.89,34.9c-.11-.07-.21-.14-.32-.21.02-.05.03-.1.05-.15.17,0,.33-.02.5-.03-.05.13-.1.26-.15.4h-.08Z"/>
  <path class="cls-1" d="m11.95,37.35c-.08-.12-.16-.24-.25-.37.2-.19.33-.02.48.08-.08.09-.16.19-.23.28h0Z"/>
  <path class="cls-1" d="m29.23,37.25c0-.13-.01-.26-.02-.39.13.04.26.09.49.17-.21.1-.34.16-.47.22Z"/>
  <path class="cls-1" d="m32.53,37.26c-.02-.09-.03-.18-.05-.27.1.02.19.03.43.07-.2.11-.29.16-.38.2Z"/>
  <path class="cls-1" d="m25.19,30.6c.04-.12.08-.24.13-.36.07.02.15.04.25.07-.05.12-.08.21-.11.3-.09,0-.18-.01-.26-.02h0Z"/>
  <path class="cls-1" d="m23.67,37.11c0,.13-.01.26-.02.39-.28-.14-.27-.27.02-.39Z"/>
  <path class="cls-5" d="m14.35,36.78c-.06-.02-.11-.05-.17-.07.03-.06.07-.13.13-.24.07.09.11.15.15.2-.04.03-.07.07-.11.1h0Z"/>
  <path class="cls-1" d="m9.89,34.9h.07c-.04.15-.08.31-.12.46.02-.16.03-.31.05-.47h0Z"/>
  <path class="cls-1" d="m9.58,36c.05-.08.1-.16.15-.25.16.2,0,.23-.15.25Z"/>
  <path class="cls-10" d="m30.84,29.37c0-.08-.02-.16-.03-.24.07.02.14.03.31.08-.15.09-.21.13-.28.17h0Z"/>
  <path class="cls-1" d="m18.96,36.47c-.09,0-.18-.02-.27-.02.04-.06.07-.12.15-.23.06.13.09.19.12.25Z"/>
  <path class="cls-5" d="m35.1,37.36c-.05-.08-.1-.16-.15-.24.15.02.31.03.15.24Z"/>
  <polygon class="cls-12" points="10.27 34.36 10.27 34.31 10.32 34.31 10.31 34.35 10.27 34.36"/>
  <path class="cls-14" d="m30.31,30.78s.09.06.14.09c-.05-.03-.09-.06-.14-.09Z"/>
  <path class="cls-9" d="m27.71,28.61h-.28c.04-.06.07-.12.14-.23.07.11.1.17.14.22h0Z"/>
  <path class="cls-12" d="m25.14,28.89c-.06-.09-.12-.19-.17-.28.07,0,.14.02.2.02-.01.09-.02.17-.03.26Z"/>
  <path class="cls-10" d="m20.07,21.12h1.13c-.06.15-.07.33-.17.44-.38.41-.78.79-1.17,1.18-.03.03-.02.08-.03.12-.69.32-1.37.68-2.08.96-.44.17-.74.64-1.29.55-.04-.08-.09-.16-.13-.23-.24.04-.43.07-.65.11-.05-.12-.09-.21-.12-.3,1.24-1.02,2.46-2.06,4.02-2.56.3.17.43,0,.5-.26h-.01Z"/>
  <path class="cls-1" d="m15.55,23.94c.04.09.07.18.12.3.22-.04.41-.07.65-.11.04.07.08.15.13.23-.1.19-.2.39-.29.57-.7.12-.98.58-1.09,1.18-.16.13-.33.26-.49.38-.23.13-.45.26-.68.39-.34.23-.6-.01-.89-.17.3-.39.56-.82.9-1.18.52-.56,1.09-1.07,1.64-1.6h0Z"/>
  <path class="cls-12" d="m21.28,19.44c.01.18.03.37.05.64-.27.22-.57.45-.87.69.27-.44.54-.89.82-1.33Z"/>
  <path class="cls-1" d="m20.08,21.12c-.07.27-.19.44-.5.26.17-.09.33-.17.5-.26Z"/>
  <path class="cls-4" d="m22.3,17.93c.04.28-.08.43-.37.43.12-.14.25-.29.37-.43Z"/>
  <path class="cls-4" d="m21.69,18.72s-.07.1-.11.15c.04-.05.07-.1.11-.15Z"/>
  <path class="cls-4" d="m21.83,18.5s-.06.08-.09.12c.03-.04.06-.08.09-.12Z"/>
  <path class="cls-5" d="m15.07,26.11c.12-.6.4-1.06,1.09-1.18.09-.18.19-.37.29-.57.54.09.85-.38,1.29-.55.71-.27,1.39-.63,2.08-.96.15.02.31.04.55.07-.21.54-.63.81-.97,1.14-.13.12-.3.21-.46.3-.38.23-.5.58-.49,1h-.5c-.41.85-.79,1.64-1.17,2.42-.03,0-.06-.02-.09-.03.03.3.06.61.09.97-.15.12-.33.25-.49.41-.2.2-.45.39-.22.72v.24c-.08.12-.21.23-.22.36-.04.3-.01.6-.02.9-.17.02-.35.04-.41.04-.2.26-.33.42-.46.58.01-.85.1-1.71.01-2.55-.11-1.07.47-1.98.57-3.1-.13-.06-.3-.14-.46-.22h-.01Z"/>
  <path class="cls-12" d="m13.91,31.97c-.6-.62-.45-1.45.34-2.07.63.52.46,1.73-.34,2.07Z"/>
  <path class="cls-1" d="m14.96,32c.13-.16.25-.32.46-.58.06,0,.23-.02.41-.04.13.09.26.17.39.26-.33.5-.82.69-1.39.73.05-.12.09-.24.14-.37h0Z"/>
  <path class="cls-12" d="m10.95,32.61c-.02-.19-.04-.38-.06-.57.03,0,.06-.03.09-.04,0,.2-.02.41-.02.61h0Z"/>
  <path class="cls-8" d="m10.98,32s-.06.02-.09.04c-.27-.31-.26-.38.08-.54.02.04.04.08.07.12-.02.13-.04.26-.06.39h0Z"/>
  <path class="cls-12" d="m11.04,31.61s-.04-.08-.07-.12c.05-.12.09-.24.14-.35.12.18.16.35-.07.47Z"/>
  <path class="cls-1" d="m13.08,32.63c-.07.32-.32.22-.52.23.07-.31.31-.23.52-.23Z"/>
  <path class="cls-1" d="m13.58,32.51c-.03.15-.07.3-.25.11.08-.04.17-.08.25-.11Z"/>
  <path class="cls-7" d="m11.58,38.37c-.07,0-.15,0-.22.02-.01-.09-.03-.17-.04-.26.09.08.18.16.27.24h-.01Z"/>
  <path class="cls-4" d="m10.57,37.51c.08-.04.17-.09.25-.13-.05.08-.1.17-.14.25h-.15s.03-.09.04-.13h0Z"/>
  <path class="cls-14" d="m16.07,29.87c-.23-.33.01-.53.22-.72.16-.15.34-.29.49-.41-.03-.36-.06-.66-.09-.97.03,0,.06.02.09.03.38-.79.76-1.57,1.17-2.42h.5c-.35.88-.69,1.75-.97,2.46-.06.87-.12,1.59-.17,2.3-.43-.13-.04-.66-.46-.85-.14.04-.34.09-.5.14-.11.18-.19.31-.28.45h0Z"/>
  <path class="cls-12" d="m16.07,29.87c.09-.14.17-.28.28-.45.16-.05.36-.1.5-.14.42.19.02.72.46.85-.03.32-.05.65-.08.97-.13.14-.26.27-.4.41h-.62c-.05-.47-.1-.94-.15-1.41v-.24h.01Z"/>
  <path class="cls-14" d="m19.09,28.63c.04-.24.1-.49.1-.73,0-.35-.04-.7-.08-1.19.27-.55.43-1.34,1.18-1.7.05.03.1.05.15.08-.04.14-.06.31-.14.43-.37.56-.49,1.15-.5,1.82,0,.43-.23.86-.36,1.28h-.36.01Z"/>
  <path class="cls-7" d="m22.14,29.51c0,.24-.02.49-.02.73-.09.13-.19.27-.28.4-.17,0-.34.01-.52.02-.22-.67-.15-1.33.06-1.97.33-.21.53,0,.74.16,0,.08.01.15.02.23v.42h0Z"/>
  <path class="cls-7" d="m19.64,29.75c-.01.25-.02.5-.04.74-.28.3-.61.42-1.01.25,0-.08,0-.16-.01-.24.16-.13.16-.26,0-.38.05-.33.1-.66.15-.98h.82c.03.2.06.41.1.61h0Z"/>
  <path class="cls-4" d="m22.11,28.86c-.21-.17-.4-.37-.74-.16-.21.63-.28,1.29-.06,1.97-.08.03-.16.06-.24.09,0-.04,0-.08-.01-.13-.04-.09-.07-.17-.11-.26.09-.66.18-1.33.26-1.99.18-.05.35-.1.54-.15.25.15.56.24.36.63Z"/>
  <path class="cls-12" d="m18.59,30.74c.4.17.73.05,1.01-.25l.21.51c-.04.08-.09.15-.13.23-.33-.03-.65-.05-.98-.08-.04-.14-.08-.28-.11-.41Z"/>
  <path class="cls-12" d="m19.44,29.13h-.6c.08-.16.17-.33.25-.49h.36c0,.08.01.16.02.24,0,.09-.02.18-.02.27v-.02Z"/>
  <path class="cls-14" d="m16.83,31.52c.13-.14.26-.27.4-.41.08.13.15.26.23.38-.21,0-.42.02-.62.03h0Z"/>
  <path class="cls-12" d="m24.97,28.6c-.25,0-.5.01-.76.02v-.13c.17-.07.33-.14.55-.24.08.12.15.23.22.35h0Z"/>
  <path class="cls-14" d="m19.09,28.63c-.08.16-.17.33-.25.49h-.12c-.02-.28.03-.5.37-.5h0Z"/>
  <path class="cls-12" d="m18.56,30.12c.17.12.17.25,0,.38v-.38Z"/>
  <path class="cls-4" d="m22.14,29.51v-.42c.06,0,.13.02.19.03-.06.13-.12.26-.19.39Z"/>
  <path class="cls-14" d="m19.44,29.13c0-.09.02-.18.02-.27.07.03.13.05.24.1-.07.08-.12.13-.17.18h-.1,0Z"/>
  <path class="cls-14" d="m37.58,42.49c-.18-.18-.14-.31.09-.39-.03.13-.06.26-.09.39Z"/>
  <path class="cls-9" d="m25.61,39.12c-.25.07-.5.14-.79.22-.38-.13-.4-.5-.51-.89.19-.14.39-.29.54-.4.36-.07.66-.13.96-.19v.37c-.03.21-.06.42-.09.63-.04.08-.07.17-.11.25h0Z"/>
  <path class="cls-1" d="m25.72,38.87c.03-.21.06-.42.09-.63.21.24.27.47-.09.63Z"/>
  <path class="cls-1" d="m25.61,39.87c0-.09.02-.17.03-.26.05.04.11.08.2.15-.11.06-.17.08-.23.11Z"/>
  <path class="cls-5" d="m26.34,46.86c-.03.12-.05.24-.08.36-.01-.12-.02-.24-.04-.37h.12Z"/>
  <path class="cls-14" d="m16.06,30.11c.05.47.1.94.15,1.41v.11c-.13-.09-.26-.17-.39-.26,0-.3-.02-.6.02-.9.02-.13.15-.24.22-.36Z"/>
  <path class="cls-1" d="m21.07,30.75c.08-.03.16-.06.24-.09.17,0,.34-.01.52-.02.04.04.09.08.13.12-.33.32-.58.32-.89-.01Z"/>
  <path class="cls-4" d="m21.96,30.76s-.09-.08-.13-.12c.09-.13.19-.27.28-.4.15.23.14.42-.15.52Z"/>
  <path class="cls-12" d="m24.09,30.12c.03.13.06.26.09.39-.25-.08-.27-.21-.09-.39Z"/>
  <path class="cls-1" d="m19.68,31.23c.04-.08.09-.15.13-.23.07.02.14.05.21.07v.1c-.11.02-.23.05-.35.07h.01Z"/>
  <path class="cls-1" d="m20.95,30.37c.04.09.07.17.11.26-.15-.04-.29-.08-.11-.26Z"/>
</svg>