<?xml version="1.0" encoding="UTF-8"?>
<svg id="Layer_1" data-name="Layer 1" xmlns="http://www.w3.org/2000/svg" viewBox="0 0 291.88 88.18">
  <defs>
    <style>
      .cls-1 {
        fill: #003974;
      }
    </style>
  </defs>
  <path class="cls-1" d="m33.48,67.68c.01,1.21-.37,1.44-1.51,1.39-2.49-.1-4.99-.03-7.59-.03-.03-.44-.07-.84-.07-1.24-.01-4.5-.04-9,0-13.5.01-.93-.27-1.22-1.2-1.21-4.17.04-8.33.04-12.5,0-.93-.01-1.21.29-1.2,1.22.05,4.29.03,8.59.04,12.88.01,1.95.02,1.91-1.87,1.84-1.87-.06-3.75-.01-5.62-.05-1.53-.03-1.92-.44-1.92-1.95V31.78c0-.36.05-.72.05-.82,2.77,0,5.42.04,8.08-.02.99-.02,1.3.32,1.29,1.3-.05,3.91,0,7.83-.06,11.75-.01.92.22,1.23,1.18,1.22,4.21-.04,8.42-.04,12.62,0,.88.01,1.15-.28,1.14-1.15-.05-3.95,0-7.91-.06-11.87-.02-.95.32-1.27,1.2-1.26,2.3.03,4.59.04,6.88.02.82,0,1.11.3,1.09,1.1-.04,1.83-.03,3.67-.02,5.5,0,10.04,0,20.08.05,30.13Z"/>
  <polygon class="cls-1" points="216.92 31.15 216.92 69.01 208.1 69.01 208.1 53.21 193.01 53.21 193.01 69.02 184.17 69.02 184.17 31.12 192.96 31.12 192.96 45.1 208.01 45.1 208.01 31.15 216.92 31.15"/>
  <path class="cls-1" d="m113.97,64.1c-2.84-6.78-5.67-13.57-8.5-20.36-1.63-3.91-3.31-7.81-4.88-11.75-.28-.71-.58-1-1.3-1-1.96-.01-3.91-.04-5.87-.06-2.11-.02-2.07,0-2.86,1.92-4.36,10.47-8.74,20.94-13.12,31.41-.64,1.55-1.3,3.1-1.99,4.71,3.09,0,6,.05,8.9-.05.51-.01,1.26-.55,1.44-1.03.72-1.8,1.29-3.67,1.84-5.54.26-.88.75-1.13,1.64-1.12,4.2.07,8.41.11,12.61.06.88-.01,1.25.24,1.53,1.04.68,1.91,1.39,3.82,2.22,5.68.2.46.88.97,1.35.98,2.91.09,5.82.05,9.14.05-.77-1.77-1.48-3.34-2.15-4.94Zm-23.3-9.99c1.65-4.41,3.23-8.65,4.81-12.89.13.01.27.02.41.03,1.52,4.25,3.05,8.49,4.62,12.86h-9.84Z"/>
  <path class="cls-1" d="m71.1,68.35c-.01.25-.65.68-.99.68-7.17.01-14.33-.03-21.5-.05-.95-.01-1.92.01-2.86.12-.92.11-1.16-.26-1.14-1.12.04-2.95.04-5.91.04-8.87-.01-8.87-.02-17.75-.08-26.62-.01-1.19.31-1.58,1.55-1.57,7.45.06,14.91.06,22.37.02,1.18-.01,1.6.3,1.53,1.53-.1,1.7-.05,3.42.05,5.12.06,1.01-.3,1.3-1.27,1.29-4.54-.05-9.08-.05-13.62-.05-1.72-.01-1.73,0-1.74,1.78,0,1.33.06,2.66,0,3.99-.04.9.3,1.16,1.15,1.16,4.41,0,8.83.05,13.24,0,.95,0,1.26.23,1.24,1.16-.04,2.02-.01,4.05-.01,6.19h-1.77c-4.21,0-8.41.02-12.62-.01-.95-.01-1.34.22-1.28,1.26.1,1.83.11,3.67.04,5.5-.03,1.05.3,1.36,1.34,1.35,4.92-.04,9.83-.02,14.75-.02h1.62c0,2.46.03,4.81-.04,7.16Z"/>
  <path class="cls-1" d="m176.47,37.74c0,.8-.28,1.1-1.1,1.09-2.62-.03-5.25,0-7.87.01h-1.57v2.3c0,8.79.01,17.57.02,26.36,0,1.57-.06,1.6-1.59,1.57-2.21-.03-4.41-.05-6.61.03-.93.04-1.14-.3-1.13-1.14.03-9.2.01-18.4.07-27.61.01-1.16-.23-1.6-1.49-1.56-2.98.09-5.98.03-9.09.03v-7.76c.53-.04,1.01-.11,1.5-.11,9.16,0,18.32.01,27.48-.03,1.01,0,1.43.25,1.39,1.32-.07,1.83-.05,3.67,0,5.5Z"/>
  <path class="cls-1" d="m291.8,32.37c-.08,1.75-.07,3.5,0,5.25.04.97-.36,1.22-1.24,1.22-2.75-.03-5.5.04-8.25-.02-1.03-.02-1.34.29-1.34,1.33.04,9.13.03,18.25.03,27.37v1.5h-8.92v-1.42c0-9.12-.02-18.24.02-27.37,0-1.09-.29-1.44-1.4-1.41-2.75.07-5.5,0-8.25.04-.94.01-1.21-.3-1.16-1.23.08-1.79.11-3.59,0-5.37-.07-1.25.55-1.35,1.5-1.34,6.54.01,13.08.01,19.62.01,2.67.01,5.33.06,8,0,1.11-.03,1.44.36,1.39,1.44Z"/>
  <path class="cls-1" d="m146.29,67.98c0,.76-.17,1.11-1.05,1.11-7.29-.03-14.58-.01-21.87-.01-.21,0-.41-.03-.84-.07v-1.57c0-11.71.01-23.42-.04-35.13-.01-1.14.37-1.43,1.43-1.39,2.12.07,4.25.09,6.37.03,1.11-.03,1.43.36,1.42,1.45-.03,9.12.01,18.25-.03,27.38-.01,1.11.3,1.43,1.4,1.42,4-.06,8,0,12-.05.91-.01,1.24.24,1.2,1.2-.07,1.87-.03,3.75.01,5.63Z"/>
  <path class="cls-1" d="m254.01,67.65c.01,1.13-.26,1.49-1.45,1.44-2.49-.11-4.99-.03-7.68-.03-.03-.49-.07-.89-.07-1.3,0-11.74.03-23.49-.02-35.24,0-1.3.4-1.64,1.64-1.58,2.04.09,4.08.02,6.12.03.45,0,.89.06,1.44.11v1.2c0,11.79-.01,23.58.02,35.37Z"/>
  <path d="m291.81,87.62c-.23.17-.45.44-.71.49-.4.09-.83.05-1.24.05-96.05,0-192.11,0-288.16-.01-.84,0-2.01.32-1.63-1.11h22.66c77.32.01,154.64.01,231.97.02,10.66,0,21.33-.02,31.99-.01,1.46,0,2.92.05,4.38.13.25.02.49.29.74.44Z"/>
  <path d="m291.88,10.59c-.28.18-.54.45-.84.52-.4.1-.83.03-1.25.03h-81.74c-27.37,0-54.74.01-82.11-.02-.61,0-1.57.45-1.64-.67,0-.16,1.06-.54,1.63-.54,37.37-.03,74.74-.04,112.11-.04h50.62c.79,0,1.59-.03,2.37.08.31.04.57.42.85.64Z"/>
  <path d="m9.78,9.31c-.39-.17-.74-.42-1.16-.67,2.27-1.76,2.93-2.99,2.51-4.64-.5-1.97-1.83-3.31-3.78-3.51C4.98.24,2.56.43.07.43c-.01.12-.06.36-.06.59.01,2.08.03,4.17.03,6.25,0,3.03-.01,6.07-.03,9.11-.01,1.08.36,1.75,1.57,1.72,1.37-.03,2.77.13,4.12-.07,1.49-.21,3.03-.55,4.39-1.17,1.5-.68,2.22-2.13,2.14-3.8-.08-1.68-.83-3.02-2.45-3.75ZM2.04,1.91c1.83.11,3.64.08,5.4.37,1.29.22,2.12,1.78,1.96,3.11-.18,1.57-1.18,2.61-2.74,2.73-.95.07-1.91.02-2.87.02h-1.75V1.91Zm5.77,14.42c-1.64.24-3.31.24-4.97.23-.28,0-.76-.57-.81-.93-.12-.85-.04-1.74-.04-2.61,0-3.42,0-3.43,3.48-3.39.74.01,1.5.05,2.23.18,1.84.33,2.73,1.35,2.79,3.1.06,1.62-1.04,3.18-2.68,3.42Z"/>
  <path d="m86.13,9.82c.61-.27,1.08-.52,1.58-.7,2.33-.82,2.86-2.61,2.79-4.36-.08-2.03-1.47-3.85-3.51-4.16-2.52-.38-5.1-.37-7.59-.52,0,2.22-.01,4.2,0,6.19.02,3.62.04,7.24.12,10.85.01.34.48.67.74,1,.25-.33.67-.64.71-1,.11-.9.04-1.83.04-2.74v-4.51c.88,0,1.55.06,2.2-.02.91-.1,1.39.24,1.83,1.06,1.15,2.12,2.45,4.15,3.67,6.23.48.81,1.1,1.22,2.28.82-1.61-2.7-3.19-5.35-4.86-8.14Zm-5.05-1.12V1.89c1.99.12,3.94.1,5.85.41,1.17.19,1.83,1.18,1.9,2.47.07,1.29-.06,2.6-1.49,2.94-1.98.48-4.04.66-6.26.99Z"/>
  <path d="m27.35,17.28c-.45.28-.89.8-1.35.81-3.27.07-6.56.04-9.98.04V.39c3.29,0,6.59-.04,9.89.04.35.01.68.68,1.02,1.03-.38.19-.76.54-1.14.55-2.21.02-4.41-.02-6.62-.09-.93-.03-1.39.26-1.36,1.26.04,1.61.01,3.22.01,4.93h8.04c.5,1.34.4,1.52-.82,1.53-2.33.01-4.65,0-7.04,0,0,2.22-.03,4.33.05,6.43,0,.2.67.52,1.03.52,2.29.05,4.58-.02,6.87.04.47.01.93.42,1.4.65Z"/>
  <path d="m75.82,17.24c-.42.29-.82.84-1.25.85-2.95.07-5.91.01-8.87.04-1,.01-1.04-.6-1.04-1.31-.01-4.67-.01-9.33-.04-14,0-.82-.12-1.63-.2-2.58.65,0,1.29.01,1.93,0,2.25-.03,4.5-.06,6.75-.08.46,0,.99-.07,1.35.13.4.23.65.74.97,1.13-.39.23-.77.67-1.16.67-2.25.02-4.49-.08-6.74-.11-.44-.01-.88.07-1.3.11v6.03h8.7v1.51h-8.74c0,2.23-.03,4.33.05,6.44.01.19.77.5,1.18.51,2.37.04,4.75-.01,7.12.05.44.01.86.39,1.29.61Z"/>
  <path d="m61.95,17.98c-1.4.33-2.3.08-3.09-.76-2.16-2.31-4.34-4.6-6.53-6.88-.48-.5-1.01-.94-1.71-1.59v8.01c0,.6.23,1.36-.78,1.36-.94,0-1.01-.69-1.01-1.39-.01-4.66,0-9.33,0-13.99V.24c1.19-.05,1.72.5,1.73,1.54.02,2.16.01,4.33.01,6.83.82-.74,1.46-1.28,2.04-1.87,1.96-1.97,3.9-3.97,5.84-5.96.75-.77,1.55-.41,2.73-.08-2.95,2.67-5.7,5.15-8.53,7.7,3.08,3.17,6.12,6.3,9.3,9.58Z"/>
  <path d="m44.75,16.26c-3.81,3.49-11.06,2.08-13.48-2.51-2.87-5.44-.32-10.08,3.93-12.88,2.72-1.79,7.97-.67,10.05,1.98-.47.66-.9,1.08-1.76.38-4.17-3.41-10.43-1.08-11.47,4.24-.76,3.87.92,7.6,4.19,8.81,2.8,1.04,5.55.93,7.89-1.31.17-.17.39-.28.65-.45.76.68.61,1.19,0,1.74Z"/>
  <path d="m109.93,15.02c-.25,1.58-1.66,2.52-3.16,2.89-1.92.49-3.88.42-5.72-.48-.37-.18-.79-.38-1.02-.7-.28-.39-.38-.91-.56-1.37.51.05,1.2-.09,1.52.19,1.24,1.03,2.6,1.48,4.17,1.29,1.97-.24,3.23-1.36,3.38-2.93.17-1.72-.87-3.14-2.78-3.78-1.18-.4-2.39-.74-3.54-1.2-1.94-.78-2.93-2.47-2.71-4.44.23-1.99,1.97-3.97,3.84-4.22,1.83-.24,3.67-.23,5.33.77,1.11.66,1.14,1.09.18,2.3-1.46-1.54-3.19-1.97-5.15-1.49-1.52.36-2.52,1.48-2.67,2.91-.1,1.03.74,2.29,2.06,2.88,1.06.47,2.17.84,3.27,1.2,3.87,1.29,4.06,3,3.56,6.18Z"/>
  <path d="m96,1.84c-.35,1.15-.69,2.3-1.05,3.44-.21.66-.56,1.11-1.49.75.42-1.91.83-3.75,1.24-5.6,1.52-.21,1.73.01,1.3,1.41Z"/>
</svg>