<?xml version="1.0" encoding="UTF-8"?>
<svg id="SearchUnifiedCommunications" xmlns="http://www.w3.org/2000/svg" viewBox="0 0 48.38 22.94">
  <defs>
    <style>
      .cls-1 {
        fill: #aaa;
      }
    </style>
  </defs>
  <path class="cls-1" d="m48.38,11.25v-1.24C41.91,3.56,33.32,0,24.19,0S6.47,3.55,0,10.01v1.24C5.8,6.83,12.69,4.1,19.94,3.33l.37-.04-.34.15c-3.64,1.66-6,5.3-6,9.29,0,5.63,4.58,10.21,10.21,10.21s10.21-4.58,10.21-10.21c0-3.99-2.35-7.64-6-9.29l-.34-.15.37.04c7.25.77,14.14,3.51,19.94,7.92h.02Zm-16.68,1.49c0,4.14-3.37,7.51-7.51,7.51s-7.51-3.37-7.51-7.51,3.37-7.51,7.51-7.51,7.51,3.37,7.51,7.51Z"/>
  <path class="cls-1" d="m19.7,12.76c0,2.48,2.01,4.49,4.49,4.49s4.49-2.01,4.49-4.49-2.01-4.49-4.49-4.49-4.49,2.01-4.49,4.49Zm6.35,0c0,1.02-.83,1.86-1.86,1.86s-1.86-.83-1.86-1.86.83-1.86,1.86-1.86,1.86.83,1.86,1.86Z"/>
</svg>