<svg xmlns="http://www.w3.org/2000/svg" id="SearchUnifiedCommunications" viewBox="20.65 18.27 235 52.41"><defs><style>.cls-1{fill:#006db6;}.cls-2{fill:#aaa;}.cls-3{fill:#26a7df;}</style></defs><g><g><path class="cls-3" d="M170.63,62.44v5.81h-.68v-2.71h-3.06v2.71h-.68v-5.81h.68v2.42h3.06v-2.42h.68Z"/><path class="cls-3" d="M175.24,62.44v.68h-3.3v1.76h2.98v.68h-2.98v2.01h3.3v.69h-3.99v-5.81h3.99Z"/><path class="cls-3" d="M176.92,66.56l-.6,1.69h-.74l2.11-5.81h.77l2.07,5.81h-.76l-.59-1.69h-2.26Zm1.14-3.25l-.91,2.59h1.8l-.89-2.59Z"/><path class="cls-3" d="M184.58,68.25h-3.55v-5.81h.68v5.13h2.87v.69Z"/><path class="cls-3" d="M186.43,63.12v5.13h-.68v-5.13h-1.75v-.68h4.19v.68h-1.75Z"/><path class="cls-3" d="M193.13,62.44v5.81h-.68v-2.71h-3.06v2.71h-.68v-5.81h.68v2.42h3.06v-2.42h.68Z"/><path class="cls-3" d="M196.45,68.35c-1.53,0-2.77-1.36-2.77-3.03s1.24-3.02,2.77-3.02c1.27,0,2.2,.79,2.56,1.93h-.72c-.31-.73-.93-1.26-1.84-1.26-1.15,0-2.09,1.06-2.09,2.35s.94,2.35,2.09,2.35c.82,0,1.5-.49,1.84-1.26h.72c-.38,1.18-1.36,1.94-2.56,1.94Z"/><path class="cls-3" d="M200.31,66.56l-.6,1.69h-.74l2.11-5.81h.77l2.07,5.81h-.76l-.59-1.69h-2.26Zm1.14-3.25l-.91,2.59h1.8l-.89-2.59Z"/><path class="cls-3" d="M208.64,68.25h-.69c-.06-.16-.1-.36-.1-.63v-.8c0-.56-.28-.87-.92-.87h-1.83v2.3h-.68v-5.81h2.47c1.14,0,1.81,.72,1.81,1.76,0,.62-.29,1.12-.76,1.41,.38,.23,.59,.64,.59,1.22v.72c0,.22,.06,.54,.12,.7Zm-1.73-2.98c.66,0,1.09-.41,1.09-1.07,0-.75-.43-1.08-1.12-1.08h-1.78v2.15h1.81Z"/><path class="cls-3" d="M213.36,62.44v.68h-3.3v1.76h2.98v.68h-2.98v2.01h3.3v.69h-3.99v-5.81h3.99Z"/><path class="cls-1" d="M221.34,68.25h-.68v-4.87l-1.63,4.87h-.73l-1.63-4.87v4.87h-.68v-5.81h1.05l1.64,4.9,1.64-4.9h1.04v5.81Z"/><path class="cls-1" d="M226.21,62.44v.68h-3.3v1.76h2.98v.68h-2.98v2.01h3.3v.69h-3.99v-5.81h3.99Z"/><path class="cls-1" d="M226.99,62.44h2.07c1.54,0,2.53,1.1,2.53,2.9s-.99,2.92-2.53,2.92h-2.07v-5.81Zm.68,.68v4.45h1.38c1.03,0,1.83-.66,1.83-2.23s-.81-2.22-1.83-2.22h-1.38Z"/><path class="cls-1" d="M232.87,68.25h-.68v-5.81h.68v5.81Z"/><path class="cls-1" d="M234.7,66.56l-.59,1.69h-.74l2.11-5.81h.77l2.07,5.81h-.76l-.59-1.69h-2.26Zm1.14-3.25l-.91,2.59h1.8l-.89-2.59Z"/></g><g><path class="cls-1" d="M129.94,66.47l-1.25,1.91h-.99l1.75-2.53-1.63-2.36h.99l1.14,1.75,1.21-1.75h.99l-1.71,2.36,1.76,2.53h-.99l-1.25-1.91Z"/><path class="cls-1" d="M134.69,68.36c-1.14,.13-1.93-.54-1.93-1.78v-4.42h.8v1.32h1.11v.77h-1.11v2.34c0,.86,.53,1.08,1.13,1.04v.74Z"/><path class="cls-1" d="M139.87,66.74c-.34,1.04-1.18,1.63-2.31,1.63-1.41,0-2.51-1.12-2.51-2.55s1.1-2.57,2.46-2.57c1.26,0,2.48,1.04,2.47,2.78h-4.11c.1,1.02,.88,1.61,1.69,1.61,.69,0,1.19-.33,1.45-.9h.85Zm-.78-1.43c-.2-.8-.86-1.33-1.58-1.33-.67,0-1.39,.49-1.59,1.33h3.17Z"/><path class="cls-1" d="M141.5,68.38h-.81v-7.06h.81v7.06Z"/><path class="cls-1" d="M143.36,68.38h-.81v-7.06h.81v7.06Z"/><path class="cls-1" d="M145.21,68.38h-.81v-4.89h.81v4.89Z"/><path class="cls-1" d="M156.27,66.74c-.34,1.04-1.18,1.63-2.31,1.63-1.41,0-2.51-1.12-2.51-2.55s1.1-2.57,2.46-2.57c1.26,0,2.48,1.04,2.47,2.78h-4.11c.1,1.02,.88,1.61,1.69,1.61,.69,0,1.19-.33,1.45-.9h.85Zm-.78-1.43c-.2-.8-.86-1.33-1.58-1.33-.67,0-1.39,.49-1.59,1.33h3.17Z"/><path class="cls-1" d="M161.04,68.38h-.8v-2.97c0-.75-.42-1.3-1.2-1.3s-1.28,.55-1.28,1.28v2.99h-.81v-4.89h.78v.53c.33-.41,.84-.66,1.42-.66,1.2,0,1.88,.85,1.88,2.07v2.94Z"/><path class="cls-1" d="M163.67,68.36c-1.14,.13-1.93-.54-1.93-1.78v-4.15h.8v1.04h1.11v.77h-1.11v2.34c0,.86,.53,1.08,1.13,1.04v.74Z"/><circle class="cls-1" cx="144.86" cy="62.04" r=".55"/><path class="cls-1" d="M150.86,68.05c0,1.57-1.02,2.63-2.52,2.63-1.16,0-2.06-.62-2.31-1.62h.85c.32,.73,1.1,.84,1.46,.84,1.26,0,1.71-.97,1.71-1.85v-.51c-.35,.48-.96,.87-1.66,.87-1.41,0-2.45-1.15-2.45-2.57s1.05-2.58,2.45-2.58c.72,0,1.35,.41,1.69,.9v-.78h.78v4.67Zm-2.47-4.04c-.92,0-1.65,.82-1.65,1.84s.72,1.82,1.65,1.82,1.66-.82,1.66-1.82-.76-1.84-1.66-1.84Z"/></g></g><g><g><path class="cls-1" d="M140.85,19.57v16.62h-2.01v-7.74h-9.1v7.74h-2.04V19.57h2.04v6.92h9.1v-6.92h2.01Z"/><path class="cls-1" d="M156.26,19.57v1.94h-9.84v5.03h8.89v1.94h-8.89v5.75h9.84v1.96h-11.88V19.57h11.88Z"/><path class="cls-1" d="M161.41,31.35l-1.77,4.84h-2.2l6.28-16.62h2.3l6.16,16.62h-2.28l-1.75-4.84h-6.73Zm3.4-9.29l-2.71,7.4h5.37l-2.66-7.4Z"/><path class="cls-1" d="M184.37,36.19h-10.59V19.57h2.04v14.66h8.55v1.96Z"/><path class="cls-1" d="M190.01,21.51v14.68h-2.04v-14.68h-5.22v-1.94h12.48v1.94h-5.22Z"/><path class="cls-1" d="M210.11,19.57v16.62h-2.01v-7.74h-9.1v7.74h-2.04V19.57h2.04v6.92h9.1v-6.92h2.01Z"/><path class="cls-3" d="M129.83,56.83h-2.04v-16.62h2.04v16.62Z"/><path class="cls-3" d="M138.84,42.15v14.68h-2.04v-14.68h-5.22v-1.94h12.48v1.94h-5.22Z"/><path class="cls-3" d="M153.5,57.12c-3.83,0-6.35-2.23-6.35-5.56h2.11c0,2.23,1.72,3.62,4.24,3.62,2.85,0,4.24-1.2,4.24-3.07,0-1.39-.62-2.35-4.29-2.97-3.69-.65-5.8-1.8-5.8-4.65s2.28-4.7,5.8-4.7,5.89,1.96,5.89,5.17h-2.06c0-1.94-1.32-3.23-3.81-3.23s-3.76,1.13-3.76,2.68c0,1.44,.77,2.16,4.17,2.78,3.64,.7,5.89,1.72,5.89,4.91s-2.56,5.01-6.28,5.01Z"/><path class="cls-3" d="M174.27,40.21v1.94h-9.84v5.03h8.89v1.94h-8.89v5.75h9.84v1.96h-11.88v-16.62h11.88Z"/><path class="cls-3" d="M183.6,57.12c-4.55,0-8.24-3.88-8.24-8.67s3.69-8.65,8.24-8.65c3.78,0,6.56,2.25,7.62,5.53h-2.13c-.91-2.08-2.78-3.59-5.49-3.59-3.43,0-6.23,3.04-6.23,6.71s2.8,6.71,6.23,6.71c2.44,0,4.48-1.39,5.49-3.59h2.13c-1.13,3.38-4.05,5.56-7.62,5.56Z"/><path class="cls-3" d="M199.55,55.16c2.8,0,4.34-1.82,4.34-4.29v-10.66h2.04v10.66c0,3.69-2.59,6.25-6.37,6.25s-6.37-2.56-6.37-6.25v-10.66h2.01v10.66c0,2.47,1.58,4.29,4.36,4.29Z"/><path class="cls-3" d="M221.48,56.83h-2.01v-4.07c0-1.08-.31-2.49-2.83-2.49h-5.34v6.56h-2.04v-16.62h7.35c3.4,0,5.37,2.06,5.37,5.03,0,1.77-.84,3.21-2.25,4.05,1.13,.65,1.75,1.82,1.75,3.47v4.07Zm-4.79-8.53c1.87,0,3.26-1.1,3.26-3.07,0-2.08-1.25-3.09-3.33-3.09h-5.32v6.16h5.39Z"/><path class="cls-3" d="M227,56.83h-2.04v-16.62h2.04v16.62Z"/><path class="cls-3" d="M236.01,42.15v14.68h-2.04v-14.68h-5.22v-1.94h12.48v1.94h-5.22Z"/><path class="cls-3" d="M249.88,49.65v7.19h-2.04v-7.19l-5.77-9.44h2.35l4.45,7.57,4.46-7.57h2.32l-5.77,9.44Z"/></g><g><rect class="cls-2" x="115.4" y="18.27" width=".75" height="52"/><g><g><path class="cls-2" d="M31.05,50.58h-4.09v11.27h-2.26v-11.27h-4.05v-1.84h10.4v1.84Z"/><path class="cls-2" d="M33.64,62.03c-1.39,0-2.51-.44-3.37-1.31s-1.29-2.04-1.29-3.49v-.27c0-.97,.19-1.84,.56-2.61,.37-.76,.9-1.36,1.58-1.79s1.43-.64,2.27-.64c1.33,0,2.35,.42,3.07,1.27,.72,.85,1.08,2.04,1.08,3.59v.88h-6.36c.07,.8,.33,1.44,.81,1.91s1.06,.7,1.78,.7c1,0,1.82-.41,2.45-1.22l1.18,1.13c-.39,.58-.91,1.03-1.56,1.35-.65,.32-1.38,.48-2.19,.48Zm-.26-8.34c-.6,0-1.08,.21-1.45,.63-.37,.42-.6,1-.71,1.75h4.17v-.16c-.05-.73-.24-1.29-.59-1.66-.34-.37-.82-.56-1.42-.56Z"/><path class="cls-2" d="M42.98,60.28c.55,0,1-.16,1.36-.48s.55-.71,.58-1.18h2.06c-.02,.61-.21,1.17-.57,1.7-.35,.52-.83,.94-1.44,1.25-.61,.31-1.26,.46-1.96,.46-1.36,0-2.44-.44-3.24-1.32-.8-.88-1.2-2.1-1.2-3.65v-.23c0-1.48,.4-2.67,1.19-3.56,.79-.89,1.87-1.34,3.24-1.34,1.16,0,2.1,.34,2.83,1.01,.73,.67,1.11,1.56,1.15,2.66h-2.06c-.02-.56-.21-1.02-.57-1.38-.36-.36-.81-.54-1.36-.54-.71,0-1.25,.26-1.64,.77-.38,.51-.58,1.29-.59,2.34v.35c0,1.06,.19,1.84,.57,2.36,.38,.52,.93,.78,1.65,.78Z"/><path class="cls-2" d="M50.42,53.17c.71-.83,1.62-1.24,2.71-1.24,2.08,0,3.13,1.19,3.16,3.56v6.36h-2.19v-6.28c0-.67-.15-1.15-.44-1.43-.29-.28-.72-.42-1.28-.42-.88,0-1.53,.39-1.96,1.17v6.96h-2.19v-13.83h2.19v5.15Z"/><path class="cls-2" d="M66.08,50.58h-4.09v11.27h-2.26v-11.27h-4.05v-1.84h10.4v1.84Z"/><path class="cls-2" d="M70.27,61.85c-.1-.19-.18-.49-.25-.91-.7,.73-1.55,1.09-2.56,1.09s-1.78-.28-2.39-.84c-.62-.56-.93-1.25-.93-2.07,0-1.04,.39-1.83,1.16-2.39,.77-.56,1.87-.83,3.31-.83h1.34v-.64c0-.5-.14-.91-.42-1.21s-.71-.45-1.29-.45c-.5,0-.91,.12-1.22,.37-.32,.25-.48,.57-.48,.95h-2.19c0-.53,.18-1.03,.53-1.5s.84-.83,1.44-1.09c.61-.26,1.29-.4,2.04-.4,1.14,0,2.05,.29,2.73,.86s1.03,1.38,1.04,2.42v4.39c0,.88,.12,1.58,.37,2.1v.15h-2.23Zm-2.4-1.57c.43,0,.84-.11,1.22-.32,.38-.21,.67-.49,.86-.85v-1.84h-1.18c-.81,0-1.42,.14-1.83,.42-.41,.28-.61,.68-.61,1.2,0,.42,.14,.75,.42,1,.28,.25,.65,.37,1.12,.37Z"/><path class="cls-2" d="M79.15,54.1c-.29-.05-.59-.07-.89-.07-1,0-1.68,.38-2.03,1.15v6.66h-2.19v-9.74h2.09l.05,1.09c.53-.85,1.26-1.27,2.2-1.27,.31,0,.57,.04,.77,.13v2.05Z"/><path class="cls-2" d="M79.67,56.9c0-1.51,.36-2.72,1.07-3.62,.71-.9,1.65-1.35,2.83-1.35,1.11,0,1.98,.39,2.62,1.16l.1-.98h1.97v9.44c0,1.28-.4,2.29-1.19,3.02-.8,.74-1.87,1.11-3.22,1.11-.71,0-1.41-.15-2.09-.45-.68-.3-1.2-.69-1.55-1.17l1.04-1.31c.67,.8,1.5,1.2,2.48,1.2,.73,0,1.3-.2,1.72-.59,.42-.39,.63-.97,.63-1.73v-.66c-.63,.7-1.47,1.05-2.52,1.05-1.14,0-2.07-.45-2.79-1.36-.72-.91-1.08-2.16-1.08-3.76Zm2.18,.19c0,.98,.2,1.75,.6,2.31,.4,.56,.95,.84,1.66,.84,.88,0,1.54-.38,1.96-1.13v-4.28c-.41-.74-1.06-1.11-1.94-1.11-.72,0-1.28,.29-1.68,.85-.4,.57-.6,1.41-.6,2.52Z"/><path class="cls-2" d="M94.15,62.03c-1.39,0-2.51-.44-3.37-1.31s-1.29-2.04-1.29-3.49v-.27c0-.97,.19-1.84,.56-2.61,.37-.76,.9-1.36,1.58-1.79s1.43-.64,2.27-.64c1.33,0,2.35,.42,3.07,1.27,.72,.85,1.08,2.04,1.08,3.59v.88h-6.36c.07,.8,.33,1.44,.81,1.91s1.06,.7,1.78,.7c1,0,1.82-.41,2.45-1.22l1.18,1.13c-.39,.58-.91,1.03-1.56,1.35-.65,.32-1.38,.48-2.19,.48Zm-.26-8.34c-.6,0-1.08,.21-1.45,.63-.37,.42-.6,1-.71,1.75h4.17v-.16c-.05-.73-.24-1.29-.59-1.66-.34-.37-.82-.56-1.42-.56Z"/><path class="cls-2" d="M102.22,49.74v2.37h1.72v1.62h-1.72v5.44c0,.37,.07,.64,.22,.81,.15,.16,.41,.25,.79,.25,.25,0,.51-.03,.76-.09v1.69c-.5,.14-.98,.21-1.44,.21-1.68,0-2.52-.93-2.52-2.78v-5.52h-1.6v-1.62h1.6v-2.37h2.19Z"/></g><path class="cls-2" d="M102.7,28.72c-.85,0-1.59-.71-1.59-1.61s.74-1.6,1.59-1.6,1.59,.71,1.59,1.6-.75,1.61-1.59,1.61m0-3.04c-.79,0-1.39,.65-1.39,1.43s.6,1.44,1.39,1.44,1.38-.65,1.38-1.44-.6-1.43-1.38-1.43m.44,2.34l-.57-.77h-.28v.77h-.19v-1.81h.55c.45,0,.67,.16,.67,.49,0,.28-.25,.51-.52,.53l.59,.79h-.25Zm-.54-1.63h-.31v.7h.35c.31,0,.48-.12,.48-.38,0-.27-.27-.32-.52-.32"/><g><path class="cls-2" d="M104.06,34.63v-1.24c-6.47-6.45-15.06-10.01-24.19-10.01s-17.72,3.55-24.19,10.01v1.24c5.8-4.42,12.69-7.15,19.94-7.92l.37-.04-.34,.15c-3.64,1.66-6,5.3-6,9.29,0,5.63,4.58,10.21,10.21,10.21s10.21-4.58,10.21-10.21c0-3.99-2.35-7.64-6-9.29l-.34-.15,.37,.04c7.25,.77,14.14,3.51,19.94,7.92Zm-16.68,1.49c0,4.14-3.37,7.51-7.51,7.51s-7.51-3.37-7.51-7.51,3.37-7.51,7.51-7.51,7.51,3.37,7.51,7.51Z"/><path class="cls-2" d="M75.38,36.14c0,2.48,2.01,4.49,4.49,4.49s4.49-2.01,4.49-4.49-2.01-4.49-4.49-4.49-4.49,2.01-4.49,4.49Zm6.35,0c0,1.02-.83,1.86-1.86,1.86s-1.86-.83-1.86-1.86,.83-1.86,1.86-1.86,1.86,.83,1.86,1.86Z"/></g></g></g></g></svg>