<?xml version="1.0" encoding="UTF-8"?>
<svg id="Layer_1" data-name="Layer 1" xmlns="http://www.w3.org/2000/svg" viewBox="0 0 507 136">
  <defs>
    <style>
      .cls-1 {
        fill: #fff;
      }

      .cls-2 {
        fill: #bd311a;
      }
    </style>
  </defs>
  <rect class="cls-2" width="507" height="136"/>
  <g>
    <path class="cls-1" d="m389.25,36.12c0,.21-.02.42-.02.62,0,20.97,0,41.95,0,62.92,0,.32-.03.65-.05,1.01-.28.03-.48.08-.68.08-1.75,0-3.5.01-5.25,0-.59,0-.73-.14-.89-.68-1.08-3.56-2.15-7.13-3.23-10.69-1.95-6.43-3.92-12.86-5.87-19.28-.62-2.03-1.2-4.07-1.84-6.09-.44-1.39-.9-2.77-1.17-4.2-.02-.11-.09-.22-.26-.31-.04.43-.1.85-.1,1.28,0,7.31,0,14.62.01,21.93,0,5.25.02,10.5.02,15.75,0,.75-.03,1.49-.05,2.29-.26.05-.46.11-.66.11-1.85,0-3.71-.02-5.56-.04-.19,0-.37-.03-.63-.06-.02-.38-.06-.74-.07-1.11-.03-6.08-.06-12.16-.06-18.24,0-13.23,0-26.45,0-39.68,0-1.5.06-3,.1-4.5,0-.36,0-.73.01-1.09,2.21,0,4.42,0,6.62,0,.04.18.06.37.11.54.29.87.63,1.72.89,2.59.71,2.29,1.38,4.58,2.08,6.87,1.87,6.15,3.75,12.29,5.63,18.44,1.23,4.02,2.47,8.03,3.7,12.04.05.18.14.34.21.51.04-.02.09-.03.13-.05-.05-.62-.12-1.24-.13-1.86-.02-2.14-.03-4.29-.03-6.43,0-8.64-.01-17.28,0-25.92,0-2.25.09-4.49.14-6.74,2.29,0,4.58,0,6.88,0Z"/>
    <path class="cls-1" d="m351.25,36.13c-.03.31-.1.61-.1.91.02,3.04.06,6.08.07,9.12,0,.56-.08,1.11-.12,1.7h-10.78v52.9c-.41.03-.76.08-1.1.08-3.67,0-7.33,0-11,0-.35,0-.71.03-1.06.02-.21,0-.42-.07-.62-.11v-52.87h-10.65c-.06-.34-.14-.61-.14-.89.03-3.21.06-6.41.1-9.62,0-.42.02-.83.03-1.24,11.79,0,23.58,0,35.38,0Z"/>
    <path class="cls-1" d="m50.88,36.12c-.03.35-.09.69-.09,1.04,0,.58.09,1.16.09,1.74,0,19.98,0,39.95,0,59.93,0,.62-.04,1.24-.06,1.9-.32.04-.56.1-.8.1-2.02.01-4.04.02-6.06.02-.2,0-.4-.04-.63-.07-.03-.21-.08-.36-.08-.52-.01-1.29-.02-2.58-.02-3.87,0-7.04,0-14.08,0-21.12,0-1.33.07-2.66.11-4,0-.1-.02-.2-.04-.37-.2-.03-.4-.07-.6-.07-3.83-.01-7.67-.02-11.5-.03-.14,0-.28.02-.46.03,0,.8,0,1.56,0,2.33.02,7.48.04,14.96.05,22.43,0,1.4-.02,2.79-.05,4.19,0,.3-.08.6-.12.87-.75.25-6.75.16-7.36-.11,0-.2-.03-.43-.03-.66,0-20.52,0-41.04,0-61.55,0-.42.07-.83.08-1.25,0-.33-.04-.66-.06-.98,2.5,0,5,0,7.5,0-.03.26-.1.53-.09.79.02.77.09,1.54.09,2.31.02,5.6.04,11.2.04,16.8,0,2.56-.06,5.12-.09,7.67,0,.03.04.07.1.17h12.48c.02-.2.07-.42.06-.64-.03-1.14-.1-2.29-.1-3.43-.01-5.6-.02-11.2,0-16.8,0-2.29.09-4.58.14-6.87,2.5,0,5,0,7.5,0Z"/>
    <path class="cls-1" d="m309.62,36.12c0,.33,0,.66,0,.99,0,1.54.02,3.08.02,4.62,0,13.16,0,26.33,0,39.49,0,4.94,0,9.87,0,14.81,0,1.06.07,2.12.08,3.18,0,.49-.08.98-.11,1.44-.67.22-12.5.27-13.7.07-.03-.29-.1-.62-.1-.94,0-18.95,0-37.91,0-56.86,0-1.89.04-3.79.08-5.68,0-.31.09-.61.14-.96-.07-.04-.17-.1-.27-.17,4.62,0,9.25,0,13.87,0Z"/>
    <path class="cls-1" d="m155.87,36.12c-.04.28-.12.57-.11.85.03,1.54.11,3.08.12,4.62.02,4.1,0,8.21,0,12.31,0,.62-.03,1.25-.04,1.87,0,.16.02.31.03.58.18-.17.28-.26.38-.36,1.64-1.55,3.62-2.34,5.85-2.51,1.37-.1,2.75-.08,4.1.26,1.83.46,3.39,1.34,4.6,2.82.77.94,1.13,2.03,1.31,3.19.13.82.21,1.66.21,2.49,0,11.33,0,22.66,0,34,0,1.19.04,2.37.05,3.56,0,.29-.03.57-.05.91-.33.04-.61.1-.9.11-1.81.02-3.62.03-5.44.03-.18,0-.36-.04-.57-.06-.03-.18-.07-.32-.07-.46,0-4.83.03-9.67.03-14.5,0-6.31,0-12.62,0-18.94,0-1.5,0-3,0-4.5,0-.41-.08-.83-.12-1.24-.07-.77-.5-1.27-1.19-1.54-1.86-.72-3.65-.48-5.22.66-1.84,1.33-2.84,3.23-2.86,5.51-.06,9.23-.08,18.46-.11,27.68,0,2.08,0,4.17-.02,6.25,0,.33-.05.65-.09,1.07-2.27.08-4.49.06-6.76-.01-.01-.27-.03-.49-.03-.71-.01-3.96-.03-7.91-.04-11.87,0-6.89,0-13.79,0-20.68,0-5.79,0-11.58,0-17.37,0-3.96.02-7.92.05-11.87,0-.56.08-1.12.1-1.68,0-.15-.06-.31-.09-.47,2.29,0,4.58,0,6.87,0Z"/>
    <path class="cls-1" d="m121.62,36.12c-.02.16-.07.32-.06.49.02,1.14.07,2.29.07,3.43,0,19.72,0,39.44,0,59.16,0,.49.09,1-.17,1.55-2.21.14-4.45.05-6.75.1-.03-.29-.08-.53-.08-.77,0-16.66,0-33.32,0-49.98,0-3.08-.01-6.16.02-9.25.01-1.48.11-2.95.16-4.43,0-.1-.03-.2-.05-.3,2.29,0,4.58,0,6.88,0Z"/>
    <path class="cls-1" d="m442.06,75.83c-.11.5-.22,1-.32,1.49-.55,2.65-.8,5.35-1.12,8.04-.12,1.05-.36,2.09-.5,3.14-.14,1.11-.18,2.24-.33,3.36-.21,1.53-.5,3.04-.73,4.56-.17,1.13-.29,2.27-.45,3.4-.04.3-.15.59-.25.93h-5.82c-.1-.27-.23-.52-.28-.79-.6-3.36-1.18-6.72-1.79-10.08-.54-2.99-1.11-5.97-1.66-8.96-.49-2.66-.94-5.33-1.43-7.99-.51-2.83-1.06-5.64-1.57-8.47-.5-2.74-.96-5.49-1.45-8.24-.08-.47-.23-.93-.36-1.39-.06-.22-.13-.43-.2-.66.34-.24.68-.28,1.04-.28,1.58,0,3.17,0,4.75,0,.37,0,.75.02,1.06.29.15.88.29,1.77.45,2.64.66,3.58,1.28,7.17,2.01,10.74.51,2.46.84,4.96,1.57,7.39.38,1.28.45,2.66.66,4,.01.08.03.16.15.26.06-.3.18-.61.18-.91,0-1.93.56-3.79.74-5.69.33-3.46,1.1-6.86,1.34-10.34.09-1.32.43-2.63.59-3.95.15-1.22.23-2.44.34-3.67.02-.16.04-.33.06-.58.32-.06.63-.17.95-.17,1.44,0,2.87.04,4.31.08.3,0,.6.1.91.15.15,1.01.3,1.95.43,2.89.29,2.1.57,4.21.87,6.31.32,2.29.67,4.57,1,6.86.3,2.1.54,4.21.89,6.3.15.95.48,1.87.73,2.8.04,0,.08,0,.12,0,.04-.13.1-.26.11-.39.2-2.49.67-4.95,1.15-7.4.57-2.94,1.09-5.89,1.63-8.84.5-2.7,1-5.4,1.51-8.1.03-.14.09-.27.13-.39.63-.29,5.66-.31,6.47,0-.05.34-.08.71-.15,1.06-.23,1.18-.51,2.36-.72,3.55-.42,2.31-.8,4.63-1.22,6.95-.55,3.05-1.13,6.1-1.69,9.15-.52,2.89-1.02,5.78-1.55,8.66-.51,2.8-1.06,5.6-1.57,8.41-.25,1.39-.46,2.79-.69,4.19-.21,1.29-.42,2.59-.65,3.88-.04.24-.13.47-.21.74-1.97.13-3.89.09-5.84.03-.08-.23-.16-.4-.19-.58-.34-2.31-.66-4.61-1-6.92-.22-1.52-.48-3.04-.7-4.57-.42-2.88-.84-5.77-1.24-8.65-.14-1.03-.26-2.07-.36-3.1-.04-.36,0-.74,0-1.11-.05,0-.09-.01-.14-.02Z"/>
    <path class="cls-1" d="m92.52,69.04c-.24.04-.43.09-.63.1-1.79.02-3.58.04-5.37.05-.06,0-.12-.02-.29-.06-.15-.41-.38-.86-.46-1.34-.21-1.34-.47-2.68-.48-4.02-.03-2.13.45-4.18,1.56-6.04.84-1.41,2.11-2.35,3.58-3,2.2-.97,4.52-1.25,6.9-1.16,1.28.05,2.5.34,3.72.75,2.78.93,4.49,2.81,5.22,5.64.34,1.33.47,2.66.47,4.02,0,9.06,0,18.12.02,27.18,0,1.31.06,2.62.11,3.93.01.3.13.59.21.91,1.28-.02,2.3-.56,3.42-1.17,0,.39,0,.67,0,.95,0,1.02-.02,2.04,0,3.06.02.6-.22,1.04-.74,1.25-.78.32-1.59.61-2.41.84-.6.17-1.23.22-1.85.31-1.96.3-3.5-.67-4.13-2.52-.02-.05-.06-.1-.12-.18-.08.05-.15.08-.2.13-1.47,1.52-3.3,2.26-5.37,2.54-2.02.27-3.95-.04-5.82-.73-1.14-.42-1.99-1.27-2.76-2.19-1.41-1.68-2.14-3.66-2.43-5.8-.27-2.06-.52-4.14-.43-6.23.09-1.86.29-3.69.98-5.44.93-2.35,2.55-4.13,4.59-5.55,1.42-.99,2.92-1.84,4.49-2.58,1.67-.79,3.31-1.66,4.97-2.48.47-.23.51-.68.56-1.11.1-.83.17-1.66.24-2.49.16-1.82.06-3.62-.44-5.39-.41-1.44-1.34-2.27-2.82-2.45-.6-.07-1.21-.08-1.81-.03-1.55.15-2.99,1.55-3.14,3.11-.22,2.3-.13,4.58.56,6.8.03.09.04.19.08.35Zm7.31,6.48c-.67.3-1.25.59-1.84.81-1.43.53-2.66,1.36-3.83,2.31-.81.65-1.44,1.44-1.9,2.37-.61,1.22-.94,2.54-1.13,3.88-.24,1.66-.11,3.32-.03,4.99.06,1.33.43,2.59.91,3.8.41,1.03,1.11,1.87,2.33,2.01.51.06,1.04.1,1.56.07,1.39-.08,2.44-.74,3.13-1.96.53-.94.84-1.93.84-3.03.03-4.85-.14-9.7.12-14.55.01-.2-.1-.41-.17-.71Z"/>
    <path class="cls-1" d="m212.37,69.11h-6.23c-.12-.36-.32-.74-.38-1.13-.2-1.48-.44-2.97-.51-4.46-.07-1.46.26-2.9.77-4.28.78-2.07,2.25-3.52,4.23-4.47,1.35-.65,2.8-.95,4.27-1.12,1.68-.19,3.37-.2,5.03.21,1.29.32,2.56.73,3.67,1.52,1.68,1.21,2.57,2.91,3.02,4.88.28,1.22.39,2.46.39,3.72,0,9,0,18,0,27,0,1.37.07,2.75.12,4.12.01.28.11.56.18.88,1.29.06,2.29-.54,3.38-1.17.02.34.05.58.05.82,0,1.04-.04,2.09.03,3.12.05.81-.34,1.24-1,1.54-.98.44-2.01.68-3.06.83-.68.09-1.33.27-2.04.18-1.5-.19-2.35-1.13-2.99-2.37-.05-.09-.08-.19-.13-.33-.17.13-.33.23-.46.36-1.43,1.37-3.16,2.01-5.09,2.28-2.01.28-3.95-.04-5.83-.72-1.14-.41-2.05-1.19-2.79-2.15-1.28-1.65-2.07-3.52-2.34-5.58-.23-1.73-.34-3.48-.45-5.22-.11-1.74.08-3.46.46-5.15.51-2.25,1.6-4.19,3.33-5.74,1.31-1.18,2.77-2.14,4.33-2.94,2.3-1.18,4.62-2.31,6.93-3.46.07-.04.15-.08.27-.14.06-.21.16-.44.18-.68.11-1.47.22-2.95.31-4.42.07-1.2-.1-2.38-.41-3.52-.4-1.47-1.35-2.41-2.89-2.68-.79-.14-1.58-.11-2.36.08-1.16.28-2.54,1.44-2.61,3.5-.07,2,0,4,.48,5.96.05.22.08.44.14.75Zm7.4,6.36c-.68.32-1.24.6-1.81.83-1.3.53-2.48,1.26-3.6,2.1-.64.49-1.18,1.05-1.63,1.71-1.04,1.54-1.57,3.27-1.71,5.09-.14,1.76-.24,3.53-.05,5.3.13,1.24.45,2.41,1.04,3.51.57,1.06,1.39,1.76,2.67,1.73.12,0,.25.02.37.03,1.67.13,2.95-.53,3.86-1.92.69-1.05.89-2.22.89-3.45.02-4.7.05-9.41.06-14.11,0-.24-.05-.48-.09-.82Z"/>
    <path class="cls-1" d="m281.29,79.14h-15.92c-.03.17-.08.31-.08.44,0,3.13.3,6.24.53,9.35.07.91.18,1.82.32,2.73.15,1.02.6,1.94,1.12,2.83.53.92,1.42,1.34,2.38,1.59,1.36.35,2.68.16,3.96-.43.46-.21.75-.54.94-1.02.48-1.26.76-2.56.83-3.89.11-2.25.11-4.5-.2-6.73-.05-.38-.05-.76-.07-1.24,2.09.14,4.08.15,6.12.39.12.5.28.95.34,1.41.35,2.78.56,5.57.07,8.34-.21,1.2-.57,2.4-1.07,3.51-1.13,2.48-3.19,3.88-5.77,4.57-1.79.48-3.62.54-5.45.31-.91-.11-1.81-.28-2.71-.44-2.1-.37-3.64-1.59-4.84-3.27-1.09-1.53-1.73-3.25-2.16-5.08-1-4.31-1.21-8.69-1.14-13.09.03-1.85,0-3.71.02-5.56.03-2.84.48-5.64.94-8.43.24-1.5.53-2.99,1.06-4.42.31-.84.65-1.67,1.04-2.47,1.17-2.39,3.12-3.88,5.64-4.58,2.03-.56,4.12-.64,6.18-.13,3.05.74,5.1,2.67,6.39,5.49.77,1.69,1.05,3.49,1.38,5.3.61,3.4.71,6.83.59,10.27-.04,1.08-.14,2.16-.24,3.24-.03.33-.12.65-.2,1.04Zm-6.5-5.18c.03-.11.07-.21.07-.31.12-3.23.15-6.45-.25-9.67-.17-1.38-.56-2.69-1.43-3.81-1.08-1.39-3.06-1.78-4.48-.88-.77.48-1.25,1.22-1.61,2.02-.53,1.2-.95,2.46-1.09,3.77-.3,2.81-.5,5.64-.73,8.46-.01.13.03.27.04.42h9.48Z"/>
    <path class="cls-1" d="m419.18,79.14h-15.89c-.03.2-.06.36-.06.52,0,1.87-.06,3.75.02,5.62.06,1.47.28,2.94.43,4.41.06.6.12,1.2.18,1.8.09,1.06.53,2,1.02,2.93.56,1.07,1.59,1.44,2.64,1.7,1.27.32,2.53.09,3.73-.4.69-.28,1.06-.88,1.24-1.56.25-.94.45-1.9.62-2.86.41-2.34.27-4.69-.07-7.03-.06-.42-.06-.85-.08-1.25.84-.3,5.3.01,6.07.42.14.78.32,1.62.42,2.46.39,3.11.25,6.19-.7,9.21-.36,1.14-.87,2.21-1.63,3.14-1.33,1.63-3.12,2.46-5.13,2.87-2.92.61-5.81.32-8.63-.54-1.39-.42-2.48-1.32-3.38-2.47-1.36-1.72-2.11-3.7-2.61-5.81-.56-2.36-.79-4.76-.98-7.17-.25-3.24-.21-6.49-.13-9.74.05-2.04.13-4.08.37-6.11.36-3.01.81-6.02,1.86-8.9.64-1.75,1.55-3.3,2.98-4.54,1.68-1.46,3.66-2.11,5.82-2.29,1.31-.11,2.63-.07,3.91.26,2.71.7,4.71,2.31,6.01,4.79.88,1.68,1.43,3.46,1.64,5.34.24,2.19.47,4.39.66,6.58.14,1.58.05,3.16-.09,4.74-.09,1.06-.14,2.12-.21,3.17-.01.22-.03.44-.04.72Zm-6.49-5.11c.02-.34.05-.56.05-.79.01-1.52.06-3.04.02-4.56-.04-1.66-.1-3.33-.28-4.98-.16-1.47-.76-2.8-1.79-3.9-.57-.61-1.26-.94-2.1-.95-.23,0-.46,0-.69,0-.76-.05-1.38.25-1.89.8-.28.3-.55.63-.76.98-.92,1.55-1.38,3.24-1.52,5.03-.2,2.44-.4,4.89-.6,7.33-.02.28,0,.56,0,.91,3.22.04,6.35.09,9.56.13Z"/>
    <path class="cls-1" d="m78.83,79.15h-3.27c-1.04,0-2.08,0-3.12,0-1.06,0-2.12,0-3.19,0-1.04,0-2.08,0-3.12,0-1.06,0-2.11,0-3.22,0-.03.38-.07.66-.06.95.04,2.25.1,4.5.15,6.75.04,1.99.33,3.94.84,5.86.62,2.34,1.95,3.43,4.63,3.55.49.02,1-.07,1.48-.17,1.47-.3,2.18-1.35,2.54-2.7.13-.48.18-.98.22-1.48.16-2.41.22-4.83.04-7.24-.03-.37-.1-.74-.13-1.12-.02-.2,0-.4,0-.57.94-.34,5.48-.06,6.21.37.05.22.13.48.16.75.28,3.12.42,6.23-.1,9.34-.27,1.66-.89,3.17-1.9,4.5-1.23,1.61-2.89,2.59-4.87,3.06-3.04.72-6.05.48-9-.41-1.62-.49-2.86-1.59-3.83-2.97-1.06-1.5-1.65-3.21-2.15-4.96-.45-1.57-.54-3.2-.71-4.81-.16-1.55-.39-3.1-.44-4.66-.08-2.7-.12-5.42-.03-8.12.08-2.37.35-4.73.56-7.1.17-1.89.62-3.73,1.05-5.58.3-1.29.75-2.52,1.37-3.67,1.34-2.48,3.32-4.23,6.11-4.87,2.75-.64,5.46-.49,8.04.79,1.62.8,2.81,2.06,3.67,3.64.87,1.59,1.39,3.3,1.74,5.06.47,2.31.67,4.66.74,7.01.09,2.67-.12,5.33-.29,7.99-.02.24-.06.48-.1.81Zm-6.51-5.2c.26-.33.21-.74.21-1.12-.01-2.31-.02-4.62-.06-6.93-.03-1.77-.43-3.47-1.22-5.05-.23-.47-.6-.9-.97-1.28-.68-.69-1.59-.72-2.5-.74-.88-.02-1.57.3-2.17.91-.64.65-1.06,1.44-1.35,2.29-1.03,3.02-1.4,6.15-1.37,9.33,0,.62-.03,1.25-.04,1.87,0,.24,0,.48,0,.72h9.46Z"/>
    <path class="cls-1" d="m478.61,69.47c.81-2.1.93-4.21.77-6.34-.06-.87-.41-1.65-.85-2.39-.28-.46-.67-.79-1.16-1.01-1.29-.58-2.59-.7-3.94-.2-1.66.62-2.76,2.07-2.8,3.83-.02.77.02,1.54.06,2.31.1,1.77,1.01,3.11,2.33,4.18,1.15.93,2.35,1.79,3.55,2.65,1.87,1.33,3.76,2.63,5.46,4.17,1.14,1.03,2.27,2.1,3.08,3.43,1.07,1.76,1.64,3.67,1.78,5.73.17,2.39.05,4.75-.52,7.07-.52,2.11-1.42,4.03-3.03,5.58-1.44,1.38-3.12,2.23-5.08,2.63-2.81.57-5.57.41-8.25-.53-1.97-.7-3.54-1.97-4.55-3.88-.83-1.58-1.14-3.27-1.2-5-.06-1.89.09-3.78.15-5.68.01-.39.05-.79.08-1.18.06-.9.27-1.11,1.18-1.2.68-.07,1.37-.15,2.05-.22.99-.1,1.99-.2,2.98-.3.14-.01.28,0,.45,0,0,.14.01.24,0,.34-.24,1.6-.51,3.21-.73,4.81-.14,1.07-.3,2.16-.05,3.23.16.73.37,1.46.67,2.13.39.88,1.12,1.43,2.07,1.66,1.24.3,2.49.32,3.72.06,1.43-.31,2.46-1.12,2.71-2.66.32-1.9.44-3.81.16-5.72-.2-1.37-.9-2.49-1.74-3.55-.85-1.07-1.85-1.98-2.94-2.79-1.67-1.25-3.36-2.46-5.04-3.68-1.41-1.02-2.65-2.21-3.79-3.53-1.17-1.35-1.72-2.97-2.08-4.68-.44-2.08-.26-4.13.17-6.19.35-1.68.91-3.25,1.92-4.64,1.49-2.06,3.52-3.36,5.95-3.99,2.6-.67,5.19-.67,7.7.46,2.7,1.22,4.24,3.35,4.88,6.17.51,2.26.49,4.55.2,6.83-.07.52-.11,1.04-.21,1.55-.1.52-.3.69-.8.71-1.44.07-2.87.12-4.31.18-.19,0-.39.02-.56-.04-.17-.06-.31-.2-.46-.3Z"/>
    <path class="cls-1" d="m198.25,71.87h-6.52c.03-.36.02-.69.09-1,.4-2.05.62-4.11.44-6.21-.11-1.29-.33-2.56-.72-3.79-.27-.84-.83-1.37-1.63-1.68-.69-.27-1.41-.35-2.15-.29-.71.06-1.25.43-1.69.96-.55.67-.95,1.41-1.19,2.25-.57,2.01-1,4.03-1.03,6.14-.03,2.79-.18,5.58-.25,8.37-.09,4.04.1,8.08.42,12.11.12,1.59.57,3.11,1.04,4.62.05.16.12.31.2.46.76,1.56,1.91,2.45,3.74,2.38,1.02-.03,1.83-.37,2.46-1.13.55-.67.91-1.45,1.03-2.31.1-.66.2-1.32.23-1.98.17-3.19.1-6.37-.2-9.55-.02-.21-.03-.41-.04-.58.16-.3.38-.37.65-.35,1.6.08,3.2.16,4.8.24.14,0,.29.02.52.04.09.19.27.39.29.61.26,2.4.93,4.74.85,7.18-.05,1.59-.26,3.15-.53,4.71-.09.51-.19,1.02-.3,1.53-.81,3.69-3.12,5.8-6.79,6.52-2.86.56-5.68.31-8.46-.49-1.05-.31-1.89-.96-2.65-1.71-1.66-1.62-2.62-3.63-3.12-5.87-.62-2.77-1.04-5.57-1.22-8.39-.1-1.47-.1-2.95-.15-4.43-.03-.71-.11-1.41-.1-2.12.02-1.5.06-3,.13-4.49.09-1.85.14-3.71.34-5.55.18-1.67.55-3.32.83-4.98.2-1.2.58-2.34,1.03-3.46.57-1.41,1.43-2.63,2.52-3.69,1.2-1.17,2.7-1.82,4.3-2.15,1.95-.4,3.94-.47,5.89,0,1.71.41,3.35,1.02,4.63,2.32.91.93,1.49,2.05,1.92,3.26.68,1.92,1.05,3.9,1.02,5.94-.02,1.56-.08,3.12-.15,4.68-.02.43-.14.86-.24,1.29-.05.19-.15.37-.26.62Z"/>
    <path class="cls-1" d="m129.84,59.63c-.77,0-1.47,0-2.17,0-.7,0-1.41.04-2.14-.06v-5.51c.31-.06.6-.17.9-.17.77,0,1.54.04,2.31.06.35,0,.69,0,1.08,0,.01-.21.03-.39.03-.58-.02-3.19-.05-6.37-.08-9.56,0-.52-.04-1.04-.03-1.56,0-.28.08-.55.12-.81h6.9c.03.36.09.68.09,1,0,2.83,0,5.67-.01,8.5,0,.81-.05,1.62-.07,2.43,0,.14.02.28.03.49.2.01.38.03.56.03,1.81,0,3.62,0,5.44.01.3,0,.61.08.88.12.26.76.25,4.81-.02,5.52-.19.02-.43.08-.67.08-1.89-.03-3.79-.07-5.68-.1-.2,0-.4,0-.62,0-.02.18-.04.28-.04.38.06,1.83.19,3.66.19,5.49.02,9.06,0,18.12.01,27.18,0,.27.01.54.02.81.02,1.03.33,1.62,1.76,1.86.94.16,1.87.04,2.79-.18.73-.18,1.45-.39,2.16-.61.7-.22,1.36-.52,1.87-1.12.35.22.4.56.42.87.08,1.54.17,3.08.04,4.62-.03.39-.26.58-.57.75-1.29.7-2.63,1.21-4.08,1.52-2.32.49-4.59.42-6.85-.28-1.71-.53-2.93-1.62-3.66-3.25-.52-1.15-.78-2.38-.84-3.63-.07-1.64-.12-3.29-.12-4.93-.01-9.08,0-18.16,0-27.25,0-.48.05-.96.08-1.43.01-.24,0-.48,0-.69Z"/>
    <path class="cls-1" d="m241.28,56.55c.46-.1.72-.39,1.01-.66,1.82-1.71,3.96-2.6,6.47-2.41,2.42.18,4.2,1.37,5.24,3.58.67,1.41,1,2.91,1.07,4.47.12,2.71.1,5.41-.16,8.11-.1,1.05-.26,2.11-.41,3.15-.04.3-.18.58-.28.91-2.16.24-4.28.13-6.4.32-.16-.35-.07-.65,0-.95.84-3.1,1.05-6.28,1.03-9.47,0-.78-.19-1.57-.35-2.34-.16-.77-.68-1.2-1.47-1.34-.91-.16-1.75-.04-2.5.5-1.65,1.2-2.53,2.87-2.76,4.85-.16,1.4-.18,2.83-.18,4.24-.01,9.62,0,19.25,0,28.87,0,.56-.03,1.12-.06,1.69-.01.2-.06.4-.1.67-.29.03-.55.09-.81.09-1.81.02-3.62.03-5.44.03-.22,0-.44-.07-.65-.1v-46.72c.46-.05.87-.14,1.27-.13,1.58.01,3.16.05,4.75.08.22,0,.45.03.7.05.27.83.1,1.64.05,2.51Z"/>
  </g>
</svg>