<?xml version="1.0" encoding="UTF-8"?>
<svg id="Layer_1" data-name="Layer 1" xmlns="http://www.w3.org/2000/svg" viewBox="0 0 291.76 38.2">
  <defs>
    <style>
      .cls-1 {
        fill: #003974;
      }
    </style>
  </defs>
  <path class="cls-1" d="m33.44,36.76c0,1.21-.37,1.44-1.51,1.39-2.49-.1-4.99-.03-7.59-.03-.03-.44-.07-.84-.07-1.24-.01-4.5-.04-9,0-13.5.01-.93-.27-1.22-1.2-1.21-4.17.04-8.33.04-12.5,0-.93,0-1.21.29-1.2,1.22.05,4.29.03,8.59.04,12.88.01,1.95.02,1.91-1.87,1.84-1.87-.06-3.75-.01-5.62-.05-1.53-.03-1.92-.44-1.92-1.95V.86C0,.5.05.14.05.04,2.82.04,5.47.08,8.13.02c.99-.02,1.3.32,1.29,1.3-.05,3.91,0,7.83-.06,11.75-.01.92.22,1.23,1.18,1.22,4.21-.04,8.42-.04,12.62,0,.88,0,1.15-.28,1.14-1.15-.05-3.95,0-7.91-.06-11.87-.02-.95.32-1.27,1.2-1.26,2.3.03,4.59.04,6.88.02.82,0,1.11.3,1.09,1.1-.04,1.83-.03,3.67-.02,5.5,0,10.04,0,20.08.05,30.13Z"/>
  <polygon class="cls-1" points="216.88 .23 216.88 38.09 208.06 38.09 208.06 22.29 192.97 22.29 192.97 38.1 184.13 38.1 184.13 .2 192.92 .2 192.92 14.18 207.97 14.18 207.97 .23 216.88 .23"/>
  <path class="cls-1" d="m113.93,33.18c-2.84-6.78-5.67-13.57-8.5-20.36-1.63-3.91-3.31-7.81-4.88-11.75-.28-.71-.58-1-1.3-1-1.96-.01-3.91-.04-5.87-.06-2.11-.02-2.07,0-2.86,1.92-4.36,10.47-8.74,20.94-13.12,31.41-.64,1.55-1.3,3.1-1.99,4.71,3.09,0,6,.05,8.9-.05.51-.01,1.26-.55,1.44-1.03.72-1.8,1.29-3.67,1.84-5.54.26-.88.75-1.13,1.64-1.12,4.2.07,8.41.11,12.61.06.88,0,1.25.24,1.53,1.04.68,1.91,1.39,3.82,2.22,5.68.2.46.88.97,1.35.98,2.91.09,5.82.05,9.14.05-.77-1.77-1.48-3.34-2.15-4.94Zm-23.3-9.99c1.65-4.41,3.23-8.65,4.81-12.89.13,0,.27.02.41.03,1.52,4.25,3.05,8.49,4.62,12.86h-9.84Z"/>
  <path class="cls-1" d="m71.06,37.43c-.01.25-.65.68-.99.68-7.17.01-14.33-.03-21.5-.05-.95-.01-1.92.01-2.86.12-.92.11-1.16-.26-1.14-1.12.04-2.95.04-5.91.04-8.87,0-8.87-.02-17.75-.08-26.62,0-1.19.31-1.58,1.55-1.57,7.45.06,14.91.06,22.37.02,1.18-.01,1.6.3,1.53,1.53-.1,1.7-.05,3.42.05,5.12.06,1.01-.3,1.3-1.27,1.29-4.54-.05-9.08-.05-13.62-.05-1.72,0-1.73,0-1.74,1.78,0,1.33.06,2.66,0,3.99-.04.9.3,1.16,1.15,1.16,4.41,0,8.83.05,13.24,0,.95,0,1.26.23,1.24,1.16-.04,2.02-.01,4.05-.01,6.19h-1.77c-4.21,0-8.41.02-12.62,0-.95,0-1.34.22-1.28,1.26.1,1.83.11,3.67.04,5.5-.03,1.05.3,1.36,1.34,1.35,4.92-.04,9.83-.02,14.75-.02h1.62c0,2.46.03,4.81-.04,7.16Z"/>
  <path class="cls-1" d="m176.43,6.82c0,.8-.28,1.1-1.1,1.09-2.62-.03-5.25,0-7.87,0h-1.57v2.3c0,8.79,0,17.57.02,26.36,0,1.57-.06,1.6-1.59,1.57-2.21-.03-4.41-.05-6.61.03-.93.04-1.14-.3-1.13-1.14.03-9.2,0-18.4.07-27.61,0-1.16-.23-1.6-1.49-1.56-2.98.09-5.98.03-9.09.03V.14c.53-.04,1.01-.11,1.5-.11,9.16,0,18.32.01,27.48-.03,1.01,0,1.43.25,1.39,1.32-.07,1.83-.05,3.67,0,5.5h0Z"/>
  <path class="cls-1" d="m291.76,1.45c-.08,1.75-.07,3.5,0,5.25.04.97-.36,1.22-1.24,1.22-2.75-.03-5.5.04-8.25-.02-1.03-.02-1.34.29-1.34,1.33.04,9.13.03,18.25.03,27.37v1.5h-8.92v-1.42c0-9.12-.02-18.24.02-27.37,0-1.09-.29-1.44-1.4-1.41-2.75.07-5.5,0-8.25.04-.94,0-1.21-.3-1.16-1.23.08-1.79.11-3.59,0-5.37-.07-1.25.55-1.35,1.5-1.34,6.54.01,13.08.01,19.62.01,2.67.01,5.33.06,8,0,1.11-.03,1.44.36,1.39,1.44Z"/>
  <path class="cls-1" d="m146.25,37.06c0,.76-.17,1.11-1.05,1.11-7.29-.03-14.58-.01-21.87-.01-.21,0-.41-.03-.84-.07v-1.57c0-11.71.01-23.42-.04-35.13-.01-1.14.37-1.43,1.43-1.39,2.12.07,4.25.09,6.37.03,1.11-.03,1.43.36,1.42,1.45-.03,9.12,0,18.25-.03,27.38,0,1.11.3,1.43,1.4,1.42,4-.06,8,0,12-.05.91,0,1.24.24,1.2,1.2-.07,1.87-.03,3.75,0,5.63h0Z"/>
  <path class="cls-1" d="m253.97,36.73c0,1.13-.26,1.49-1.45,1.44-2.49-.11-4.99-.03-7.68-.03-.03-.49-.07-.89-.07-1.3,0-11.74.03-23.49-.02-35.24,0-1.3.4-1.64,1.64-1.58,2.04.09,4.08.02,6.12.03.45,0,.89.06,1.44.11v1.2c0,11.79,0,23.58.02,35.37Z"/>
</svg>