<?xml version="1.0" encoding="UTF-8"?>
<svg id="Layer_1" data-name="Layer 1" xmlns="http://www.w3.org/2000/svg" viewBox="0 0 260.99 260.99">
  <defs>
    <style>
      .cls-1 {
        fill: #959696;
      }

      .cls-2 {
        fill: #753043;
      }
    </style>
  </defs>
  <path class="cls-2" d="m28.38,131.88c1.51,0,4.39-5.49,6.12-8.78,4.09-7.73,8.98-11.25,15.28-11.41,9.77.13,14.93,10.47,17.15,14.88l7.78,15.6,18.4-62.23c2.4-9.35,7.08-14.51,13.5-13.86,6.52.26,10.71,5.38,12.41,15.21l18.59,89.72,13.46-43.05c3.01-11.27,9.88-13.74,13.72-14.16,3.8-.44,11.08.41,16.76,11.04.02.04,6.18,11.69,9.02,16.67.37.63.7,1.18,1,1.66l1.22-1.25c4.09-4.44,9.18-9.99,18.42-9.99h49.73c0-.48.07-.94.07-1.42C260.99,58.43,202.57,0,130.5,0S0,58.43,0,130.5c0,.47.07.93.07,1.4l28.31-.02Z"/>
  <path class="cls-1" d="m211.19,150.8c-.76,0-1.36.46-4.5,3.89-1.07,1.16-2.23,2.41-3.52,3.71-1.64,1.62-6.56,6.45-13.85,5.64-7.3-1-11.76-7.23-15.17-13.2-1.7-2.97-4.55-8.26-6.66-12.19l-18.11,57.95c-2.4,8.98-6.82,13.7-13.07,13.7-.18,0-.39-.02-.57-.02-6.55-.3-10.73-5.42-12.43-15.23l-18.36-88.61-13.85,46.85c-3.06,12-10.73,14.11-13.88,14.44-3.1.3-11.01-.13-16.54-11.39l-10.66-21.33c-.07-.17-.15-.31-.22-.46-4.15,7.62-9.96,16.23-21.42,16.23H1.73c9.76,62.43,63.61,110.23,128.76,110.23s118.99-47.79,128.76-110.2h-48.07Z"/>
</svg>