<?xml version="1.0" encoding="UTF-8"?>
<svg id="Layer_1" data-name="Layer 1" xmlns="http://www.w3.org/2000/svg" viewBox="0 0 893.07 271.94">
  <defs>
    <style>
      .cls-1 {
        fill: #959696;
      }

      .cls-2 {
        fill: #753043;
      }
    </style>
  </defs>
  <path class="cls-2" d="m323.15,48.44c2.23,0,3.35,1.12,3.35,3.35v39.52h71.13v-39.52c0-2.23,1.12-3.35,3.34-3.35h16.42c2.33,0,3.49,1.12,3.49,3.35v99.71c0,2.23-1.16,3.35-3.49,3.35h-16.42c-2.22,0-3.34-1.11-3.34-3.35v-40.43h-71.13v40.43c0,2.23-1.12,3.35-3.35,3.35h-16.41c-2.34,0-3.5-1.11-3.5-3.35V51.79c0-2.23,1.16-3.35,3.5-3.35h16.41Z"/>
  <path class="cls-2" d="m460.86,48.44c2.23,0,3.35,1.12,3.35,3.35v99.71c0,2.23-1.12,3.35-3.35,3.35h-16.41c-2.34,0-3.5-1.11-3.5-3.35V51.79c0-2.23,1.16-3.35,3.5-3.35h16.41Z"/>
  <path class="cls-2" d="m507.67,102.25h58.22c5.17,0,8.82-1.11,10.95-3.35,2.12-2.23,3.19-5.62,3.19-10.18v-5.78c0-4.56-1.07-7.95-3.19-10.18-2.13-2.23-5.78-3.34-10.95-3.34h-56.24c-1.31,0-1.98.61-1.98,1.83v31.01Zm62.93-53.81c11.65,0,20.01,2.64,25.08,7.91,5.07,5.27,7.6,13.07,7.6,23.41v11.25c0,10.33-2.52,18.14-7.6,23.41-5.06,5.27-13.43,7.9-25.08,7.9h-62.93v29.19c0,2.23-1.12,3.34-3.34,3.34h-16.42c-2.33,0-3.49-1.11-3.49-3.34V53c0-3.04,1.51-4.56,4.56-4.56h81.62Z"/>
  <path class="cls-2" d="m641.13,115.63h52.28l-24.17-44.53c-.41-.71-.97-1.06-1.66-1.06h-.92c-.71,0-1.27.36-1.66,1.06l-23.87,44.53Zm29.49-67.18c3.85,0,7.09.78,9.73,2.36,2.63,1.57,5.21,4.64,7.75,9.2l50.32,91.35c.5,1.01.63,1.85.37,2.51-.26.66-.99.99-2.2.99h-19.3c-1.72,0-2.89-.66-3.49-1.98l-10.8-19.61h-71.44l-10.49,19.61c-.71,1.32-1.89,1.98-3.5,1.98h-19.76c-1.32,0-2.11-.33-2.35-.99-.26-.66-.13-1.5.37-2.51l49.86-91.35c2.53-4.56,5.02-7.63,7.45-9.2,2.43-1.57,5.26-2.36,8.51-2.36h8.97Z"/>
  <path class="cls-2" d="m795.28,115.63h52.3l-24.17-44.53c-.41-.71-.97-1.06-1.68-1.06h-.91c-.71,0-1.27.36-1.68,1.06l-23.87,44.53Zm29.49-67.18c3.85,0,7.1.78,9.73,2.36,2.64,1.57,5.22,4.64,7.76,9.2l50.3,91.35c.51,1.01.63,1.85.38,2.51-.26.66-.99.99-2.21.99h-19.3c-1.72,0-2.89-.66-3.49-1.98l-10.79-19.61h-71.45l-10.48,19.61c-.71,1.32-1.87,1.98-3.49,1.98h-19.76c-1.33,0-2.11-.33-2.36-.99-.26-.66-.13-1.5.38-2.51l49.85-91.35c2.54-4.56,5.02-7.63,7.45-9.2,2.43-1.57,5.27-2.36,8.52-2.36h8.96Z"/>
  <g>
    <path class="cls-1" d="m318.73,181.96v51.41c0,7.04-2.49,13.05-7.48,18.04-4.99,5-11.01,7.49-18.04,7.49v-8.33c4.75,0,8.81-1.69,12.18-5.07,3.34-3.34,5.02-7.38,5.02-12.13v-43.08h-12.72v-8.34h21.04Z"/>
    <path class="cls-1" d="m369.61,197.73c-6.08,6.09-9.12,13.4-9.12,21.94s3.04,15.86,9.12,21.94c6.04,6.04,13.35,9.07,21.94,9.07s15.84-3.03,21.89-9.07c6.08-6.09,9.12-13.4,9.12-21.94s-3.04-15.85-9.12-21.94c-6.05-6.04-13.34-9.07-21.89-9.07s-15.89,3.03-21.94,9.07m6.65,58.12c-4.68-2.01-8.83-4.82-12.45-8.43-3.63-3.62-6.44-7.77-8.44-12.45-2.08-4.89-3.11-9.99-3.11-15.3s1.03-10.39,3.11-15.24c2.01-4.71,4.81-8.88,8.44-12.5,3.62-3.62,7.76-6.42,12.45-8.38,4.85-2.08,9.95-3.11,15.29-3.11s10.4,1.04,15.25,3.11c4.67,1.96,8.83,4.76,12.44,8.38,3.66,3.62,6.47,7.79,8.44,12.5,2.08,4.85,3.11,9.94,3.11,15.24s-1.03,10.41-3.11,15.3c-1.97,4.67-4.78,8.83-8.44,12.45-3.61,3.62-7.76,6.43-12.44,8.43-4.85,2.04-9.94,3.06-15.25,3.06s-10.44-1.02-15.29-3.06"/>
    <path class="cls-1" d="m527.85,181.91v45.99c0,8.54-3.04,15.86-9.12,21.94-6.05,6.05-13.34,9.07-21.89,9.07s-15.89-3.03-21.94-9.07c-6.04-6.08-9.07-13.4-9.07-21.94v-45.99h8.23v45.99c0,6.25,2.23,11.62,6.7,16.08,4.43,4.43,9.79,6.65,16.08,6.65s11.6-2.22,16.03-6.65c4.47-4.47,6.7-9.83,6.7-16.08v-45.99h8.29Z"/>
    <path class="cls-1" d="m573.02,190.3v36.49h18.25c5.07,0,9.37-1.78,12.92-5.33,3.56-3.59,5.33-7.89,5.33-12.92s-1.77-9.32-5.33-12.87c-3.55-3.58-7.85-5.37-12.92-5.37h-18.25Zm30.9,41.66c4.22,2.78,7.56,6.4,10.02,10.87,2.49,4.57,3.74,9.47,3.74,14.71v.05h-8.33v-.05c0-6.16-2.18-11.43-6.54-15.82-4.4-4.39-9.69-6.59-15.87-6.59h-13.92v22.47h-8.33v-75.63h26.58c7.35,0,13.62,2.61,18.83,7.81,5.2,5.21,7.8,11.46,7.8,18.78,0,4.95-1.3,9.56-3.9,13.82-2.5,4.07-5.85,7.27-10.07,9.59"/>
    <path class="cls-1" d="m715.54,259.22l-54.27-57.69v56.06h-8.33v-77.1l54.27,57.75v-56.27h8.33v77.26Z"/>
    <path class="cls-1" d="m790.14,235.33l-12.6-31.22-12.6,31.22h25.21Zm17.99,22.26h-8.97l-5.64-13.98h-31.96l-5.64,13.98h-8.97l30.59-75.68,30.59,75.68Z"/>
    <path class="cls-1" d="m848.24,249.25h38.87v8.34h-47.2v-75.63h8.34v67.29Z"/>
  </g>
  <path class="cls-2" d="m28.38,142.83c1.51,0,4.39-5.49,6.12-8.78,4.09-7.73,8.98-11.25,15.28-11.41,9.77.13,14.93,10.47,17.15,14.88l7.78,15.6,18.4-62.23c2.4-9.35,7.08-14.51,13.5-13.86,6.52.26,10.71,5.38,12.41,15.21l18.59,89.72,13.46-43.05c3.01-11.27,9.88-13.74,13.72-14.16,3.8-.44,11.08.41,16.76,11.04.02.04,6.18,11.69,9.02,16.67.37.63.7,1.18,1,1.66l1.22-1.25c4.09-4.44,9.18-9.99,18.42-9.99h49.73c0-.48.07-.94.07-1.42,0-72.07-58.43-130.5-130.5-130.5S0,69.37,0,141.44c0,.47.07.93.07,1.4l28.31-.02Z"/>
  <path class="cls-1" d="m211.19,161.74c-.76,0-1.36.46-4.5,3.89-1.07,1.16-2.23,2.41-3.52,3.71-1.64,1.62-6.56,6.45-13.85,5.64-7.3-1-11.76-7.23-15.17-13.2-1.7-2.97-4.55-8.26-6.66-12.19l-18.11,57.95c-2.4,8.98-6.82,13.7-13.07,13.7-.18,0-.39-.02-.57-.02-6.55-.3-10.73-5.42-12.43-15.23l-18.36-88.61-13.85,46.85c-3.06,12-10.73,14.11-13.88,14.44-3.1.3-11.01-.13-16.54-11.39l-10.66-21.33c-.07-.17-.15-.31-.22-.46-4.15,7.62-9.96,16.23-21.42,16.23H1.73c9.76,62.43,63.61,110.23,128.76,110.23s118.99-47.79,128.76-110.2h-48.07Z"/>
  <path class="cls-2" d="m338.92.07c.71,0,1.07.34,1.07,1v4.46c-.01.7-.37,1.05-1.08,1.05l-14.62-.03-.05,24.33c0,.67-.34,1-1.03,1h-5.07c-.68-.01-1.02-.35-1.02-1.01l.05-24.34-14.61-.03c-.72,0-1.07-.35-1.07-1.05V1c.01-.67.37-1,1.08-1l36.35.07Z"/>
  <path class="cls-2" d="m350.23.1c.68,0,1.02.34,1.02,1l-.03,11.83,21.78.04.02-11.83c0-.67.34-1,1.03-1h5.02c.72.01,1.07.35,1.07,1.01l-.06,29.84c0,.67-.36,1-1.07,1h-5.03c-.68-.01-1.02-.34-1.02-1.01l.02-12.1-21.78-.05-.03,12.1c0,.67-.34,1-1.03,1h-5.03c-.71-.01-1.07-.35-1.07-1.02l.06-29.84c0-.67.36-1,1.07-1h5.03Z"/>
  <path class="cls-2" d="m419.44.24c.71,0,1.07.34,1.07,1v4.32c-.01.67-.37,1-1.08,1l-20.34-.04c-1.21,0-2.21.09-3,.29-.79.2-1.43.53-1.91,1-.48.47-.82,1.11-1,1.91-.19.8-.28,1.8-.28,2.98v.46s26.3.05,26.3.05c.68,0,1.02.34,1.02,1v3.59c0,.67-.35,1-1.04,1l-26.3-.05v.77c0,1.18.09,2.18.27,2.98.18.8.52,1.44,1,1.91.48.47,1.12.81,1.91,1,.79.2,1.79.3,3,.3l20.34.04c.71,0,1.07.34,1.07,1v4.32c-.01.67-.37,1-1.08,1l-20.48-.04c-2.36,0-4.36-.22-6-.65-1.64-.43-2.98-1.12-4.02-2.08-1.04-.96-1.79-2.2-2.27-3.74-.48-1.53-.71-3.39-.71-5.57l.02-7.82c0-2.18.25-4.03.73-5.55.48-1.52,1.25-2.75,2.29-3.7,1.04-.95,2.38-1.65,4.03-2.08,1.65-.44,3.65-.65,6.01-.65l20.48.04Z"/>
</svg>